<svg xmlns="http://www.w3.org/2000/svg" width="40.263" height="40" viewBox="0 0 40.263 40">
  <g id="Symbol_309_2" data-name="Symbol 309 – 2" transform="translate(-2186 -1429)">
    <path id="Path_1927" data-name="Path 1927" d="M0,0H40V40H0Z" transform="translate(2186 1429)" fill="#fff"/>
    <g id="Group_3270" data-name="Group 3270" transform="translate(2186.357 1435.172) rotate(-7)">
      <g id="Group_3269" data-name="Group 3269" transform="translate(0 0)">
        <g id="Group_3264" data-name="Group 3264" transform="translate(0 0)">
          <path id="Path_1920" data-name="Path 1920" d="M.957,1.62A.838.838,0,0,1,.515,1.4L.073.736C-.038.515-.038.183.183.073S.736-.038.846.183l.442.663c.111.221.111.553-.111.663A.342.342,0,0,1,.957,1.62Z" transform="translate(32.522 13.964)" fill="rgba(0,178,227,0.4)" stroke="#fff" stroke-miterlimit="10" stroke-width="0.25"/>
          <path id="Path_1921" data-name="Path 1921" d="M.957,1.62A.838.838,0,0,1,.515,1.4L.073.736C-.038.515-.038.183.183.073S.736-.038.846.183l.442.663c.111.221.111.553-.111.663A.386.386,0,0,1,.957,1.62Z" transform="translate(30.798 11.619)" fill="rgba(0,178,227,0.4)" stroke="#fff" stroke-miterlimit="10" stroke-width="0.25"/>
          <path id="Path_1922" data-name="Path 1922" d="M.957,1.62A.838.838,0,0,1,.515,1.4L.073.736C-.038.515-.038.183.183.073S.736-.038.846.183l.442.663c.111.221.111.553-.111.663C1.178,1.62,1.067,1.62.957,1.62Z" transform="translate(29.182 9.172)" fill="rgba(0,178,227,0.4)" stroke="#fff" stroke-miterlimit="10" stroke-width="0.25"/>
          <path id="Path_1923" data-name="Path 1923" d="M.957,1.62A.838.838,0,0,1,.515,1.4L.073.736C-.038.515-.038.183.183.073S.736-.038.846.183l.442.663c.111.221.111.553-.111.663C1.178,1.62,1.067,1.62.957,1.62Z" transform="translate(27.565 6.827)" fill="rgba(0,178,227,0.4)" stroke="#fff" stroke-miterlimit="10" stroke-width="0.25"/>
          <path id="Path_1924" data-name="Path 1924" d="M.957,1.62A.838.838,0,0,1,.515,1.4L.073.736C-.038.515-.038.183.183.073S.736-.038.846.183l.442.663c.111.221.111.553-.111.663C1.178,1.62,1.067,1.62.957,1.62Z" transform="translate(25.949 4.483)" fill="rgba(0,178,227,0.4)" stroke="#fff" stroke-miterlimit="10" stroke-width="0.25"/>
          <path id="Path_1925" data-name="Path 1925" d="M.93,1.62A.838.838,0,0,1,.488,1.4L.046.736A.678.678,0,0,1,.156.073C.377-.038.709-.038.819.183l.442.663c.111.221.111.553-.111.663C1.04,1.62,1.04,1.62.93,1.62Z" transform="translate(24.358 2.138)" fill="rgba(0,178,227,0.4)" stroke="#fff" stroke-miterlimit="10" stroke-width="0.25"/>
          <path id="Path_1926" data-name="Path 1926" d="M9.041,31.167a2.548,2.548,0,0,1-2.21-1.216L.421,20.115a2.513,2.513,0,0,1-.332-1.989,2.5,2.5,0,0,1,1.105-1.658L25.62.442A2.221,2.221,0,0,1,27.057,0a2.548,2.548,0,0,1,2.21,1.216l6.41,9.837A2.656,2.656,0,0,1,34.9,14.7L10.478,30.725A2.431,2.431,0,0,1,9.041,31.167ZM27.057.995a2.082,2.082,0,0,0-.884.221L1.636,17.241a2.027,2.027,0,0,0-.774,1.105,1.9,1.9,0,0,0,.221,1.326l6.41,9.837a1.889,1.889,0,0,0,1.437.774,2.082,2.082,0,0,0,.884-.221L34.351,13.926a1.636,1.636,0,0,0,.442-2.321l-6.41-9.837A1.533,1.533,0,0,0,27.057.995Z" fill="#00b2e3" stroke="#00b2e3" stroke-miterlimit="10" stroke-width="0.5"/>
        </g>
      </g>
      <g id="Group_3264-2" data-name="Group 3264" transform="translate(0 0)">
        <path id="Path_1920-2" data-name="Path 1920" d="M.957,1.62A.838.838,0,0,1,.515,1.4L.073.736C-.038.515-.038.183.183.073S.736-.038.846.183l.442.663c.111.221.111.553-.111.663A.342.342,0,0,1,.957,1.62Z" transform="translate(32.522 13.964)" fill="rgba(0,178,227,0.4)" stroke="#fff" stroke-miterlimit="10" stroke-width="0.25"/>
        <path id="Path_1921-2" data-name="Path 1921" d="M.957,1.62A.838.838,0,0,1,.515,1.4L.073.736C-.038.515-.038.183.183.073S.736-.038.846.183l.442.663c.111.221.111.553-.111.663A.386.386,0,0,1,.957,1.62Z" transform="translate(30.798 11.619)" fill="rgba(0,178,227,0.4)" stroke="#fff" stroke-miterlimit="10" stroke-width="0.25"/>
        <path id="Path_1922-2" data-name="Path 1922" d="M.957,1.62A.838.838,0,0,1,.515,1.4L.073.736C-.038.515-.038.183.183.073S.736-.038.846.183l.442.663c.111.221.111.553-.111.663C1.178,1.62,1.067,1.62.957,1.62Z" transform="translate(29.182 9.172)" fill="rgba(0,178,227,0.4)" stroke="#fff" stroke-miterlimit="10" stroke-width="0.25"/>
        <path id="Path_1923-2" data-name="Path 1923" d="M.957,1.62A.838.838,0,0,1,.515,1.4L.073.736C-.038.515-.038.183.183.073S.736-.038.846.183l.442.663c.111.221.111.553-.111.663C1.178,1.62,1.067,1.62.957,1.62Z" transform="translate(27.565 6.827)" fill="rgba(0,178,227,0.4)" stroke="#fff" stroke-miterlimit="10" stroke-width="0.25"/>
        <path id="Path_1924-2" data-name="Path 1924" d="M.957,1.62A.838.838,0,0,1,.515,1.4L.073.736C-.038.515-.038.183.183.073S.736-.038.846.183l.442.663c.111.221.111.553-.111.663C1.178,1.62,1.067,1.62.957,1.62Z" transform="translate(25.949 4.483)" fill="rgba(0,178,227,0.4)" stroke="#fff" stroke-miterlimit="10" stroke-width="0.25"/>
        <path id="Path_1925-2" data-name="Path 1925" d="M.93,1.62A.838.838,0,0,1,.488,1.4L.046.736A.678.678,0,0,1,.156.073C.377-.038.709-.038.819.183l.442.663c.111.221.111.553-.111.663C1.04,1.62,1.04,1.62.93,1.62Z" transform="translate(24.358 2.138)" fill="rgba(0,178,227,0.4)" stroke="#fff" stroke-miterlimit="10" stroke-width="0.25"/>
        <path id="Path_1926-2" data-name="Path 1926" d="M9.041,31.167a2.548,2.548,0,0,1-2.21-1.216L.421,20.115a2.513,2.513,0,0,1-.332-1.989,2.5,2.5,0,0,1,1.105-1.658L25.62.442A2.221,2.221,0,0,1,27.057,0a2.548,2.548,0,0,1,2.21,1.216l6.41,9.837A2.656,2.656,0,0,1,34.9,14.7L10.478,30.725A2.431,2.431,0,0,1,9.041,31.167ZM27.057.995a2.082,2.082,0,0,0-.884.221L1.636,17.241a2.027,2.027,0,0,0-.774,1.105,1.9,1.9,0,0,0,.221,1.326l6.41,9.837a1.889,1.889,0,0,0,1.437.774,2.082,2.082,0,0,0,.884-.221L34.351,13.926a1.636,1.636,0,0,0,.442-2.321l-6.41-9.837A1.533,1.533,0,0,0,27.057.995Z" fill="#00b2e3" stroke="#00b2e3" stroke-miterlimit="10" stroke-width="0.5"/>
      </g>
    </g>
    <g id="Group_3271" data-name="Group 3271" transform="matrix(0.966, -0.259, 0.259, 0.966, 2192.047, 1444.736)">
      <g id="Group_3266" data-name="Group 3266" transform="translate(0 6.818) rotate(-21)">
        <path id="Path_1927-2" data-name="Path 1927" d="M8.715,9.569H6.322c-.057,0-.114-.057-.171-.114a.107.107,0,0,1,0-.171L8.088,6.208l-5.81-.057-1.2.114L.342,5.7.8,4.727,0,2.164a.209.209,0,0,1,.057-.171c0-.057.057-.057.171-.057l1.709.057c.057,0,.171.057.171.114l.854,1.88L8.2,3.873,6.094.342c-.057-.057,0-.114,0-.228C6.151.057,6.208,0,6.265,0h1.88a.209.209,0,0,1,.171.057l4.158,3.588,2.335.114c3.19.228,4.215,1.2,4.215,1.88,0,1.025-2.62,1.082-4.784,1.082H12.7S8.942,9.4,8.885,9.4Q8.8,9.569,8.715,9.569Z" transform="translate(0 0)" fill="none" stroke="#99e0f4" stroke-linecap="round" stroke-linejoin="round" stroke-miterlimit="10" stroke-width="2"/>
        <line id="Line_1513" data-name="Line 1513" x1="2.563" transform="translate(9.854 3.702)" fill="none" stroke="#99e0f4" stroke-linecap="round" stroke-linejoin="round" stroke-miterlimit="10" stroke-width="2"/>
      </g>
    </g>
  </g>
</svg>
