<svg xmlns="http://www.w3.org/2000/svg" width="40" height="40" viewBox="0 0 40 40">
  <g id="Symbol_302_2" data-name="Symbol 302 – 2" transform="translate(-2846 -1466)">
    <rect id="Rectangle_2655" data-name="Rectangle 2655" width="40" height="40" transform="translate(2846 1466)" fill="#fff"/>
    <g id="Group_3256" data-name="Group 3256" transform="translate(2850 1470)">
      <g id="Group_2344" data-name="Group 2344" transform="translate(0 0)">
        <path id="Path_1530" data-name="Path 1530" d="M27.656,6.7a19,19,0,0,1-11.178,3.371A19,19,0,0,1,5.3,6.7" transform="translate(-1.485 -1.643)" fill="none" stroke="#99e0f4" stroke-linecap="round" stroke-linejoin="round" stroke-miterlimit="10" stroke-width="2"/>
        <path id="Path_1531" data-name="Path 1531" d="M5.6,29a18.8,18.8,0,0,1,10.823-3.1A19.275,19.275,0,0,1,27.246,29" transform="translate(-1.519 -3.811)" fill="none" stroke="#99e0f4" stroke-linecap="round" stroke-linejoin="round" stroke-miterlimit="10" stroke-width="2"/>
        <ellipse id="Ellipse_140" data-name="Ellipse 140" cx="7.984" cy="14.904" rx="7.984" ry="14.904" transform="translate(6.92)" fill="none" stroke="#99e0f4" stroke-linecap="round" stroke-linejoin="round" stroke-miterlimit="10" stroke-width="2"/>
        <line id="Line_1210" data-name="Line 1210" x2="29.896" transform="translate(0 14.904)" fill="none" stroke="#99e0f4" stroke-linecap="round" stroke-linejoin="round" stroke-miterlimit="10" stroke-width="2"/>
        <ellipse id="Ellipse_141" data-name="Ellipse 141" cx="14.904" cy="14.904" rx="14.904" ry="14.904" transform="translate(0)" fill="none" stroke="#00b2e3" stroke-linecap="round" stroke-linejoin="round" stroke-miterlimit="10" stroke-width="2"/>
      </g>
      <path id="Path_1532" data-name="Path 1532" d="M23.4,21.7l.532,12.154,3.1-2.839a.546.546,0,0,1,.621.089l2.928,4.169,2.839-1.863L30.5,29.241a.546.546,0,0,1,.089-.621l4.258-1.863Z" transform="translate(-3.528 -3.337)" fill="#99e0f4" stroke="#fff" stroke-linecap="round" stroke-linejoin="round" stroke-miterlimit="10" stroke-width="1"/>
    </g>
  </g>
</svg>
