<svg xmlns="http://www.w3.org/2000/svg" width="60" height="60" viewBox="0 0 60 60">
  <g id="Group_2387" data-name="Group 2387" transform="translate(-211 -626)">
    <rect id="Rectangle_1667" data-name="Rectangle 1667" width="60" height="60" transform="translate(211 626)" fill="rgba(255,217,217,0)"/>
    <g id="Group_2365" data-name="Group 2365" transform="translate(-1643.258 -859.694)">
      <g id="Group_2363" data-name="Group 2363">
        <rect id="Rectangle_1686" data-name="Rectangle 1686" width="36.73" height="27.662" rx="3.736" transform="translate(1866.258 1505.293)" fill="#fff"/>
        <path id="Path_1371" data-name="Path 1371" d="M1899.252,1533.955h-29.258a4.742,4.742,0,0,1-4.736-4.736v-20.19a4.741,4.741,0,0,1,4.736-4.735h29.258a4.741,4.741,0,0,1,4.736,4.735v20.19A4.742,4.742,0,0,1,1899.252,1533.955Zm-29.258-27.661a2.738,2.738,0,0,0-2.736,2.735v20.19a2.739,2.739,0,0,0,2.736,2.736h29.258a2.739,2.739,0,0,0,2.736-2.736v-20.19a2.739,2.739,0,0,0-2.736-2.735Z" fill="#00b2e3"/>
      </g>
      <g id="Group_2364" data-name="Group 2364">
        <path id="Rectangle_1687" data-name="Rectangle 1687" d="M3.728,0h7.526a3.728,3.728,0,0,1,3.728,3.728V7.054a0,0,0,0,1,0,0H0a0,0,0,0,1,0,0V3.728A3.728,3.728,0,0,1,3.728,0Z" transform="translate(1877.132 1498.24)" fill="#fff"/>
        <path id="Path_1372" data-name="Path 1372" d="M1892.114,1506.294h-14.981a1,1,0,0,1-1-1v-3.326a4.733,4.733,0,0,1,4.727-4.729h7.526a4.734,4.734,0,0,1,4.728,4.729v3.326A1,1,0,0,1,1892.114,1506.294Zm-13.981-2h12.981v-2.326a2.731,2.731,0,0,0-2.728-2.729h-7.526a2.731,2.731,0,0,0-2.727,2.729Z" fill="#00b2e3"/>
      </g>
      <path id="Path_1373" data-name="Path 1373" d="M1873.8,1533.955a1,1,0,0,1-1-1v-27.661a1,1,0,0,1,2,0v27.661A1,1,0,0,1,1873.8,1533.955Z" fill="#00b2e3" opacity="0.3"/>
      <path id="Path_1374" data-name="Path 1374" d="M1895.829,1533.955a1,1,0,0,1-1-1v-27.661a1,1,0,0,1,2,0v27.661A1,1,0,0,1,1895.829,1533.955Z" fill="#00b2e3" opacity="0.3"/>
      <path id="Path_1375" data-name="Path 1375" d="M1885.377,1519.863l-4.513-4.513a.805.805,0,0,1,0-1.138l5.59-5.59a.807.807,0,0,1,.551-.235l4.614-.1a.8.8,0,0,1,.822.822l-.1,4.614a.807.807,0,0,1-.235.551l-5.59,5.59A.805.805,0,0,1,1885.377,1519.863Zm5.3-10.64a.68.68,0,1,0,.68.68A.679.679,0,0,0,1890.679,1509.223Z" fill="#00b2e3" opacity="0.3"/>
      <path id="Path_1376" data-name="Path 1376" d="M1890.618,1510.185a.3.3,0,0,1-.049-.005.249.249,0,0,1-.191-.176,11.081,11.081,0,0,1-.182-6.587.263.263,0,0,1,.037-.066,2.6,2.6,0,0,1,1.622-.969,2.2,2.2,0,0,1,1.752.438,2.422,2.422,0,0,1,.262,3.405l-3.055,3.865A.251.251,0,0,1,1890.618,1510.185Zm.033-6.556a10.76,10.76,0,0,0,.079,5.761l2.747-3.476a1.921,1.921,0,0,0-.18-2.7,1.722,1.722,0,0,0-1.361-.338A2.107,2.107,0,0,0,1890.651,1503.629Z" fill="#00b2e3"/>
    </g>
  </g>
</svg>
