<svg xmlns="http://www.w3.org/2000/svg" xmlns:xlink="http://www.w3.org/1999/xlink" width="60" height="60" viewBox="0 0 60 60">
  <defs>
    <clipPath id="clip-path">
      <rect id="Rectangle_1688" data-name="Rectangle 1688" width="7.094" height="23.223" transform="translate(1983.944 1571.526) rotate(-45)" fill="none"/>
    </clipPath>
  </defs>
  <g id="Group_2391" data-name="Group 2391" transform="translate(-751 -626)">
    <rect id="Rectangle_1671" data-name="Rectangle 1671" width="60" height="60" transform="translate(751 626)" fill="rgba(255,217,217,0)"/>
    <g id="Group_2370" data-name="Group 2370" transform="translate(-1217.258 -916.694)">
      <path id="Path_1380" data-name="Path 1380" d="M1992.47,1594.542a3.106,3.106,0,0,1-2.21-.915l-2.39-2.391a2.551,2.551,0,0,1-.4-3.007,2.823,2.823,0,0,0-3.809-3.809,2.554,2.554,0,0,1-3.009-.4l-2.389-2.39a3.125,3.125,0,0,1,0-4.419l24.31-24.311a3.134,3.134,0,0,1,4.419,0l2.391,2.392h0a2.558,2.558,0,0,1,.4,3.008,2.822,2.822,0,0,0,3.808,3.808,2.555,2.555,0,0,1,3.008.4l2.391,2.391a3.132,3.132,0,0,1,0,4.419l-24.312,24.311A3.1,3.1,0,0,1,1992.47,1594.542Zm-7.5-12.446a4.829,4.829,0,0,1,4.271,7.058.574.574,0,0,0,.038.667l2.392,2.392a1.148,1.148,0,0,0,1.589,0l24.312-24.311a1.125,1.125,0,0,0,0-1.59l-2.389-2.391a.57.57,0,0,0-.669-.039,4.823,4.823,0,0,1-6.507-6.507.576.576,0,0,0-.04-.67l-2.39-2.39a1.127,1.127,0,0,0-1.591,0l-24.31,24.311a1.124,1.124,0,0,0,0,1.589l2.39,2.391a.573.573,0,0,0,.668.039A4.833,4.833,0,0,1,1984.974,1582.1Z" fill="#00b2e3"/>
      <g id="Group_2369" data-name="Group 2369">
        <g id="Group_2368" data-name="Group 2368" clip-path="url(#clip-path)">
          <g id="Group_2367" data-name="Group 2367" opacity="0.3">
            <path id="Path_1381" data-name="Path 1381" d="M1986.229,1570.29a1.007,1.007,0,0,1-1.009-1,.977.977,0,0,1,.3-.7.867.867,0,0,1,.32-.22,1.023,1.023,0,0,1,.769,0,.88.88,0,0,1,.321.22.862.862,0,0,1,.219.32.97.97,0,0,1,.071.38,1.02,1.02,0,0,1-.071.39.959.959,0,0,1-.219.32,1.02,1.02,0,0,1-.321.22A.981.981,0,0,1,1986.229,1570.29Z" fill="#00b2e3"/>
            <path id="Path_1382" data-name="Path 1382" d="M1999.16,1583.64a1,1,0,0,1,0-1.411h0a1.01,1.01,0,0,1,1.42,0h0a1,1,0,0,1,0,1.411h0a.982.982,0,0,1-.71.29h0A.979.979,0,0,1,1999.16,1583.64Zm-2.73-2.73a1,1,0,0,1,0-1.41h0a1.006,1.006,0,0,1,1.42,0h0a1,1,0,0,1,0,1.41h0a1,1,0,0,1-.71.3h0A1.014,1.014,0,0,1,1996.43,1580.91Zm-2.72-2.721a.989.989,0,0,1,0-1.419h0a1,1,0,0,1,1.41,0h0a1.007,1.007,0,0,1,0,1.419h0a1,1,0,0,1-.71.29h0A1,1,0,0,1,1993.71,1578.189Zm-2.731-2.729a1.01,1.01,0,0,1,0-1.42h0a1,1,0,0,1,1.411,0h0a1.008,1.008,0,0,1,0,1.42h0a1.013,1.013,0,0,1-.71.29h0A1.009,1.009,0,0,1,1990.979,1575.46Zm-2.729-2.731a1,1,0,0,1,0-1.419h0a1,1,0,0,1,1.41,0h0a1.007,1.007,0,0,1,0,1.419h0a1,1,0,0,1-.7.291h0A1,1,0,0,1,1988.25,1572.729Z" fill="#00b2e3"/>
            <path id="Path_1383" data-name="Path 1383" d="M2002.6,1586.66a.985.985,0,0,1-.38-.07,1.058,1.058,0,0,1-.33-.22,1.014,1.014,0,0,1-.22-.32,1,1,0,0,1-.07-.39.835.835,0,0,1,.08-.38.973.973,0,0,1,.21-.32,1.6,1.6,0,0,1,.15-.13l.18-.09.179-.06a1.026,1.026,0,0,1,.911.28,1.039,1.039,0,0,1,.29.7,1.026,1.026,0,0,1-.08.39,1,1,0,0,1-.21.32A.99.99,0,0,1,2002.6,1586.66Z" fill="#00b2e3"/>
          </g>
        </g>
      </g>
    </g>
  </g>
</svg>
