<svg xmlns="http://www.w3.org/2000/svg" width="60" height="60" viewBox="0 0 60 60">
  <g id="Group_2393" data-name="Group 2393" transform="translate(-1021 -626)">
    <rect id="Rectangle_1673" data-name="Rectangle 1673" width="60" height="60" transform="translate(1021 626)" fill="rgba(255,217,217,0)"/>
    <g id="Group_2376" data-name="Group 2376" transform="translate(-947.258 -1063.694)">
      <g id="Group_2372" data-name="Group 2372" transform="translate(1979.439 1700.076)">
        <g id="Group_2371" data-name="Group 2371">
          <path id="Path_1384" data-name="Path 1384" d="M1999.457,1712.83a24.868,24.868,0,0,1-14.773-4.479.985.985,0,0,1,1.189-1.57,24.656,24.656,0,0,0,27.167,0,.986.986,0,0,1,1.191,1.57A24.865,24.865,0,0,1,1999.457,1712.83Z" transform="translate(-1979.572 -1700.172)" fill="#00b2e3" opacity="0.3"/>
          <path id="Path_1385" data-name="Path 1385" d="M2013.193,1734.343a.983.983,0,0,1-.567-.181,24.861,24.861,0,0,0-26.325,0,.985.985,0,0,1-1.137-1.609,26.81,26.81,0,0,1,28.6,0,.986.986,0,0,1-.569,1.79Z" transform="translate(-1979.579 -1700.496)" fill="#00b2e3" opacity="0.3"/>
          <path id="Path_1386" data-name="Path 1386" d="M1999.519,1739.844c-6.189,0-11.036-8.734-11.036-19.884s4.847-19.884,11.036-19.884,11.036,8.734,11.036,19.884S2005.707,1739.844,1999.519,1739.844Zm0-37.8c-4.914,0-9.066,8.2-9.066,17.914s4.152,17.914,9.066,17.914,9.066-8.2,9.066-17.914S2004.433,1702.047,1999.519,1702.047Z" transform="translate(-1979.634 -1700.076)" fill="#00b2e3" opacity="0.3"/>
          <path id="Path_1387" data-name="Path 1387" d="M2018.285,1721.229h-37.8a.985.985,0,1,1,0-1.97h37.8a.985.985,0,1,1,0,1.97Z" transform="translate(-1979.501 -1700.36)" fill="#00b2e3" opacity="0.3"/>
          <path id="Path_1388" data-name="Path 1388" d="M1999.386,1739.844a19.884,19.884,0,1,1,19.884-19.884A19.908,19.908,0,0,1,1999.386,1739.844Zm0-37.8a17.914,17.914,0,1,0,17.914,17.914A17.934,17.934,0,0,0,1999.386,1702.047Z" transform="translate(-1979.501 -1700.076)" fill="#00b2e3"/>
        </g>
      </g>
      <g id="Group_2375" data-name="Group 2375" transform="translate(1975.287 1714.47)">
        <path id="Path_1389" data-name="Path 1389" d="M1978.777,1725.976a4.031,4.031,0,0,0-2.729,3.669,2.323,2.323,0,0,0,.988,1.825,4.165,4.165,0,0,0,2.076.7,12.8,12.8,0,0,0,4.7-.62,32.548,32.548,0,0,0,4.571-1.794,1.482,1.482,0,0,1,1.272,2.678,1.856,1.856,0,0,1-.2.079,35.4,35.4,0,0,1-5.175,1.206,14.519,14.519,0,0,1-5.431-.1,5.4,5.4,0,0,1-2.537-1.323,3.261,3.261,0,0,1-1-2.682A4.4,4.4,0,0,1,1978.777,1725.976Z" transform="translate(-1975.287 -1714.854)" fill="#00b2e3"/>
        <g id="Group_2374" data-name="Group 2374" transform="translate(10.582)">
          <g id="Group_2373" data-name="Group 2373">
            <path id="Path_1390" data-name="Path 1390" d="M2020.78,1717.822a3.24,3.24,0,0,0-4.153-1.937l-8.269,3.009h0l-10.119-2.217-3.362,1.815,5.825,3.189-6.566,2.39-3.951-3.632-3.157,1.328,4.837,7.271a3.11,3.11,0,0,0,3.082,1.349l1.4-.226,7.65-2.784-3.064,11.692,4.2-1.682,7.3-13.083,6.4-2.329A3.239,3.239,0,0,0,2020.78,1717.822Z" transform="translate(-1986.043 -1714.702)" fill="#fff"/>
            <path id="Path_1391" data-name="Path 1391" d="M2000.924,1740.039a.984.984,0,0,1-.953-1.235l2.587-9.873-5.884,2.14a.968.968,0,0,1-.181.047l-1.4.226a4.1,4.1,0,0,1-4.059-1.774l-4.838-7.273a.985.985,0,0,1,.439-1.453l3.158-1.327a.985.985,0,0,1,1.048.182l3.51,3.226,3.957-1.44-3.915-2.144a.984.984,0,0,1,.006-1.731l3.362-1.814a.977.977,0,0,1,.678-.1l9.84,2.155,8-2.911a4.226,4.226,0,1,1,2.891,7.942l-6.052,2.2-7.125,12.764a.984.984,0,0,1-.495.435l-4.2,1.681A1.014,1.014,0,0,1,2000.924,1740.039Zm3.064-13.663a.986.986,0,0,1,.953,1.235l-2.569,9.8,2.066-.826,7.133-12.78a.984.984,0,0,1,.523-.445l6.4-2.328a2.256,2.256,0,0,0-1.543-4.239l-8.268,3.01a.985.985,0,0,1-.547.036l-9.762-2.138-1.446.779,4.236,2.319a.985.985,0,0,1-.137,1.789l-6.566,2.39a.981.981,0,0,1-1-.2l-3.485-3.2-1.476.62,4.177,6.28a2.135,2.135,0,0,0,2.105.92l1.313-.211,7.561-2.752A.971.971,0,0,1,2003.988,1726.376Zm1.14,11h0Z" transform="translate(-1986.028 -1714.687)" fill="#00b2e3"/>
          </g>
          <path id="Path_1392" data-name="Path 1392" d="M2017.687,1719.125a2.7,2.7,0,0,1-.337,2.705,2.409,2.409,0,0,0-1.715-4.5A2.693,2.693,0,0,1,2017.687,1719.125Z" transform="translate(-1986.466 -1714.724)" fill="#00b2e3" opacity="0.3"/>
          <path id="Path_1393" data-name="Path 1393" d="M2000.924,1740.039a.984.984,0,0,1-.953-1.235l2.587-9.873-5.884,2.14a.968.968,0,0,1-.181.047l-1.4.226a4.1,4.1,0,0,1-4.059-1.774l-4.838-7.273a.985.985,0,0,1,.439-1.453l3.158-1.327a.985.985,0,0,1,1.048.182l3.51,3.226,3.957-1.44-3.915-2.144a.984.984,0,0,1,.006-1.731l3.362-1.814a.977.977,0,0,1,.678-.1l9.84,2.155,8-2.911a4.226,4.226,0,1,1,2.891,7.942l-6.052,2.2-7.125,12.764a.984.984,0,0,1-.495.435l-4.2,1.681A1.014,1.014,0,0,1,2000.924,1740.039Zm3.064-13.663a.986.986,0,0,1,.953,1.235l-2.569,9.8,2.066-.826,7.133-12.78a.984.984,0,0,1,.523-.445l6.4-2.328a2.256,2.256,0,0,0-1.543-4.239l-8.268,3.01a.985.985,0,0,1-.547.036l-9.762-2.138-1.446.779,4.236,2.319a.985.985,0,0,1-.137,1.789l-6.566,2.39a.981.981,0,0,1-1-.2l-3.485-3.2-1.476.62,4.177,6.28a2.135,2.135,0,0,0,2.105.92l1.313-.211,7.561-2.752A.971.971,0,0,1,2003.988,1726.376Zm1.14,11h0Z" transform="translate(-1986.028 -1714.687)" fill="#00b2e3"/>
        </g>
      </g>
    </g>
  </g>
</svg>
