<svg xmlns="http://www.w3.org/2000/svg" width="40" height="40" viewBox="0 0 40 40">
  <g id="Symbol_33" data-name="Symbol 33" transform="translate(-2256 -1595)">
    <g id="Symbol_301_2" data-name="Symbol 301 – 2">
      <rect id="Rectangle_2654" data-name="Rectangle 2654" width="40" height="40" transform="translate(2256 1595)" fill="#fff"/>
    </g>
    <g id="Group_3255" data-name="Group 3255" transform="translate(-387.031 110.261)">
      <g id="Group_3249" data-name="Group 3249" transform="translate(2651.031 1488.739)">
        <path id="Path_1906" data-name="Path 1906" stroke="rgba(0,178,227,0.4)" d="M64.368,14.3l.812-6.5,6.527.725Z" fill="none" transform="translate(-46.738 -2.869)" stroke-linecap="round" stroke-linejoin="round" stroke-miterlimit="10" stroke-width="2" fill-rule="evenodd"/>
        <line id="Line_1510" data-name="Line 1510" x1="2.176" y2="16.389" transform="translate(15.034 14.649)" fill="none" stroke="rgba(0,178,227,0.4)" stroke-linecap="round" stroke-linejoin="round" stroke-miterlimit="10" stroke-width="2"/>
        <path id="Path_1908" data-name="Path 1908" d="M0,3.771" transform="translate(17.572 8.267)" fill="none" stroke="rgba(0,178,227,0.4)" stroke-linecap="round" stroke-width="2"/>
        <path id="Path_1907" data-name="Path 1907" stroke="#00b2e3" d="M47.606,7.527l-.653-.87A1.6,1.6,0,0,0,45.793,6h0A1.754,1.754,0,0,0,43.98,7.092L42.82,9.7a.654.654,0,0,0-.073.363l-.87,4.714a1.516,1.516,0,0,0,.29,1.233l.073.073,2.248.435m5.8-3.046-.87,3.626a1.193,1.193,0,0,0,.073.725l2.393,3.481a2.025,2.025,0,0,1,.435,1.305l-.073,7.9c0,1.305-2.611,1.378-2.611.145l-.363-7.252L45.866,19.42a3.251,3.251,0,0,1-1.015-3.191L46.3,9.412a2.2,2.2,0,0,1,1.305-1.668,2.7,2.7,0,0,1,2.248.29,2.783,2.783,0,0,1,.8.8l2.828,3.989,4.279.29c.943.145.29,2.466-.435,2.321L52.1,15.214l-3.7-3.481M45.14,18.55l-1.305,5L40.064,28.92c-.58,1.378,1.668,1.813,2.321.725l3.771-4.931c.145-.29.363-.508.508-.8l.943-2.1ZM54.133,3.611A2.611,2.611,0,1,1,51.522,1,2.6,2.6,0,0,1,54.133,3.611Z" fill="none" transform="translate(-39.969 -1)" stroke-linecap="round" stroke-linejoin="round" stroke-miterlimit="10" stroke-width="2" fill-rule="evenodd"/>
      </g>
    </g>
  </g>
</svg>
