<svg xmlns="http://www.w3.org/2000/svg" width="40" height="40" viewBox="0 0 40 40">
  <g id="Symbol_305_2" data-name="Symbol 305 – 2" transform="translate(-2297 -1428)">
    <rect id="Rectangle_2653" data-name="Rectangle 2653" width="40" height="40" transform="translate(2297 1428)" fill="#fff"/>
    <g id="Group_3259" data-name="Group 3259" transform="translate(2300 1431)">
      <path id="Path_1162" data-name="Path 1162" d="M12.61,7.333a.408.408,0,1,0-.577.577l.721.721c.144.144.144.144.289.144s.144,0,.289-.144a.439.439,0,0,0,0-.577Z" transform="translate(5.282 3.2)" fill="#99e0f4" stroke="#99e0f4" stroke-width="1"/>
      <path id="Path_1163" data-name="Path 1163" d="M14.61,9.333a.408.408,0,0,0-.577.577l.721.721c.144.144.144.144.289.144s.144,0,.289-.144a.439.439,0,0,0,0-.577Z" transform="translate(6.167 4.086)" fill="#99e0f4" stroke="#99e0f4" stroke-width="1"/>
      <path id="Path_1164" data-name="Path 1164" d="M16.61,11.333a.408.408,0,0,0-.577.577l.721.721c.144.144.144.144.289.144s.144,0,.289-.144a.439.439,0,0,0,0-.577Z" transform="translate(7.053 4.972)" fill="#99e0f4" stroke="#99e0f4" stroke-width="1"/>
      <path id="Path_1165" data-name="Path 1165" d="M34.485,11.11l-1.3-1.3a1.06,1.06,0,0,0-.866-.289,1.1,1.1,0,0,0-.721.289,4.751,4.751,0,0,1-2.742.866,4.574,4.574,0,0,1-3.752-7.359,1.131,1.131,0,0,0-.144-1.587l-1.3-1.3A.872.872,0,0,0,22.8,0a2.593,2.593,0,0,0-1.3.577L.433,21.644A1.918,1.918,0,0,0,0,22.654a1.2,1.2,0,0,0,.433,1.01l1.3,1.3a1.06,1.06,0,0,0,.866.289,1.1,1.1,0,0,0,.721-.289A4.751,4.751,0,0,1,6.06,24.1a4.574,4.574,0,0,1,3.752,7.359,1.131,1.131,0,0,0,.144,1.587l1.3,1.3a1.247,1.247,0,0,0,.866.433h0a1.559,1.559,0,0,0,1.01-.433L34.341,13.275a1.559,1.559,0,0,0,.433-1.01A1.122,1.122,0,0,0,34.485,11.11Zm-.433,1.01a1.094,1.094,0,0,1-.289.577L12.7,33.908a.75.75,0,0,1-.577.289c-.144,0-.289,0-.289-.144l-1.3-1.3a.439.439,0,0,1,0-.577,5.479,5.479,0,0,0-.577-7.07,5.575,5.575,0,0,0-3.9-1.587,5.919,5.919,0,0,0-3.174,1.01.439.439,0,0,1-.577,0L.866,23.086a.53.53,0,0,1-.144-.433c0-.144.144-.289.289-.433L22.076,1.154A1.318,1.318,0,0,1,22.8.721c.144,0,.144,0,.289.144l1.3,1.3a.439.439,0,0,1,0,.577,5.479,5.479,0,0,0,.577,7.07,5.575,5.575,0,0,0,3.9,1.587,5.919,5.919,0,0,0,3.174-1.01.439.439,0,0,1,.577,0l1.3,1.3C34.053,11.688,34.2,11.832,34.053,12.12Z" transform="translate(0 0)" fill="#00b2e3" stroke="#00b2e3" stroke-width="1"/>
    </g>
  </g>
</svg>
