<svg xmlns="http://www.w3.org/2000/svg" width="40" height="40" viewBox="0 0 40 40">
  <g id="Symbol_300_2" data-name="Symbol 300 – 2" transform="translate(-2465 -1568)">
    <rect id="Rectangle_2653" data-name="Rectangle 2653" width="40" height="40" transform="translate(2465 1568)" fill="#fff"/>
    <g id="Group_3254" data-name="Group 3254" transform="translate(2468.617 1574.244)">
      <line id="Line_1507" data-name="Line 1507" y2="5.002" transform="translate(0 22.51)" fill="none" stroke="rgba(0,178,227,0.4)" stroke-linecap="round" stroke-width="2"/>
      <line id="Line_1508" data-name="Line 1508" y2="5.002" transform="translate(33.766 22.51)" fill="none" stroke="rgba(0,178,227,0.4)" stroke-linecap="round" stroke-width="2"/>
      <path id="Path_1527" data-name="Path 1527" d="M14.179,13.883H5.6V9.5h5.781a2.747,2.747,0,0,1,2.8,2.8v1.585Z" transform="translate(-1.311 -1.574)" fill="none" stroke="rgba(0,178,227,0.4)" stroke-linecap="round" stroke-linejoin="round" stroke-miterlimit="10" stroke-width="2"/>
      <path id="Path_1528" data-name="Path 1528" d="M34.766,24.743H1V14.3H31.952a2.756,2.756,0,0,1,2.814,2.8Z" transform="translate(-1 -1.898)" fill="none" stroke="#00b2e3" stroke-linecap="round" stroke-linejoin="round" stroke-miterlimit="10" stroke-width="2"/>
      <path id="Path_1529" data-name="Path 1529" d="M5.2,13.4H1V1H2.4A2.706,2.706,0,0,1,5.1,3.7v9.7Z" transform="translate(-1 -1)" fill="none" stroke="#00b2e3" stroke-linecap="round" stroke-linejoin="round" stroke-miterlimit="10" stroke-width="2"/>
    </g>
  </g>
</svg>
