<svg xmlns="http://www.w3.org/2000/svg" width="60" height="60" viewBox="0 0 60 60">
  <g id="Group_2392" data-name="Group 2392" transform="translate(-886 -626)">
    <rect id="Rectangle_1672" data-name="Rectangle 1672" width="60" height="60" transform="translate(886 626)" fill="rgba(255,217,217,0)"/>
    <g id="Group_2385" data-name="Group 2385" transform="translate(-1084.258 -990.694)">
      <g id="Group_2383" data-name="Group 2383">
        <g id="Group_2379" data-name="Group 2379">
          <g id="Group_2378" data-name="Group 2378">
            <g id="Group_2377" data-name="Group 2377">
              <path id="Path_1394" data-name="Path 1394" d="M1999.685,1668.372a1,1,0,0,1-.3-.047c-9.732-3.082-17.354-11.947-17.354-20.182,0-2.009-.022-8.316-.038-12.682l-.012-3.589a1,1,0,0,1,.976-1,28.9,28.9,0,0,0,12.033-2.908,23.58,23.58,0,0,0,4.079-2.513,1,1,0,0,1,1.235,0,23.594,23.594,0,0,0,4.08,2.514,28.892,28.892,0,0,0,12.033,2.908,1,1,0,0,1,.977,1l-.013,3.589c-.016,4.366-.038,10.673-.038,12.682,0,8.236-7.623,17.1-17.355,20.182A1,1,0,0,1,1999.685,1668.372Zm-15.7-35.541.01,2.623c.016,4.368.038,10.678.038,12.689,0,7.331,6.853,15.261,15.656,18.178,8.8-2.917,15.656-10.847,15.656-18.178,0-2.011.022-8.321.038-12.689l.01-2.623a30.877,30.877,0,0,1-11.89-3.075,26.946,26.946,0,0,1-3.814-2.272,26.821,26.821,0,0,1-3.814,2.272A30.892,30.892,0,0,1,1983.981,1632.831Z" fill="#00b2e3"/>
            </g>
          </g>
        </g>
        <g id="Group_2382" data-name="Group 2382" opacity="0.3">
          <g id="Group_2381" data-name="Group 2381">
            <g id="Group_2380" data-name="Group 2380">
              <path id="Path_1395" data-name="Path 1395" d="M1999.893,1663.663c7.861-2.49,13.652-9.48,13.652-15.762,0-2.22.034-10.836.042-13.339a24.514,24.514,0,0,1-10.206-2.468,20.1,20.1,0,0,1-3.488-2.151Z" fill="#00b2e3"/>
            </g>
          </g>
        </g>
      </g>
      <g id="Group_2384" data-name="Group 2384">
        <path id="Path_1396" data-name="Path 1396" d="M2024.224,1641.069a3.377,3.377,0,0,0-4.328-2.019l-8.616,3.136h0l-10.545-2.31-3.505,1.891,6.072,3.323-6.843,2.491-4.117-3.785-3.29,1.384,5.041,7.577a3.241,3.241,0,0,0,3.212,1.405l1.464-.235,7.971-2.9-3.192,12.185,4.381-1.753,7.61-13.635,6.667-2.426A3.377,3.377,0,0,0,2024.224,1641.069Z" fill="#fff"/>
        <path id="Path_1397" data-name="Path 1397" d="M2003.548,1664.211a1,1,0,0,1-.968-1.254l2.709-10.339-6.179,2.249a.96.96,0,0,1-.183.048l-1.464.234a4.251,4.251,0,0,1-4.2-1.838l-5.041-7.578a1,1,0,0,1,.445-1.475l3.29-1.384a1,1,0,0,1,1.065.186l3.669,3.374,4.2-1.528-4.134-2.262a1,1,0,0,1,.006-1.757l3.505-1.891a1,1,0,0,1,.688-.1l10.262,2.248,8.344-3.036a4.377,4.377,0,0,1,5.609,2.615h0a4.382,4.382,0,0,1-2.616,5.609l-6.318,2.3-7.428,13.309a1,1,0,0,1-.5.442l-4.381,1.753A1,1,0,0,1,2003.548,1664.211Zm3.192-14.185a1,1,0,0,1,.968,1.254l-2.69,10.266,2.211-.885,7.437-13.325a1,1,0,0,1,.531-.452l6.667-2.427a2.377,2.377,0,1,0-1.625-4.467l-8.617,3.136a1.013,1.013,0,0,1-.556.037l-10.182-2.23-1.559.84,4.457,2.44a1,1,0,0,1-.138,1.816l-6.843,2.492a1,1,0,0,1-1.019-.2l-3.644-3.35-1.584.666,4.372,6.57a2.245,2.245,0,0,0,2.22.972l1.371-.22,7.881-2.868A.992.992,0,0,1,2006.74,1650.026Z" fill="#00b2e3"/>
      </g>
    </g>
  </g>
</svg>
