<svg xmlns="http://www.w3.org/2000/svg" width="30" height="30" viewBox="0 0 30 30">
  <defs>
    <style>
      .cls-1 {
        fill: #fff;
      }

      .cls-2 {
        fill: #00b2e3;
        stroke: #00b2e3;
        stroke-miterlimit: 10;
        stroke-width: 2px;
      }
    </style>
  </defs>
  <g id="Group_3715" data-name="Group 3715" transform="translate(-2123 -2138)">
    <g id="Symbol_355_16" data-name="Symbol 355 – 16">
      <rect id="Rectangle_2745" data-name="Rectangle 2745" class="cls-1" width="30" height="30" transform="translate(2123 2138)"/>
    </g>
    <path id="Path_2115" data-name="Path 2115" class="cls-2" d="M20.97,6.54C20.68,3.33,18.4,1,15.55,1a5.374,5.374,0,0,0-4.61,2.66A5.165,5.165,0,0,0,6.45,1C3.6,1,1.32,3.33,1.03,6.54A6.016,6.016,0,0,0,1.2,8.65a8.95,8.95,0,0,0,2.77,4.62l6.97,6.32,7.09-6.32A9.057,9.057,0,0,0,20.8,8.65,6.016,6.016,0,0,0,20.97,6.54Z" transform="translate(2127.5 2142.5)"/>
  </g>
</svg>
