<svg xmlns="http://www.w3.org/2000/svg" width="40" height="40" viewBox="0 0 40 40">
  <g id="Symbol_306_2" data-name="Symbol 306 – 2" transform="translate(-2586 -1479)">
    <rect id="Rectangle_1151" data-name="Rectangle 1151" width="40" height="40" transform="translate(2586 1479)" fill="none"/>
    <g id="Group_3260" data-name="Group 3260" transform="translate(2587.5 1483.5)">
      <path id="Path_1141" data-name="Path 1141" d="M31.039,21.217H5.835A5.339,5.339,0,0,1,.5,15.882V11.835A5.339,5.339,0,0,1,5.835,6.5h25.2a5.339,5.339,0,0,1,5.335,5.335v4.047A5.339,5.339,0,0,1,31.039,21.217Z" transform="translate(0 5.038)" fill="#fff" stroke="#00b2e3" stroke-miterlimit="10" stroke-width="2"/>
      <ellipse id="Ellipse_116" data-name="Ellipse 116" cx="4.195" cy="4.194" rx="4.195" ry="4.194" transform="translate(25.985 14.298)" fill="none" stroke="#00b2e3" stroke-miterlimit="10" stroke-width="2"/>
      <ellipse id="Ellipse_117" data-name="Ellipse 117" cx="4.195" cy="4.194" rx="4.195" ry="4.194" transform="translate(2.915 14.298)" fill="none" stroke="#00b2e3" stroke-miterlimit="10" stroke-width="2"/>
      <path id="Path_1142" data-name="Path 1142" d="M7.763,19.1H5.556A1.649,1.649,0,0,1,3.9,17.443V16.156A1.649,1.649,0,0,1,5.556,14.5H7.763a1.649,1.649,0,0,1,1.656,1.656v1.288A1.649,1.649,0,0,1,7.763,19.1Z" transform="translate(2.855 11.756)" fill="#fff" stroke="#00b2e3" stroke-miterlimit="10" stroke-width="2"/>
      <path id="Path_1143" data-name="Path 1143" d="M16.763,19.1H14.556A1.649,1.649,0,0,1,12.9,17.443V16.156A1.649,1.649,0,0,1,14.556,14.5h2.208a1.649,1.649,0,0,1,1.656,1.656v1.288A1.649,1.649,0,0,1,16.763,19.1Z" transform="translate(10.412 11.756)" fill="#fff" stroke="#00b2e3" stroke-miterlimit="10" stroke-width="2"/>
      <path id="Path_1144" data-name="Path 1144" d="M2.9,6" transform="translate(2.015 4.618)" fill="none" stroke="#00b2e3" stroke-linecap="round" stroke-linejoin="round" stroke-miterlimit="10" stroke-width="2"/>
      <path id="Path_1145" data-name="Path 1145" d="M2.9,10.618V7.675C2.9,3.627,5.843.5,9.523.5H24.056c3.679,0,6.623,3.311,6.623,7.175v2.943" transform="translate(2.015)" fill="none" stroke="#00b2e3" stroke-linecap="round" stroke-linejoin="round" stroke-miterlimit="10" stroke-width="2"/>
      <path id="Path_1909" data-name="Path 1909" d="M2.9,6.618V4.838C2.9,2.391,5.09.5,7.827.5H18.639c2.737,0,4.927,2,4.927,4.338v1.78" transform="translate(5.615 4)" fill="none" stroke="rgba(0,178,227,0.4)" stroke-linecap="round" stroke-linejoin="round" stroke-miterlimit="10" stroke-width="2"/>
    </g>
  </g>
</svg>
