<svg xmlns="http://www.w3.org/2000/svg" width="60" height="60" viewBox="0 0 60 60">
  <g id="Group_2386" data-name="Group 2386" transform="translate(-76 -626)">
    <rect id="Rectangle_1666" data-name="Rectangle 1666" width="60" height="60" transform="translate(76 626)" fill="rgba(255,217,217,0)"/>
    <g id="Group_2366" data-name="Group 2366" transform="translate(-1922.452 -781.694)">
      <path id="Path_1377" data-name="Path 1377" d="M2014.48,1447.166a5.5,5.5,0,0,1-4.573-2.447l-7.1-10.671a.923.923,0,0,1,.412-1.362l4.633-1.948a.925.925,0,0,1,.984.172l5.384,4.949,32.475-11.82a5.679,5.679,0,0,1,3.884,10.672l-33,12.011a1,1,0,0,1-.17.044l-2.062.33A5.447,5.447,0,0,1,2014.48,1447.166Zm2.779-1.311h0Zm-12.3-11.9,6.481,9.74a3.643,3.643,0,0,0,3.607,1.578l1.974-.317,32.921-11.981a3.832,3.832,0,0,0-2.622-7.2l-33,12.012a.92.92,0,0,1-.941-.187l-5.36-4.928Z" transform="translate(0 0)" fill="#00b2e3" opacity="0.3"/>
      <path id="Path_1378" data-name="Path 1378" d="M2051.4,1429.9a3.956,3.956,0,0,1-.5,3.966,3.531,3.531,0,0,0-2.514-6.594A3.951,3.951,0,0,1,2051.4,1429.9Z" transform="translate(-3.504 -0.258)" fill="#00b2e3" opacity="0.3"/>
      <path id="Path_1379" data-name="Path 1379" d="M2023.967,1459.835a.923.923,0,0,1-.893-1.158l4.043-15.436-9.557,3.479a.969.969,0,0,1-.17.044l-2.059.33a5.482,5.482,0,0,1-5.433-2.377l-7.093-10.659a.924.924,0,0,1,.412-1.363l4.628-1.946a.923.923,0,0,1,.984.172l5.378,4.944,7.18-2.614-6.75-3.7a.923.923,0,0,1,.006-1.622l4.93-2.659a.933.933,0,0,1,.635-.089l14.572,3.191,11.868-4.32a5.674,5.674,0,0,1,3.881,10.663l-9.056,3.3-10.538,18.88a.919.919,0,0,1-.464.408l-6.163,2.464A.922.922,0,0,1,2023.967,1459.835Zm4.491-18.986a.923.923,0,0,1,.893,1.157l-4.027,15.368,4.159-1.663,10.546-18.895a.923.923,0,0,1,.49-.417l9.378-3.413a3.828,3.828,0,0,0-2.619-7.193l-12.119,4.411a.925.925,0,0,1-.512.034l-14.5-3.175-3.133,1.69,7.05,3.859a.923.923,0,0,1-.128,1.677l-9.626,3.5a.914.914,0,0,1-.94-.187l-5.355-4.923-3.053,1.283,6.474,9.73a3.637,3.637,0,0,0,3.6,1.576l1.973-.317,11.131-4.051A.9.9,0,0,1,2028.459,1440.849Zm1.671,15.6h0Z" transform="translate(0 -0.001)" fill="#00b2e3"/>
    </g>
  </g>
</svg>
