<svg xmlns="http://www.w3.org/2000/svg" viewBox="0 0 64 64">
  <defs>
    <style>
      .cls-1, .cls-3, .cls-4, .cls-5, .cls-7 {
        fill: none;
      }

      .cls-2, .cls-6, .cls-7 {
        opacity: 0.3;
      }

      .cls-3, .cls-4, .cls-5, .cls-7 {
        stroke: #00b2e3;
        stroke-linecap: round;
        stroke-linejoin: round;
        stroke-width: 2px;
      }

      .cls-4 {
        stroke-dasharray: 4.032 4.032;
      }

      .cls-5, .cls-7 {
        stroke-miterlimit: 10;
      }

      .cls-6 {
        fill: #00b2e3;
      }
    </style>
  </defs>
  <g id="Group_3524" data-name="Group 3524" transform="translate(-1656 -1415)">
    <g id="Symbol_3_13" data-name="Symbol 3 – 13" transform="translate(1057 254)">
      <rect id="Rectangle_74" data-name="Rectangle 74" class="cls-1" width="64" height="64" transform="translate(599 1161)"/>
    </g>
    <g id="Group_3367" data-name="Group 3367" transform="translate(1660 1435)">
      <g id="Group_223" data-name="Group 223" class="cls-2">
        <g id="Group_222" data-name="Group 222">
          <line id="Line_98" data-name="Line 98" class="cls-3" y2="2.5" transform="translate(10.2 2.3)"/>
          <line id="Line_99" data-name="Line 99" class="cls-4" y2="14.1" transform="translate(10.2 8.9)"/>
          <line id="Line_100" data-name="Line 100" class="cls-3" y2="2.5" transform="translate(10.2 25)"/>
        </g>
      </g>
      <path id="Path_180" data-name="Path 180" class="cls-5" d="M50.5,1H12.3a2.051,2.051,0,0,0-2.1,2.1A2.112,2.112,0,0,0,8.1,1H5.2A4.225,4.225,0,0,0,1,5.2V24.6a4.225,4.225,0,0,0,4.2,4.2H8.1a2.051,2.051,0,0,0,2.1-2.1,2.051,2.051,0,0,0,2.1,2.1H50.5a4.225,4.225,0,0,0,4.2-4.2V5.2A4.225,4.225,0,0,0,50.5,1Z"/>
      <path id="Path_181" data-name="Path 181" class="cls-6" d="M31.1,7.2h0c-.5-.5-2.3.4-3,1l-1,.9c-.6.5-.9.9-1.5,1.4L18.4,9.2c-.2,0-.3,0-.4.1l-1.4.9,6.3,3.1a43.537,43.537,0,0,0-3.7,4.5L17,17.4a.367.367,0,0,0-.3.1l-.9.7,2.8,1.7,1.7,2.8.7-.9a.367.367,0,0,0,.1-.3l-.5-2.1a43.854,43.854,0,0,0,4.6-3.7L28.3,22l.9-1.4A.988.988,0,0,1,29,20l-1.3-7.2c.5-.5.9-.9,1.4-1.5l.9-1C30.6,9.6,31.6,7.8,31.1,7.2Z"/>
      <line id="Line_101" data-name="Line 101" class="cls-7" x2="14.7" transform="translate(34.8 9)"/>
      <line id="Line_102" data-name="Line 102" class="cls-7" x2="6.3" transform="translate(34.8 14.9)"/>
      <line id="Line_103" data-name="Line 103" class="cls-7" x2="9.9" transform="translate(34.8 20.9)"/>
      <line id="Line_104" data-name="Line 104" class="cls-5" y2="2.5" transform="translate(10.2 2.3)"/>
      <line id="Line_105" data-name="Line 105" class="cls-5" y2="2.5" transform="translate(10.2 25)"/>
    </g>
  </g>
</svg>
