<svg xmlns="http://www.w3.org/2000/svg" viewBox="0 0 64 64">
  <defs>
    <style>
      .cls-1, .cls-2 {
        fill: none;
      }

      .cls-2 {
        stroke: #00b2e3;
        stroke-linecap: round;
        stroke-linejoin: round;
        stroke-miterlimit: 10;
        stroke-width: 2px;
      }

      .cls-3, .cls-4 {
        opacity: 0.3;
      }

      .cls-4 {
        fill: #00b2e3;
      }
    </style>
  </defs>
  <g id="Group_3522" data-name="Group 3522" transform="translate(-1935 -1415)">
    <g id="Symbol_3_15" data-name="Symbol 3 – 15" transform="translate(1336 254)">
      <rect id="Rectangle_74" data-name="Rectangle 74" class="cls-1" width="64" height="64" transform="translate(599 1161)"/>
    </g>
    <g id="Group_3511" data-name="Group 3511" transform="translate(1947 1427)">
      <path id="Path_2120" data-name="Path 2120" class="cls-2" d="M30.6,6.7V2.4A1.367,1.367,0,0,0,29.2,1H10.3A1.43,1.43,0,0,0,8.9,2.4V6.7H7.3A1.967,1.967,0,0,0,5.4,8.6V39.4H34.1V8.6a1.967,1.967,0,0,0-1.9-1.9H30.6Z"/>
      <line id="Line_1660" data-name="Line 1660" class="cls-2" x2="37.6" transform="translate(1 39.4)"/>
      <g id="Group_3510" data-name="Group 3510" class="cls-3">
        <path id="Path_2121" data-name="Path 2121" class="cls-2" d="M32.2,6.7H7.3A1.9,1.9,0,0,0,5.4,8.6V39.4H34.1V8.6A1.784,1.784,0,0,0,32.2,6.7Z"/>
        <path id="Path_2122" data-name="Path 2122" class="cls-2" d="M29.2,1H10.4A1.453,1.453,0,0,0,8.9,2.4V6.7H30.6V2.4A1.367,1.367,0,0,0,29.2,1Z"/>
      </g>
      <path id="Path_2123" data-name="Path 2123" class="cls-4" d="M13.3,17.4H10.4a.9.9,0,0,1-.9-.9V13.6a.9.9,0,0,1,.9-.9h2.9a.9.9,0,0,1,.9.9v2.9A.9.9,0,0,1,13.3,17.4Z"/>
      <path id="Path_2124" data-name="Path 2124" class="cls-4" d="M21.4,17.4H18.5a.9.9,0,0,1-.9-.9V13.6a.9.9,0,0,1,.9-.9h2.9a.9.9,0,0,1,.9.9v2.9A.9.9,0,0,1,21.4,17.4Z"/>
      <path id="Path_2125" data-name="Path 2125" class="cls-4" d="M29.2,17.4H26.3a.9.9,0,0,1-.9-.9V13.6a.9.9,0,0,1,.9-.9h2.9a.9.9,0,0,1,.9.9v2.9C30.2,17,29.7,17.4,29.2,17.4Z"/>
      <path id="Path_2126" data-name="Path 2126" class="cls-4" d="M13.3,24.9H10.4a.9.9,0,0,1-.9-.9V21.1a.9.9,0,0,1,.9-.9h2.9a.9.9,0,0,1,.9.9V24A.9.9,0,0,1,13.3,24.9Z"/>
      <path id="Path_2127" data-name="Path 2127" class="cls-4" d="M21.4,24.9H18.5a.9.9,0,0,1-.9-.9V21.1a.9.9,0,0,1,.9-.9h2.9a.9.9,0,0,1,.9.9V24A.9.9,0,0,1,21.4,24.9Z"/>
      <path id="Path_2128" data-name="Path 2128" class="cls-4" d="M29.2,24.9H26.3a.9.9,0,0,1-.9-.9V21.1a.9.9,0,0,1,.9-.9h2.9a.9.9,0,0,1,.9.9V24C30.2,24.5,29.7,24.9,29.2,24.9Z"/>
      <path id="Path_2129" data-name="Path 2129" class="cls-4" d="M22.2,30.3H17.3a1,1,0,0,0-1,1v6.9a1,1,0,0,0,1,1h4.9a1,1,0,0,0,1-1V31.3A.942.942,0,0,0,22.2,30.3Z"/>
    </g>
  </g>
</svg>
