<svg xmlns="http://www.w3.org/2000/svg" viewBox="0 0 64 64">
  <defs>
    <style>
      .cls-1, .cls-2, .cls-3 {
        fill: none;
      }

      .cls-2, .cls-3 {
        stroke: #00b2e3;
        stroke-linecap: round;
        stroke-linejoin: round;
        stroke-miterlimit: 10;
        stroke-width: 2px;
      }

      .cls-3, .cls-4 {
        opacity: 0.3;
      }

      .cls-4 {
        fill: #00b2e3;
      }
    </style>
  </defs>
  <g id="Group_3519" data-name="Group 3519" transform="translate(-2355 -1415)">
    <g id="Symbol_3_18" data-name="Symbol 3 – 18" transform="translate(1756 254)">
      <rect id="Rectangle_74" data-name="Rectangle 74" class="cls-1" width="64" height="64" transform="translate(599 1161)"/>
    </g>
    <g id="Group_3368" data-name="Group 3368" transform="translate(2366 1426)">
      <path id="Path_186" data-name="Path 186" class="cls-2" d="M42,18.9,18.9,42a4.467,4.467,0,0,0-6.4,0L1,30.6a4.467,4.467,0,0,0,0-6.4L24.1,1a4.467,4.467,0,0,0,6.4,0L42,12.5A4.467,4.467,0,0,0,42,18.9Z"/>
      <path id="Path_187" data-name="Path 187" class="cls-3" d="M36,18.3,18.8,35.6a2.175,2.175,0,0,1-3,0L7.5,27.3a2.175,2.175,0,0,1,0-3L24.7,7a2.175,2.175,0,0,1,3,0L36,15.3A2,2,0,0,1,36,18.3Z"/>
      <path id="Path_188" data-name="Path 188" class="cls-4" d="M27.6,12.8l.4,1.1c.1.2.2.3.4.3h1.2a.369.369,0,0,1,.2.7l-1,.7a.44.44,0,0,0-.1.5l.4,1.1a.417.417,0,0,1-.6.5l-1-.7a.446.446,0,0,0-.5,0l-1,.7c-.3.2-.8-.1-.6-.5l.4-1.1a.44.44,0,0,0-.1-.5l-1-.7a.379.379,0,0,1,.2-.7h1.2c.2,0,.3-.1.4-.3l.4-1.1A.354.354,0,0,1,27.6,12.8Z"/>
      <path id="Path_189" data-name="Path 189" class="cls-4" d="M22.1,18.3l.4,1.1c.1.2.2.3.4.3h1.2a.369.369,0,0,1,.2.7l-1,.7a.44.44,0,0,0-.1.5l.4,1.1a.417.417,0,0,1-.6.5l-1-.7a.446.446,0,0,0-.5,0l-1,.7c-.3.2-.8-.1-.6-.5l.4-1.1a.44.44,0,0,0-.1-.5l-1-.7a.379.379,0,0,1,.2-.7h1.2c.2,0,.3-.1.4-.3l.4-1.1A.354.354,0,0,1,22.1,18.3Z"/>
      <path id="Path_190" data-name="Path 190" class="cls-4" d="M16.6,23.8l.4,1.1c.1.2.2.3.4.3h1.2a.369.369,0,0,1,.2.7l-1,.7a.44.44,0,0,0-.1.5l.4,1.1a.417.417,0,0,1-.6.5l-1-.7a.446.446,0,0,0-.5,0l-1,.7c-.3.2-.8-.1-.6-.5l.4-1.1a.44.44,0,0,0-.1-.5l-1-.7a.379.379,0,0,1,.2-.7h1.2c.2,0,.3-.1.4-.3l.4-1.1A.354.354,0,0,1,16.6,23.8Z"/>
    </g>
  </g>
</svg>
