<svg xmlns="http://www.w3.org/2000/svg" viewBox="0 0 64 64">
  <defs>
    <style>
      .cls-1, .cls-6 {
        fill: none;
      }

      .cls-2, .cls-4, .cls-6, .cls-7 {
        opacity: 0.3;
      }

      .cls-3, .cls-7 {
        fill: #00b2e3;
      }

      .cls-4, .cls-5 {
        fill: #fff;
      }

      .cls-4, .cls-5, .cls-6 {
        stroke: #00b2e3;
        stroke-linecap: round;
        stroke-linejoin: round;
        stroke-miterlimit: 10;
        stroke-width: 2px;
      }
    </style>
  </defs>
  <g id="Group_3523" data-name="Group 3523" transform="translate(-1796 -1415)">
    <g id="Symbol_3_14" data-name="Symbol 3 – 14" transform="translate(1197 254)">
      <rect id="Rectangle_74" data-name="Rectangle 74" class="cls-1" width="64" height="64" transform="translate(599 1161)"/>
    </g>
    <g id="Group_3370" data-name="Group 3370" transform="translate(1802.025 1420.955)">
      <g id="Group_234" data-name="Group 234" class="cls-2">
        <path id="Path_214" data-name="Path 214" class="cls-3" d="M9.3,29.4H8.8a3.219,3.219,0,0,1-2-1.2L.5,19.7A3.718,3.718,0,0,1,0,17.4a3.219,3.219,0,0,1,1.2-2l4.3-3.2.8,2.2L2.5,17.2a.55.55,0,0,0-.3.5,1.268,1.268,0,0,0,.1.6l6.3,8.5a.864.864,0,0,0,.6.3,1.268,1.268,0,0,0,.6-.1l5.9-4.3,1.4,1.8-5.9,4.3A3.292,3.292,0,0,1,9.3,29.4Z"/>
      </g>
      <path id="Path_215" data-name="Path 215" class="cls-4" d="M26.1,26.4,17.8,4.6a1.553,1.553,0,0,0-2-.9l-1.4.5a1.4,1.4,0,0,0-.9,1.2,3.485,3.485,0,0,1-.6,1.7,4.349,4.349,0,0,1-.7.6,2.515,2.515,0,0,1-3.1-.5,1.439,1.439,0,0,0-1.5-.4l-1,.4a1.553,1.553,0,0,0-.9,2L14,31a1.553,1.553,0,0,0,2,.9l9.2-3.5A1.481,1.481,0,0,0,26.1,26.4Z"/>
      <path id="Path_216" data-name="Path 216" class="cls-4" d="M22.3,19,35.7,1.7a1.73,1.73,0,0,1,2.4-.3L46.7,8a1.73,1.73,0,0,1,.3,2.4L33.6,27.8a1.73,1.73,0,0,1-2.4.3l-8.7-6.7A1.719,1.719,0,0,1,22.3,19Z"/>
      <path id="Path_217" data-name="Path 217" class="cls-5" d="M40,43.7H10.7A3.757,3.757,0,0,1,7,40V19.8a3.691,3.691,0,0,1,3.7-3.7H40a3.691,3.691,0,0,1,3.7,3.7V40A3.691,3.691,0,0,1,40,43.7Z"/>
      <path id="Path_218" data-name="Path 218" class="cls-5" d="M29.1,9H21.6a3.691,3.691,0,0,0-3.7,3.7V16h15V12.7A3.714,3.714,0,0,0,29.1,9Z"/>
      <line id="Line_118" data-name="Line 118" class="cls-6" y2="27.7" transform="translate(14.5 16)"/>
      <line id="Line_119" data-name="Line 119" class="cls-6" y2="27.7" transform="translate(36.6 16)"/>
      <path id="Path_219" data-name="Path 219" class="cls-3" d="M41.4,6.3h0c-.3-.2-1,.3-1.3.7l-.4.5c-.2.3-.4.4-.6.7L35.7,8c-.1,0-.1,0-.2.1l-.6.5,3,1.1A14.166,14.166,0,0,0,36.5,12l-1-.1h-.1l-.4.2,1.4.6.9,1.2.2-.5v-.2l-.4-.9c.5-.5,1.3-1.3,1.9-2L40.8,13l.3-.7v-.2l-1-3.2c.2-.3.4-.5.6-.8l.3-.5C41.3,7.3,41.6,6.5,41.4,6.3Z"/>
      <path id="Path_220" data-name="Path 220" class="cls-7" d="M26.1,31.5,21.6,27a.785.785,0,0,1,0-1.1l5.6-5.6a.845.845,0,0,1,.6-.2l4.6-.1a.789.789,0,0,1,.8.8l-.1,4.6a1.421,1.421,0,0,1-.2.6l-5.6,5.6A1.048,1.048,0,0,1,26.1,31.5Zm5.3-10.6a.7.7,0,1,0,.7.7A.684.684,0,0,0,31.4,20.9Z"/>
      <path id="Path_221" data-name="Path 221" class="cls-3" d="M11.4,11.5l.9-.3c.1,0,.2-.2.2-.3V10a.349.349,0,0,1,.6-.2l.5.7c.1.1.2.2.3.1l.9-.3c.3-.1.5.2.3.5l-.5.7a.3.3,0,0,0,0,.4l.5.7c.2.2-.1.6-.3.5l-.8-.2c-.1,0-.3,0-.3.1l-.5.7a.349.349,0,0,1-.6-.2v-.9c0-.1-.1-.3-.2-.3l-.9-.3C11.1,12,11.1,11.6,11.4,11.5Z"/>
    </g>
  </g>
</svg>
