<svg xmlns="http://www.w3.org/2000/svg" viewBox="0 0 64 64">
  <defs>
    <style>
      .cls-1, .cls-2 {
        fill: none;
      }

      .cls-2, .cls-5 {
        stroke: #00b2e3;
        stroke-linecap: round;
        stroke-linejoin: round;
        stroke-miterlimit: 10;
        stroke-width: 2px;
      }

      .cls-3 {
        opacity: 0.3;
      }

      .cls-4 {
        fill: #00b2e3;
      }

      .cls-5 {
        fill: #fff;
      }
    </style>
  </defs>
  <g id="Group_3518" data-name="Group 3518" transform="translate(-2497 -1415)">
    <g id="Symbol_3_19" data-name="Symbol 3 – 19" transform="translate(1898 254)">
      <rect id="Rectangle_74" data-name="Rectangle 74" class="cls-1" width="64" height="64" transform="translate(599 1161)"/>
    </g>
    <g id="Group_3365" data-name="Group 3365" transform="translate(2508.016 1425)">
      <g id="Group_213" data-name="Group 213">
        <g id="Group_212" data-name="Group 212">
          <g id="Group_211" data-name="Group 211">
            <path id="Path_170" data-name="Path 170" class="cls-2" d="M21.9,42.1c9.6-3,16.7-11.6,16.7-19.2,0-2.7,0-13.2.1-16.3a30,30,0,0,1-12.5-3A32.994,32.994,0,0,1,21.9,1a21.137,21.137,0,0,1-4.3,2.6,30,30,0,0,1-12.5,3c0,3.1.1,13.6.1,16.3C5.3,30.6,12.3,39.1,21.9,42.1Z"/>
          </g>
        </g>
      </g>
      <g id="Group_216" data-name="Group 216" class="cls-3">
        <g id="Group_215" data-name="Group 215">
          <g id="Group_214" data-name="Group 214">
            <path id="Path_171" data-name="Path 171" class="cls-4" d="M22.1,38.4c7.9-2.5,13.7-9.5,13.7-15.8V9.3A24.011,24.011,0,0,1,25.6,6.8a16.584,16.584,0,0,1-3.5-2.2"/>
          </g>
        </g>
      </g>
      <path id="Path_172" data-name="Path 172" class="cls-5" d="M27.7,27.2"/>
      <g id="Group_217" data-name="Group 217">
        <path id="Path_173" data-name="Path 173" class="cls-4" d="M3.5,24.3A4.281,4.281,0,0,0,.7,28a2.417,2.417,0,0,0,1,1.9,4.756,4.756,0,0,0,2.1.7A13.211,13.211,0,0,0,8.6,30a36.565,36.565,0,0,0,4.6-1.8,1.5,1.5,0,0,1,1.3,2.7c-.1,0-.1.1-.2.1A31.339,31.339,0,0,1,9,32.2a14.543,14.543,0,0,1-5.5-.1A5.349,5.349,0,0,1,.9,30.8,3.944,3.944,0,0,1,0,28,4.605,4.605,0,0,1,3.5,24.3Z"/>
      </g>
      <path id="Path_174" data-name="Path 174" class="cls-5" d="M30.9,27.7l1.9-2.4,11.7-3.5A2.328,2.328,0,0,0,45.8,18c-1.1-1.7-3.9-2.6-7.8-1.4l-4,1.3-7.9-2.8a6.253,6.253,0,0,0-4.2-.5l-2,.6c-.4.1-.4.9,0,1.2l4.8,4-7.8,2.2-1.8-2.3c-.9-1.2-1.6-.8-2.7-.6l-.6.2c-.2,0-.2.3-.1.5l1,3.4h0a1.165,1.165,0,0,0,0,2.3c5.2,1.2,8,2,12.5,1.1L24,30.6c-.1.4.2.9.5.8l2.4-.5A6.385,6.385,0,0,0,30,28.8l.9-1.1"/>
      <g id="Group_218" data-name="Group 218" class="cls-3">
        <path id="Path_175" data-name="Path 175" class="cls-4" d="M45.3,17.5a5.263,5.263,0,0,1-1.4,1.2,4.418,4.418,0,0,1-1.6.6,8.807,8.807,0,0,1-1.7.2,5.663,5.663,0,0,1-1.8-.3A5.263,5.263,0,0,1,40.2,18a4.418,4.418,0,0,1,1.6-.6,8.807,8.807,0,0,1,1.7-.2A3.805,3.805,0,0,1,45.3,17.5Z"/>
      </g>
      <line id="Line_95" data-name="Line 95" class="cls-5" y1="3.4" x2="1.3" transform="translate(25.1 23.8)"/>
      <path id="Path_176" data-name="Path 176" class="cls-5" d="M35.3,25.3"/>
      <line id="Line_96" data-name="Line 96" class="cls-2" y1="2.4" x2="9.2" transform="translate(24.8 17.9)"/>
    </g>
  </g>
</svg>
