<svg xmlns="http://www.w3.org/2000/svg" viewBox="0 0 19 19">
  <defs>
    <style>
      .cls-1 {
        fill: none;
        stroke: #000;
        stroke-miterlimit: 10;
      }
    </style>
  </defs>
  <g id="ico-service-web" transform="translate(-1630.457 -4719.675)">
    <path id="Path_1917" data-name="Path 1917" class="cls-1" d="M10,1a9,9,0,1,1-9,9,8.987,8.987,0,0,1,9-9Zm0,0V18.943M1,10H18.943m-2.6-6.283A9.656,9.656,0,0,1,10,5.755,9.547,9.547,0,0,1,3.66,3.717M16.34,16.226A9.547,9.547,0,0,0,10,14.189a9.547,9.547,0,0,0-6.34,2.038m6.226,2.66A10.778,10.778,0,0,1,5.415,10,10.672,10.672,0,0,1,9.887,1.17m.34,17.717A10.778,10.778,0,0,0,14.7,10a10.672,10.672,0,0,0-4.472-8.83" transform="translate(1629.957 4719.175)"/>
  </g>
</svg>
