<svg xmlns="http://www.w3.org/2000/svg" width="30" height="30" viewBox="0 0 30 30">
  <g id="ico-fb" transform="translate(-27 -2683.094)">
    <rect id="Rectangle_3222" data-name="Rectangle 3222" width="30" height="30" transform="translate(27 2683.094)" fill="none"/>
    <g id="Group_3983" data-name="Group 3983" transform="translate(-1954.553 2405.197)">
      <path id="Path_2357" data-name="Path 2357" d="M1997.874,304.9h-4.313a.459.459,0,0,1-.462-.462l0-11.074h-2.414a.461.461,0,0,1-.461-.436c-.008-.126-.011-.176-.011-.225v-1.118c0-.819,0-1.637,0-2.455a.675.675,0,0,1,.177-.493.694.694,0,0,1,.5-.176c.391,0,.781,0,1.168,0,.354,0,.7,0,1.052,0l0-.346c0-.878,0-1.757.036-2.634a5.727,5.727,0,0,1,.6-2.43,3.465,3.465,0,0,1,2.1-1.784,8.471,8.471,0,0,1,1.02-.234c.142-.026.284-.053.425-.082l.137-.031a1.066,1.066,0,0,1,.152-.023h3.871a.465.465,0,0,1,.334.144.46.46,0,0,1,.126.341l-.005.09-.007.655c0,1,0,2,0,3.006a.673.673,0,0,1-.178.494.691.691,0,0,1-.5.175c-.639-.007-1.281-.006-1.921.006a3.5,3.5,0,0,0-.579.07.419.419,0,0,0-.345.428c-.02.538-.026,1.076-.031,1.615l-.007.538h3.111a.463.463,0,0,1,.459.51l-.418,3.973a.462.462,0,0,1-.46.414h-2.691l-.009,11.06A.5.5,0,0,1,1997.874,304.9Zm-3.849-.923h3.394l0-11.08a.461.461,0,0,1,.461-.462h2.737l.321-3.051h-2.875a.618.618,0,0,1-.482-.157.582.582,0,0,1-.167-.439l.011-.873c.006-.547.011-1.094.031-1.641a1.341,1.341,0,0,1,1.1-1.3,4.359,4.359,0,0,1,.733-.087c.561-.01,1.125-.012,1.687-.008,0-.922,0-1.837,0-2.751v-.306l-3.495.034c-.151.031-.3.06-.449.087a7.6,7.6,0,0,0-.909.207,2.576,2.576,0,0,0-1.556,1.326,4.733,4.733,0,0,0-.5,2.041c-.032.867-.034,1.734-.036,2.6l0,.589a.689.689,0,0,1-.185.5.678.678,0,0,1-.5.175c-.431,0-.861,0-1.293,0h-.917c0,.739,0,1.47,0,2.2v.855h2.424a.462.462,0,0,1,.462.462Zm4.316-15.174v0Zm-.342-.34Z" transform="translate(0 0)"/>
    </g>
  </g>
</svg>
