<svg xmlns="http://www.w3.org/2000/svg" width="30" height="30" viewBox="0 0 30 30">
  <g id="ico-phone" transform="translate(-27 -2546.642)">
    <rect id="Rectangle_3218" data-name="Rectangle 3218" width="30" height="30" transform="translate(27 2546.642)" fill="none"/>
    <path id="Path_2368" data-name="Path 2368" d="M2000.088,165.448a3.105,3.105,0,0,1-.813-.108,19.468,19.468,0,0,1-4.181-1.7,24.953,24.953,0,0,1-9.727-9.726h0a19.423,19.423,0,0,1-1.7-4.181,3.21,3.21,0,0,1,.845-3.1l1.695-1.695a1.7,1.7,0,0,1,2.345,0l2.589,2.59a1.657,1.657,0,0,1,0,2.345l-1.194,1.2a.606.606,0,0,0-.028.826c1.047,1.2,1.982,2.224,3.409,3.652,1.492,1.492,2.559,2.46,3.8,3.538a.607.607,0,0,0,.826-.028l1.188-1.187a1.7,1.7,0,0,1,2.344,0l2.59,2.59a1.657,1.657,0,0,1,0,2.345l-1.695,1.694A3.239,3.239,0,0,1,2000.088,165.448Zm-14.012-11.925a24.135,24.135,0,0,0,9.4,9.4,18.708,18.708,0,0,0,4.006,1.634,2.4,2.4,0,0,0,2.316-.637l1.695-1.694a.849.849,0,0,0,0-1.2l-2.59-2.59a.871.871,0,0,0-1.2,0l-1.188,1.188a1.418,1.418,0,0,1-1.929.065c-1.215-1.059-2.332-2.073-3.836-3.576-1.443-1.443-2.389-2.483-3.446-3.69a1.414,1.414,0,0,1,.064-1.93l1.195-1.2a.851.851,0,0,0,0-1.2l-2.589-2.59a.852.852,0,0,0-1.2,0l-1.694,1.695a2.4,2.4,0,0,0-.637,2.316,18.743,18.743,0,0,0,1.636,4.008Z" transform="translate(-1952.553 2406.197)"/>
  </g>
</svg>
