<svg xmlns="http://www.w3.org/2000/svg" width="40" height="40" viewBox="0 0 40 40">
  <g id="Group_3778" data-name="Group 3778" transform="translate(12710 16712)">
    <path id="Path_2144" data-name="Path 2144" d="M0,0H40V40H0Z" transform="translate(-12710 -16712)" fill="rgba(255,255,255,0.5)"/>
    <g id="Group_2537" data-name="Group 2537" transform="translate(-12705.996 -16708.422)">
      <path id="Path_1367" data-name="Path 1367" d="M-.013,16.068a16,16,0,1,1,16.934,15.9A16.029,16.029,0,0,1-.013,16.068Zm2.377-.049a13.614,13.614,0,0,0,13.613,13.59,13.23,13.23,0,0,0,9.633-3.99,13.241,13.241,0,0,0,3.959-10.765A13.627,13.627,0,0,0,2.364,16.019Z" transform="translate(0.014 0.003)" fill="rgba(91,102,112,0.7)" stroke="#fff" stroke-width="1.2"/>
      <path id="Path_1368" data-name="Path 1368" d="M188.713,214.779a1.723,1.723,0,0,1,.221-1.819,2.111,2.111,0,0,1,.483-.429.286.286,0,0,0,.151-.274q-.006-2.361,0-4.722a.8.8,0,0,1,.626-.9.782.782,0,0,1,.937.679c.008.11,0,.217,0,.327q0,2.3,0,4.6a.255.255,0,0,0,.135.266,1.727,1.727,0,0,1,.785,2.155,1.75,1.75,0,0,1-1.959,1.173.388.388,0,0,0-.254.078c-.851.658-1.689,1.325-2.54,1.979q-1.546,1.2-3.1,2.388c-.372.286-.732.581-1.109.863a.786.786,0,1,1-1-1.21c.74-.576,1.481-1.145,2.221-1.717.634-.491,1.264-.985,1.9-1.48.8-.621,1.6-1.243,2.4-1.864C188.636,214.845,188.668,214.816,188.713,214.779Z" transform="translate(-174.347 -198.172)" fill="rgba(91,102,112,0.7)" stroke="rgba(255,255,255,0.7)" stroke-width="0.2"/>
      <path id="Path_1369" data-name="Path 1369" d="M373.61,78.969c0,.274,0,.544,0,.818a.763.763,0,0,1-.781.744.745.745,0,0,1-.773-.728q-.012-.846,0-1.693a.78.78,0,0,1,1.554,0c.008.282,0,.568,0,.854Z" transform="translate(-356.831 -74.235)" fill="rgba(91,102,112,0.7)"/>
      <path id="Path_1370" data-name="Path 1370" d="M80.774,371.618c-.266,0-.532,0-.8,0a.781.781,0,0,1,0-1.562q.785-.012,1.571,0a.783.783,0,1,1,0,1.566C81.289,371.622,81.032,371.618,80.774,371.618Z" transform="translate(-75.959 -354.921)" fill="rgba(91,102,112,0.7)"/>
      <path id="Path_1371" data-name="Path 1371" d="M373.554,625.981v.756a.785.785,0,0,1-.622.8.8.8,0,0,1-.863-.434.72.72,0,0,1-.07-.29c-.008-.552-.012-1.1,0-1.656a.761.761,0,0,1,.794-.757.769.769,0,0,1,.765.765C373.558,625.438,373.554,625.707,373.554,625.981Z" transform="translate(-356.774 -598.87)" fill="rgba(91,102,112,0.7)"/>
      <path id="Path_1372" data-name="Path 1372" d="M627.87,371.59c-.266,0-.532,0-.8,0a.781.781,0,1,1,.016-1.562c.515,0,1.035,0,1.55,0a.781.781,0,1,1,0,1.562q-.38.006-.773,0Z" transform="translate(-600.68 -354.897)" fill="rgba(91,102,112,0.7)"/>
    </g>
  </g>
</svg>
