<svg xmlns="http://www.w3.org/2000/svg" width="30" height="30" viewBox="0 0 30 30">
  <g id="ico-mail" transform="translate(-27 -2580.755)">
    <rect id="Rectangle_3219" data-name="Rectangle 3219" width="30" height="30" transform="translate(27 2580.755)" fill="none"/>
    <g id="Group_3985" data-name="Group 3985" transform="translate(-1953.661 2404.836)">
      <path id="Path_2363" data-name="Path 2363" d="M2005.442,199.6h-19.56a2.331,2.331,0,0,1-2.329-2.329v-12.7a2.331,2.331,0,0,1,2.329-2.329h19.56a2.331,2.331,0,0,1,2.329,2.329v12.7A2.331,2.331,0,0,1,2005.442,199.6Zm-19.56-16.43a1.4,1.4,0,0,0-1.4,1.4v12.7a1.4,1.4,0,0,0,1.4,1.4h19.56a1.4,1.4,0,0,0,1.4-1.4v-12.7a1.4,1.4,0,0,0-1.4-1.4Z" fill="#231f20"/>
      <path id="Path_2364" data-name="Path 2364" d="M1996.684,192.71a.534.534,0,0,1-.328-.111l-11.053-8.661a.441.441,0,0,1-.058-.657.537.537,0,0,1,.713-.053l10.726,8.4,10.726-8.4a.537.537,0,0,1,.713.053.441.441,0,0,1-.057.657l-11.055,8.661A.535.535,0,0,1,1996.684,192.71Z" transform="translate(-1.023 -0.06)" fill="#231f20"/>
    </g>
  </g>
</svg>
