<svg xmlns="http://www.w3.org/2000/svg" width="30" height="30" viewBox="0 0 30 30">
  <g id="ico-web" transform="translate(-27 -2648.981)">
    <rect id="Rectangle_3221" data-name="Rectangle 3221" width="30" height="30" transform="translate(27 2648.981)" fill="none"/>
    <g id="Group_3984" data-name="Group 3984" transform="translate(-1953.553 2405.197)">
      <path id="Path_2358" data-name="Path 2358" d="M1995.793,254.558a15.038,15.038,0,0,1-8.935-2.706.462.462,0,1,1,.558-.736,15.189,15.189,0,0,0,16.755,0,.461.461,0,0,1,.557.736A15.038,15.038,0,0,1,1995.793,254.558Z" transform="translate(-0.24 -0.326)" fill="#231f20"/>
      <path id="Path_2359" data-name="Path 2359" d="M2004.2,268.589a.455.455,0,0,1-.266-.085,15.315,15.315,0,0,0-16.234,0,.461.461,0,1,1-.532-.753,16.222,16.222,0,0,1,17.3,0,.461.461,0,0,1-.266.838Z" transform="translate(-0.263 -1.421)" fill="#231f20"/>
      <path id="Path_2360" data-name="Path 2360" d="M1996.176,270.784c-2.942,0-4.53-6.183-4.53-12s1.588-12,4.53-12,4.53,6.182,4.53,12S1999.117,270.784,1996.176,270.784Zm0-23.077c-1.706,0-3.606,4.549-3.606,11.077s1.9,11.077,3.606,11.077,3.606-4.55,3.606-11.077S1997.88,247.707,1996.176,247.707Z" transform="translate(-0.623 0)" fill="#231f20"/>
      <path id="Path_2361" data-name="Path 2361" d="M2007.091,260.207h-23.077a.462.462,0,0,1,0-.923h23.077a.462.462,0,0,1,0,.923Z" transform="translate(0 -0.962)" fill="#231f20"/>
      <path id="Path_2362" data-name="Path 2362" d="M1995.553,270.784a12,12,0,1,1,12-12A12.014,12.014,0,0,1,1995.553,270.784Zm0-23.077a11.077,11.077,0,1,0,11.077,11.077A11.089,11.089,0,0,0,1995.553,247.707Z" transform="translate(0 0)" fill="#231f20"/>
    </g>
  </g>
</svg>
