<svg xmlns="http://www.w3.org/2000/svg" width="30" height="30" viewBox="0 0 30 30">
  <g id="ico-fax" transform="translate(-27 -2512)">
    <rect id="Rectangle_3217" data-name="Rectangle 3217" width="30" height="30" transform="translate(27 2512)" fill="none"/>
    <g id="Group_3987" data-name="Group 3987" transform="translate(-1952.421 2406.334)">
      <path id="Path_2369" data-name="Path 2369" d="M2002.412,131.623H1986.43a2.35,2.35,0,0,1-2.347-2.348l.036-12.624a3.341,3.341,0,0,1,6.611-.032h11.683a2.35,2.35,0,0,1,2.347,2.348v10.308A2.35,2.35,0,0,1,2002.412,131.623Zm-17.392-14.308v11.96a1.411,1.411,0,0,0,1.409,1.409h15.982a1.411,1.411,0,0,0,1.409-1.409V118.967a1.411,1.411,0,0,0-1.409-1.409h-12.577l-.006-.463a2.4,2.4,0,0,0-4.8,0Z" transform="translate(0 -0.594)"/>
      <path id="Path_2371" data-name="Path 2371" d="M2004.07,117h-11.384a.521.521,0,0,1-.5-.5v-4.781a1.418,1.418,0,0,1,1.418-1.416h7.25a.467.467,0,0,1,.329.136l3.456,3.424a.469.469,0,0,1,.139.333v2.3C2004.78,116.727,2004.657,117,2004.07,117Zm-10.943-.938h10.716v-1.668l-3.18-3.151h-7.057a.479.479,0,0,0-.479.478Z" transform="translate(-1.386)"/>
      <path id="Path_2372" data-name="Path 2372" d="M1998.809,114.286h-3.325a.433.433,0,1,1,0-.865h3.325a.433.433,0,1,1,0,.865Z" transform="translate(-2.03 -0.455)"/>
      <path id="Path_2373" data-name="Path 2373" d="M2001.724,117.237h-6.24a.433.433,0,1,1,0-.865h6.24a.433.433,0,1,1,0,.865Z" transform="translate(-2.03 -1.766)"/>
      <path id="Path_2374" data-name="Path 2374" d="M1987.427,128.958a3.348,3.348,0,0,1-3.344-3.344v-8.49a3.344,3.344,0,1,1,6.688,0v8.49A3.349,3.349,0,0,1,1987.427,128.958Zm0-14.24a2.408,2.408,0,0,0-2.406,2.406v8.49a2.406,2.406,0,1,0,4.812,0v-8.49A2.408,2.408,0,0,0,1987.427,114.717Z" transform="translate(0 -0.594)"/>
      <path id="Path_2375" data-name="Path 2375" d="M2005.567,114.557l-1.929.024a1.226,1.226,0,0,1-1.233-1.234v-1.925Z" transform="translate(-3.132 -0.191)"/>
      <g id="Rectangle_3223" data-name="Rectangle 3223" transform="translate(1992.763 119.008)" fill="#fff" stroke="#000" stroke-width="1">
        <rect width="9.119" height="4.145" rx="1" stroke="none"/>
        <rect x="0.5" y="0.5" width="8.119" height="3.145" rx="0.5" fill="none"/>
      </g>
    </g>
  </g>
</svg>
