<svg xmlns="http://www.w3.org/2000/svg" width="40" height="40" viewBox="0 0 40 40">
  <g id="Group_3779" data-name="Group 3779" transform="translate(12686 16675)">
    <rect id="Rectangle_2015" data-name="Rectangle 2015" width="40" height="40" transform="translate(-12686 -16675)" fill="rgba(255,255,255,0.5)"/>
    <path id="Path_1366" data-name="Path 1366" d="M17.676-16.912v5.077H14.656a2.826,2.826,0,0,0-2.231.692,3.185,3.185,0,0,0-.577,2.077v3.635h5.635L16.733.261H11.849v14.6H5.964V.261H1.06V-5.431h4.9V-9.624a7.439,7.439,0,0,1,2-5.548,7.259,7.259,0,0,1,5.327-1.971A31.814,31.814,0,0,1,17.676-16.912Z" transform="translate(-12677.062 -16653.912)" fill="none" stroke="rgba(91,102,112,0.7)" stroke-width="1"/>
  </g>
</svg>
