<svg xmlns="http://www.w3.org/2000/svg" width="40" height="40" viewBox="0 0 40 40">
  <g id="Group_3781" data-name="Group 3781" transform="translate(-80 -2079)">
    <path id="Path_2145" data-name="Path 2145" d="M0,0H40V40H0Z" transform="translate(80 2079)" fill="rgba(255,255,255,0.5)"/>
    <g id="world" transform="translate(83.999 2082.999)">
      <g id="Group_2147" data-name="Group 2147">
        <path id="Path_1231" data-name="Path 1231" d="M30.964,10.3A16.016,16.016,0,0,0,11.645.6L11.624.61a15.909,15.909,0,0,0-9.38,7.235.536.536,0,0,0-.07.2,5.136,5.136,0,0,0-.631,1.106l-.04.087A16,16,0,0,0,26.094,28.413a.529.529,0,0,0,.535-.327.544.544,0,0,0,.028-.153A15.991,15.991,0,0,0,30.964,10.3Zm-19.4-8.553a3.948,3.948,0,0,0,2.867,1.448,6.575,6.575,0,0,0,.915-.04,2.193,2.193,0,0,1,1.458.173.673.673,0,0,1,.348.7,1.749,1.749,0,0,1-.467.548,1.756,1.756,0,0,0-.77,1.44,1.23,1.23,0,0,0,.526.89,1.91,1.91,0,0,0,1.5.271,4.856,4.856,0,0,0,.831-.3,3.21,3.21,0,0,1,.765-.263,3.181,3.181,0,0,1,2.082.862c.356.257.935.743.815,1.112-.092.283-.438.487-.8.7-.148.087-.292.173-.459.289a8.391,8.391,0,0,1-1.926,1.092,7.133,7.133,0,0,1-.792.214,4.79,4.79,0,0,0-1.584.578,2.09,2.09,0,0,0-.787,2.26c-.018-.006-.037-.013-.058-.022-.091-.037-.181-.08-.271-.122a1.762,1.762,0,0,0-2.745,1.548,3.4,3.4,0,0,0,1.7,2.6l.263.209a3.211,3.211,0,0,1,.449.51q-1.613-.406-3.227-.8A3.275,3.275,0,0,1,10,16.491a3.333,3.333,0,0,1-.286-.959,3.549,3.549,0,0,0-.542-1.478,3.651,3.651,0,0,0-2.1-1.162l-.1-.028c-.8-.239-1.242-.526-1.385-.9a2.182,2.182,0,0,1,.226-1.429,3.39,3.39,0,0,0,.289-2.024,1.788,1.788,0,0,0-.96-1.21,2.125,2.125,0,0,0-.924-.2c-.068,0-.137,0-.206.009A14.809,14.809,0,0,1,11.568,1.744Zm2.2,29.012,0,0a6.767,6.767,0,0,1-.61-.382,1.772,1.772,0,0,1-.811-1.214,2.092,2.092,0,0,1,.3-.909,3.493,3.493,0,0,0,.263-.8,1.635,1.635,0,0,1,.267-.7,1.746,1.746,0,0,1,.541-.336,3.5,3.5,0,0,0,.633-.364A4.066,4.066,0,0,0,15.4,24.817c.126-.22.234-.46.339-.7a3.9,3.9,0,0,1,.588-1.033c.535-.563,1.589-.145,2.015.059a8.151,8.151,0,0,1,2.217,1.471l.061.063a24.54,24.54,0,0,0,2.205,2.061,9.415,9.415,0,0,0,2.095,1.223A14.915,14.915,0,0,1,13.764,30.756Zm12.1-3.55A9.271,9.271,0,0,1,23.5,25.911a23.727,23.727,0,0,1-2.109-1.974l-.061-.063a9.049,9.049,0,0,0-2.514-1.685c-1.353-.649-2.54-.588-3.257.168a4.676,4.676,0,0,0-.788,1.328c-.1.211-.189.419-.292.6a3.041,3.041,0,0,1-.762.924,2.582,2.582,0,0,1-.448.25,2.645,2.645,0,0,0-.87.581,2.5,2.5,0,0,0-.517,1.169,2.64,2.64,0,0,1-.174.556,3.012,3.012,0,0,0-.425,1.4,2.139,2.139,0,0,0,.328,1.1A14.95,14.95,0,0,1,2.472,9.693L2.513,9.6a3.235,3.235,0,0,1,.639-1.038,1.107,1.107,0,0,1,.342-.232,1.841,1.841,0,0,1,.733-.16,1.056,1.056,0,0,1,.454.091.731.731,0,0,1,.388.513,2.553,2.553,0,0,1-.257,1.391,3.038,3.038,0,0,0-.221,2.177,2.961,2.961,0,0,0,2.086,1.547l.107.03a2.85,2.85,0,0,1,1.533.769,2.686,2.686,0,0,1,.354,1.052,4.234,4.234,0,0,0,.4,1.271,4.146,4.146,0,0,0,2.876,1.676q1.746.424,3.495.865a1.118,1.118,0,0,0,.72-.009.813.813,0,0,0,.509-.635c.122-.81-1-1.785-1.016-1.8l-.281-.224c-.664-.521-1.291-1.013-1.291-1.765a.792.792,0,0,1,.463-.736c.2-.083.366-.022.755.16.107.05.214.1.312.14a1.109,1.109,0,0,0,1.274-.16,1.086,1.086,0,0,0,.258-.928c-.088-.713-.053-1.008.306-1.24a3.938,3.938,0,0,1,1.246-.433,8.1,8.1,0,0,0,.909-.251,9.51,9.51,0,0,0,2.21-1.246c.107-.075.231-.147.355-.22a2.508,2.508,0,0,0,1.277-1.294c.252-.773-.154-1.551-1.208-2.311A4.117,4.117,0,0,0,19.38,5.553a4.046,4.046,0,0,0-1.037.34,4.026,4.026,0,0,1-.65.241.851.851,0,0,1-.628-.1c-.079-.057-.083-.1-.084-.118-.012-.139.16-.311.428-.557a2.51,2.51,0,0,0,.755-.981,1.711,1.711,0,0,0-.787-1.96,3.156,3.156,0,0,0-2.126-.332,5.5,5.5,0,0,1-.767.036,2.914,2.914,0,0,1-1.736-.7A14.922,14.922,0,0,1,25.864,27.206Z" transform="translate(-0.013 0)" fill="rgba(91,102,112,0.7)" stroke="#fff" stroke-width="0.1"/>
      </g>
    </g>
  </g>
</svg>
