<svg xmlns="http://www.w3.org/2000/svg" width="40" height="40" viewBox="0 0 40 40">
  <g id="Group_3780" data-name="Group 3780" transform="translate(12686 16712)">
    <rect id="Rectangle_2014" data-name="Rectangle 2014" width="40" height="40" transform="translate(-12686 -16712)" fill="rgba(255,255,255,0.5)"/>
    <path id="Path_1376" data-name="Path 1376" d="M16.117,0h12.1C30.708,0,32,1.269,32,3.736V20.182c0,2.349-1.269,3.689-3.595,3.689-8.27.023-16.517.023-24.787,0C1.245,23.847,0,22.555,0,20.182V3.736C0,1.269,1.269.023,3.783,0ZM1.457,4.065V20.018c0,1.762.634,2.4,2.42,2.4H28.194c1.668,0,2.326-.681,2.326-2.349V4.1c-.423.352-.8.618-1.057.853-3.689,3.219-7.354,6.461-11.043,9.656a3.356,3.356,0,0,1-4.84.023c-1.809-1.551-3.595-3.125-5.4-4.7C6.038,8.059,3.853,6.179,1.457,4.065Zm28.7-1.787a2.368,2.368,0,0,0-1.709-.821q-12.405-.07-24.787,0a1.952,1.952,0,0,0-1.913.832,3.374,3.374,0,0,0,.409.39Q8.364,8.141,14.614,13.6a1.9,1.9,0,0,0,2.913-.07c2.326-2.044,4.652-4.065,6.978-6.109C26.385,5.733,27.976,4.227,30.161,2.277Z" transform="translate(-12681.996 -16704.404)" fill="rgba(91,102,112,0.7)" stroke="#fff" stroke-width="0.4"/>
  </g>
</svg>
