<svg xmlns="http://www.w3.org/2000/svg" width="25" height="24" viewBox="0 0 25 24">
  <g id="ico-tab-5-1" transform="translate(-1833.5 -283)">
    <rect id="Rectangle_1151" data-name="Rectangle 1151" width="24" height="24" transform="translate(1834 283)" fill="none"/>
    <g id="Group_2672" data-name="Group 2672" transform="translate(1820.6 284.899)">
      <path id="Path_1151" data-name="Path 1151" d="M40.028,14.316H36.078A2.238,2.238,0,0,1,33.8,12.038v-.759A2.238,2.238,0,0,1,36.078,9h3.949a2.238,2.238,0,0,1,2.278,2.278v.759A2.238,2.238,0,0,1,40.028,14.316Z" transform="translate(-4.906 -1.924)" fill="none" stroke="#d41367" stroke-linecap="round" stroke-linejoin="round" stroke-miterlimit="10" stroke-width="1"/>
      <path id="Path_1152" data-name="Path 1152" d="M21.058,19.228H2.588c-.9,0-1.588-.987-1.588-2.278V3.278C1,1.987,1.688,1,2.588,1h18.47c.9,0,1.588.987,1.588,2.278V16.949C22.645,18.164,21.957,19.228,21.058,19.228Z" transform="translate(12.4)" fill="#fff" stroke="#d41367" stroke-linecap="round" stroke-linejoin="round" stroke-miterlimit="10" stroke-width="1"/>
      <path id="Path_1153" data-name="Path 1153" d="M18.3,13.09a3.32,3.32,0,0,1,4.709,0" transform="translate(3.378 -2.672)" fill="none" stroke="#d41367" stroke-linecap="round" stroke-linejoin="round" stroke-miterlimit="10" stroke-width="1"/>
      <path id="Path_1154" data-name="Path 1154" d="M15.2,10.151a8.7,8.7,0,0,1,9.57,0" transform="translate(4.124 -1.86)" fill="none" stroke="#d41367" stroke-linecap="round" stroke-linejoin="round" stroke-miterlimit="10" stroke-width="1"/>
      <path id="Path_1155" data-name="Path 1155" d="M13.4,11.1" transform="translate(0 -2.429)" fill="none" stroke="#d41367" stroke-linecap="round" stroke-linejoin="round" stroke-miterlimit="10" stroke-width="1"/>
      <line id="Line_902" data-name="Line 902" y2="0.759" transform="translate(24.109 12.468)" fill="none" stroke="#d41367" stroke-linecap="round" stroke-linejoin="round" stroke-miterlimit="10" stroke-width="1"/>
    </g>
  </g>
</svg>
