<svg xmlns="http://www.w3.org/2000/svg" viewBox="0 0 20.347 20.9">
  <defs>
    <style>
      .cls-1 {
        fill: #d41367;
        stroke-linecap: round;
        stroke-linejoin: round;
      }

      .cls-1, .cls-2 {
        stroke: #d41367;
        stroke-miterlimit: 10;
      }

      .cls-2 {
        fill: #fff;
      }
    </style>
  </defs>
  <g id="Group_3491" data-name="Group 3491" transform="translate(0.2 0.1)">
    <g id="Group_3490" data-name="Group 3490">
      <g id="Group_3489" data-name="Group 3489">
        <g id="Group_3488" data-name="Group 3488">
          <path id="Path_2099" data-name="Path 2099" class="cls-1" d="M8.5,20.3c4.6-1.5,8-5.6,8-9.3V3.2a14.122,14.122,0,0,1-6-1.5A13.492,13.492,0,0,1,8.4.4,7.692,7.692,0,0,1,6.3,1.7a15.782,15.782,0,0,1-6,1.5V11C.5,14.7,3.9,18.9,8.5,20.3Z"/>
        </g>
      </g>
    </g>
    <path id="Path_2100" data-name="Path 2100" class="cls-2" d="M19.4,8.7c-.6-.8-1.9-1.2-3.8-.7l-1.9.6L9.9,7.3a2.921,2.921,0,0,0-2-.3l-1,.3c-.2.1-.2.4,0,.6L9.2,9.8,5.4,10.9,4.6,9.8c-.4-.6-.8-.4-1.3-.3L3,9.6c-.1,0-.1.1,0,.2l.5,1.7h0a.561.561,0,0,0,0,1.1c2.5.6,3.9.9,6,.5L9,14.7c-.2.3,0,.5.1.5l1.2-.3a3.072,3.072,0,0,0,1.5-1l1.3-1.7,5.6-1.7A1.1,1.1,0,0,0,19.4,8.7Z"/>
  </g>
</svg>
