<svg xmlns="http://www.w3.org/2000/svg" viewBox="0 0 27 27">
  <defs>
    <style>
      .cls-1 {
        fill: none;
      }

      .cls-2 {
        fill: #757575;
      }

      .cls-3 {
        fill: #fff;
      }
    </style>
  </defs>
  <g id="icon-fb" transform="translate(-2653 -4109)">
    <rect id="Rectangle_3032" data-name="Rectangle 3032" class="cls-1" width="27" height="27" transform="translate(2653 4109)"/>
    <g id="Symbol_380_3" data-name="Symbol 380 – 3" transform="translate(0.049 -1949)">
      <path id="Path_1712" data-name="Path 1712" class="cls-2" d="M17.515,24.727a14.534,14.534,0,0,0,2.374-.264A7.066,7.066,0,0,0,24.9,18.4c.132-3.3.132-6.595,0-9.761A6.963,6.963,0,0,0,17.91,2.041H9.073a4.757,4.757,0,0,0-2.77.4A6.876,6.876,0,0,0,1.951,9.031v8.442a14.534,14.534,0,0,0,.264,2.374,7.066,7.066,0,0,0,6.067,5.012C10,24.859,16.2,24.727,17.515,24.727Z" transform="translate(2653 6058.477)"/>
      <path id="Path_1714" data-name="Path 1714" class="cls-2" d="M4.5,14V9.644A5.238,5.238,0,0,1,9.644,4.5h8.705a5.15,5.15,0,0,1,5.144,5.144v8.705A4.967,4.967,0,0,1,19.4,23.362a2.571,2.571,0,0,1-1.055.132H9.644A5.068,5.068,0,0,1,4.632,19.4,2.9,2.9,0,0,1,4.5,18.349Q4.5,16.173,4.5,14Zm3.693,0a5.918,5.918,0,0,0,5.672,5.8,5.828,5.828,0,0,0,5.8-5.672A5.918,5.918,0,0,0,14,8.325,5.825,5.825,0,0,0,8.193,14ZM18.745,7.8A1.451,1.451,0,1,0,20.2,6.347,1.464,1.464,0,0,0,18.745,7.8Z" transform="translate(2652.429 6057.864)"/>
      <path id="Path_1715" data-name="Path 1715" class="cls-3" d="M7.3,13.072a5.738,5.738,0,1,1,5.672,5.8A6.016,6.016,0,0,1,7.3,13.072Zm5.8-3.693A3.774,3.774,0,0,0,9.41,13.072,3.774,3.774,0,0,0,13.1,16.765,3.774,3.774,0,0,0,16.8,13.072,3.774,3.774,0,0,0,13.1,9.378Z" transform="translate(2653.322 6058.789)"/>
      <path id="Path_1716" data-name="Path 1716" class="cls-3" d="M15.3,7.351a1.451,1.451,0,1,1,2.9,0,1.457,1.457,0,0,1-2.9,0Z" transform="translate(2655.874 6058.311)"/>
      <path id="Path_1717" data-name="Path 1717" class="cls-2" d="M12.593,8.9a3.774,3.774,0,0,1,3.693,3.693,3.774,3.774,0,0,1-3.693,3.693A3.774,3.774,0,0,1,8.9,12.593,3.687,3.687,0,0,1,12.593,8.9Z" transform="translate(2653.833 6059.268)"/>
    </g>
  </g>
</svg>
