<svg xmlns="http://www.w3.org/2000/svg" width="16" height="16" viewBox="0 0 16 16">
  <g id="Group_2207" data-name="Group 2207" transform="translate(-495 -244)">
    <rect id="Rectangle_2003" data-name="Rectangle 2003" width="16" height="16" rx="2" transform="translate(495 244)" fill="#747d85"/>
    <path id="Rectangle_2004" data-name="Rectangle 2004" d="M0,0H16a0,0,0,0,1,0,0V6a2,2,0,0,1-2,2H2A2,2,0,0,1,0,6V0A0,0,0,0,1,0,0Z" transform="translate(495 252)" fill="#6b757d"/>
    <path id="Path_1383" data-name="Path 1383" d="M13.315,1.313A1.221,1.221,0,0,0,11.74.58L8.6,1.723h0L4.757.875l-1.28.69L5.692,2.773l-2.5.906L1.7,2.306l-1.2.5L2.334,5.571a1.179,1.179,0,0,0,1.172.511L4.038,6,6.944,4.938,5.779,9.375l1.6-.64,2.776-4.969,2.431-.885A1.224,1.224,0,0,0,13.315,1.313Z" transform="translate(496 247.497)" fill="#fff" stroke="#fff" stroke-linejoin="round" stroke-miterlimit="10" stroke-width="0.5"/>
  </g>
</svg>
