<svg xmlns="http://www.w3.org/2000/svg" width="24" height="24" viewBox="0 0 24 24">
  <g id="Group_2429" data-name="Group 2429" transform="translate(-507.566 -611)">
    <rect id="Rectangle_1988" data-name="Rectangle 1988" width="24" height="24" transform="translate(507.566 611)" fill="none"/>
    <path id="Path_1420" data-name="Path 1420" d="M1125.189,120.1a1.711,1.711,0,0,0-2.193-1.022l-4.364,1.588h0l-5.342-1.17-1.776.958,3.076,1.684-3.466,1.261-2.086-1.917-1.667.7,2.554,3.838a1.64,1.64,0,0,0,1.627.712l.742-.119,4.038-1.47-1.617,6.173,2.219-.888,3.855-6.907,3.378-1.229A1.712,1.712,0,0,0,1125.189,120.1Z" transform="translate(-596.766 498.618)" fill="none" stroke="#000" stroke-linejoin="round" stroke-width="1"/>
  </g>
</svg>
