<svg xmlns="http://www.w3.org/2000/svg" width="24" height="24.574" viewBox="0 0 24 24.574">
  <g id="ico-tab-6" transform="translate(-1912 -284.926)">
    <rect id="Rectangle_1151" data-name="Rectangle 1151" width="24" height="24" transform="translate(1912 285)" fill="none"/>
    <g id="Group_2673" data-name="Group 2673" transform="translate(1912.766 284.181)">
      <g id="Group_1413" data-name="Group 1413" transform="matrix(0.998, -0.07, 0.07, 0.998, 3.034, 6.351)">
        <g id="Group_1412" data-name="Group 1412" transform="translate(0 0)">
          <g id="Group_1411" data-name="Group 1411" transform="matrix(0.966, -0.259, 0.259, 0.966, 0, 4.086)">
            <g id="Group_1410" data-name="Group 1410" transform="translate(0 0)">
              <path id="Path_1156" data-name="Path 1156" d="M7.033,8.683H5.239c-.072,0-.072,0-.144-.072,0-.072-.072-.072,0-.144L6.6,4.952H2.225l-.933.359-1-.431.359-.646L0,1.866V1.722c0-.072.072-.072.144-.072l1.292.072a.251.251,0,0,1,.144.072l.646,1.435L6.6,3.158,4.952.215V.072C4.952,0,5.023,0,5.1,0H6.53C6.6,0,6.6,0,6.674.072l3.373,3.014,3.158.072c2.44.144,2.583.861,2.583,1.435,0,.789-.789.789-2.44.789,0,0-2.727.072-3.086.072-1,1.22-3.086,3.229-3.086,3.229Z" transform="translate(0 0)" fill="none" stroke="#5b6670" stroke-linecap="round" stroke-linejoin="round" stroke-miterlimit="10" stroke-width="1"/>
            </g>
          </g>
        </g>
      </g>
      <path id="Path_1157" data-name="Path 1157" d="M22.416,8.246c-.906,6-4.154,12.634-10.348,15.387a1.5,1.5,0,0,1-.6.141.6.6,0,0,1-.378-.141A15.955,15.955,0,0,1,3.23,16.01,32.908,32.908,0,0,1,.284,5.635a1.293,1.293,0,0,1,.076-.918,1.05,1.05,0,0,1,.6-.353C4.212,3.023,7.535,1.753,10.783.412A3.03,3.03,0,0,1,11.539.2a1.476,1.476,0,0,1,.529.141l9.9,3.953a1,1,0,0,1,.68.988c-.076.988-.076,1.976-.227,2.964" transform="translate(0 1.045)" fill="none" stroke="#5b6670" stroke-linecap="round" stroke-linejoin="round" stroke-miterlimit="10" stroke-width="1"/>
    </g>
  </g>
</svg>
