<svg xmlns="http://www.w3.org/2000/svg" xmlns:xlink="http://www.w3.org/1999/xlink" viewBox="0 0 19.4 14.699">
  <defs>
    <style>
      .cls-1, .cls-4 {
        fill: none;
      }

      .cls-1, .cls-2 {
        stroke: #d41367;
      }

      .cls-1, .cls-2, .cls-4 {
        stroke-miterlimit: 10;
      }

      .cls-2 {
        fill: #d41367;
      }

      .cls-2, .cls-4 {
        stroke-linecap: round;
        stroke-linejoin: round;
      }

      .cls-3 {
        clip-path: url(#clip-path);
      }

      .cls-4 {
        stroke: #fff;
      }

      .cls-5 {
        clip-path: url(#clip-path-2);
      }
    </style>
    <clipPath id="clip-path">
      <path id="Path_2073" data-name="Path 2073" d="M1.7,5.3a.52.52,0,0,0-.4.2A5.656,5.656,0,0,0,.5,8.3v5a1.324,1.324,0,0,0,1.3,1.3h3a1.324,1.324,0,0,0,1.3-1.3v-.1a.472.472,0,0,1,.5-.5H10V5.3Z" transform="translate(-0.5 -8.2)"/>
    </clipPath>
    <clipPath id="clip-path-2">
      <path id="Path_2074" data-name="Path 2074" d="M14,13.1v.1a1.324,1.324,0,0,0,1.3,1.3h3a1.324,1.324,0,0,0,1.3-1.3v-5a5.029,5.029,0,0,0-.8-2.7.52.52,0,0,0-.4-.2H9.9v7.3h3.4C13.8,12.6,14,12.9,14,13.1Z" transform="translate(-15 -8.2)"/>
    </clipPath>
  </defs>
  <g id="Group_3474" data-name="Group 3474" transform="translate(-0.5)">
    <path id="Path_2071" data-name="Path 2071" class="cls-1" d="M1.7,5.8,3.6,2.2A3.092,3.092,0,0,1,6.4.5h7.5a3.286,3.286,0,0,1,2.8,1.7l1.9,3.6"/>
    <path id="Path_2072" data-name="Path 2072" class="cls-2" d="M18.6,5.8H1.7A4.3,4.3,0,0,0,1,8.3v5a.9.9,0,0,0,.9.9h3a.9.9,0,0,0,.9-.9v-.1a1,1,0,0,1,1-1h6.8a1,1,0,0,1,1,1v.1a.9.9,0,0,0,.9.9h3a.9.9,0,0,0,.9-.9v-5A5.278,5.278,0,0,0,18.6,5.8Z"/>
    <g id="Group_3471" data-name="Group 3471">
      <g id="Group_3470" data-name="Group 3470" class="cls-3" transform="translate(0.5 8.2)">
        <line id="Line_1641" data-name="Line 1641" class="cls-4" x2="4.6" y2="0.4"/>
      </g>
    </g>
    <g id="Group_3473" data-name="Group 3473">
      <g id="Group_3472" data-name="Group 3472" class="cls-5" transform="translate(15 8.2)">
        <line id="Line_1642" data-name="Line 1642" class="cls-4" x1="4.8" y2="0.4"/>
      </g>
    </g>
  </g>
</svg>
