<svg xmlns="http://www.w3.org/2000/svg" viewBox="0 0 18 18">
  <defs>
    <style>
      .cls-1, .cls-3, .cls-4 {
        fill: none;
      }

      .cls-1, .cls-3 {
        stroke: #fff;
        stroke-miterlimit: 10;
      }

      .cls-1 {
        stroke-width: 1.5px;
      }

      .cls-2 {
        fill: #fff;
      }

      .cls-3 {
        stroke-linecap: round;
        stroke-linejoin: round;
      }
    </style>
  </defs>
  <g id="ico-login-wh" transform="translate(-2790 -642)">
    <g id="Group_3107" data-name="Group 3107" transform="translate(2793.635 642.857)">
      <path id="Path_1918" data-name="Path 1918" class="cls-1" d="M8.472,16.2H2.524A1.729,1.729,0,0,1,.8,14.472V8.524A1.729,1.729,0,0,1,2.524,6.8H8.472A1.729,1.729,0,0,1,10.2,8.524v5.948A1.729,1.729,0,0,1,8.472,16.2Z" transform="translate(0 -0.828)"/>
      <path id="Path_1919" data-name="Path 1919" class="cls-1" d="M2.6,5.972V3.9A3.091,3.091,0,0,1,5.7.8h0a3.091,3.091,0,0,1,3.1,3.1V6.059" transform="translate(-0.248)"/>
      <g id="Group_3106" data-name="Group 3106" transform="translate(4.076 8.559)">
        <circle id="Ellipse_252" data-name="Ellipse 252" class="cls-2" cx="1.379" cy="1.379" r="1.379"/>
        <line id="Line_1521" data-name="Line 1521" class="cls-3" y2="2.845" transform="translate(1.379 1.379)"/>
      </g>
    </g>
    <g id="Symbol_338_1" data-name="Symbol 338 – 1" transform="translate(-15 -3)">
      <rect id="Rectangle_2733" data-name="Rectangle 2733" class="cls-4" width="18" height="18" transform="translate(2805 645)"/>
    </g>
  </g>
</svg>
