<svg xmlns="http://www.w3.org/2000/svg" width="24" height="24" viewBox="0 0 24 24">
  <g id="ico-tab-4" transform="translate(-1757 -282)">
    <rect id="Rectangle_1151" data-name="Rectangle 1151" width="24" height="24" transform="translate(1757 282)" fill="none"/>
    <g id="Group_2671" data-name="Group 2671" transform="translate(1757.5 284.5)">
      <path id="Path_1141" data-name="Path 1141" d="M19.455,15.635H3.811A3.314,3.314,0,0,1,.5,12.323V9.811A3.314,3.314,0,0,1,3.811,6.5H19.455a3.314,3.314,0,0,1,3.311,3.311v2.512A3.314,3.314,0,0,1,19.455,15.635Z" transform="translate(0 0.851)" fill="#fff" stroke="#5b6670" stroke-miterlimit="10" stroke-width="1"/>
      <circle id="Ellipse_116" data-name="Ellipse 116" cx="2.284" cy="2.284" r="2.284" transform="translate(15.801 9.064)" fill="none" stroke="#5b6670" stroke-miterlimit="10" stroke-width="1"/>
      <circle id="Ellipse_117" data-name="Ellipse 117" cx="2.284" cy="2.284" r="2.284" transform="translate(3.24 9.064)" fill="none" stroke="#5b6670" stroke-miterlimit="10" stroke-width="1"/>
      <path id="Path_1142" data-name="Path 1142" d="M6.3,17.355H4.928A1.023,1.023,0,0,1,3.9,16.327v-.8A1.023,1.023,0,0,1,4.928,14.5H6.3a1.023,1.023,0,0,1,1.028,1.028v.8A1.023,1.023,0,0,1,6.3,17.355Z" transform="translate(0.482 1.986)" fill="#fff" stroke="#5b6670" stroke-miterlimit="10" stroke-width="1"/>
      <path id="Path_1143" data-name="Path 1143" d="M15.3,17.355h-1.37A1.023,1.023,0,0,1,12.9,16.327v-.8A1.023,1.023,0,0,1,13.928,14.5H15.3a1.023,1.023,0,0,1,1.028,1.028v.8A1.023,1.023,0,0,1,15.3,17.355Z" transform="translate(1.759 1.986)" fill="#fff" stroke="#5b6670" stroke-miterlimit="10" stroke-width="1"/>
      <path id="Path_1144" data-name="Path 1144" d="M2.9,6" transform="translate(0.34 0.78)" fill="none" stroke="#5b6670" stroke-linecap="round" stroke-linejoin="round" stroke-miterlimit="10" stroke-width="1"/>
      <path id="Path_1145" data-name="Path 1145" d="M2.9,6.78V4.953A4.251,4.251,0,0,1,7.011.5h9.021a4.323,4.323,0,0,1,4.111,4.453V6.78" transform="translate(0.34)" fill="none" stroke="#5b6670" stroke-linecap="round" stroke-linejoin="round" stroke-miterlimit="10" stroke-width="1"/>
    </g>
  </g>
</svg>
