<svg id="ico-line-ad-small" xmlns="http://www.w3.org/2000/svg" width="27" height="27" viewBox="0 0 27 27">
  <rect id="Rectangle_1" data-name="Rectangle 1" width="27" height="27" fill="none"/>
  <g id="ico-line-ad-small-2" data-name="ico-line-ad-small" transform="translate(1.817 1.799)">
    <path id="Subtraction_9" data-name="Subtraction 9" d="M19.338,23.52H4.178A4.178,4.178,0,0,1,0,19.335V4.186A4.179,4.179,0,0,1,4.177,0h15.18a4.18,4.18,0,0,1,4.178,4.186V19.351a4.2,4.2,0,0,1-4.2,4.169Zm-7.57-19.4a7.647,7.647,0,1,0,0,15.293,7.988,7.988,0,0,0,2.383-.37l.45-.16A.295.295,0,0,0,14.8,18.5l-.435-1.352a.292.292,0,0,0-.15-.181.3.3,0,0,0-.132-.031.285.285,0,0,0-.1.019l-.449.16a5.81,5.81,0,0,1-1.755.274,5.621,5.621,0,1,1,5.618-5.618,5.752,5.752,0,0,1-.355,1.963c-.182.5-.571.886-.885.886a.793.793,0,0,1-.789-.79V8.437a.317.317,0,0,0-.306-.306H13.636a.311.311,0,0,0-.305.289v.112l-.114-.063a3.815,3.815,0,0,0-1.77-.45h0a3.743,3.743,0,1,0,2,6.906l.081-.048.032.08a2.832,2.832,0,0,0,2.592,1.706,3.117,3.117,0,0,0,2.8-2.253,8.076,8.076,0,0,0,.467-2.641,7.646,7.646,0,0,0-7.647-7.647Zm-.321,9.5a1.852,1.852,0,1,1,1.85-1.852,1.851,1.851,0,0,1-1.85,1.852Z" fill="#767676"/>
  </g>
</svg>
