<svg id="Group_3478" data-name="Group 3478" xmlns="http://www.w3.org/2000/svg" viewBox="0 0 17.4 16.5">
  <defs>
    <style>
      .cls-1, .cls-3 {
        fill: #d41367;
      }

      .cls-1, .cls-2 {
        stroke: #d41367;
        stroke-linejoin: round;
      }

      .cls-1, .cls-2, .cls-4 {
        stroke-linecap: round;
        stroke-miterlimit: 10;
      }

      .cls-2, .cls-4 {
        fill: none;
      }

      .cls-4 {
        stroke: #fff;
      }
    </style>
  </defs>
  <path id="Path_2079" data-name="Path 2079" class="cls-1" d="M15,16H2.4A1.9,1.9,0,0,1,.5,14.1V7.2A1.9,1.9,0,0,1,2.4,5.3H15a1.9,1.9,0,0,1,1.9,1.9v6.9A2.043,2.043,0,0,1,15,16Z"/>
  <g id="Group_3477" data-name="Group 3477">
    <path id="Path_2080" data-name="Path 2080" class="cls-2" d="M2.3,3.8A3.631,3.631,0,0,1,4.9,2.7a4,4,0,0,1,2.6,1"/>
    <path id="Path_2081" data-name="Path 2081" class="cls-2" d="M.5,2.5A6.059,6.059,0,0,1,4.9.5a5.891,5.891,0,0,1,4.4,2"/>
    <path id="Path_2082" data-name="Path 2082" class="cls-3" d="M3.9,5.4a1,1,0,0,1,1-1,1.075,1.075,0,0,1,1,1"/>
  </g>
  <line id="Line_1644" data-name="Line 1644" class="cls-4" y2="3.3" transform="translate(14.5 9)"/>
</svg>
