<svg xmlns="http://www.w3.org/2000/svg" width="24.996" height="24" viewBox="0 0 24.996 24">
  <g id="ico-tab-1-1" transform="translate(-1506.504 -287)">
    <rect id="Rectangle_1151" data-name="Rectangle 1151" width="24" height="24" transform="translate(1507 287)" fill="none"/>
    <g id="Group_2680" data-name="Group 2680" transform="translate(1507 288)">
      <path id="Path_1690" data-name="Path 1690" d="M18.381,3.3a8.25,8.25,0,0,1,5.431,2.033,8.508,8.508,0,0,1,2.8,4.717,8.694,8.694,0,0,1-.494,5.2,8.784,8.784,0,0,1-2.3,3.172,8.72,8.72,0,0,1-3.7,1.789,8.149,8.149,0,0,1-9.464-6.343A8.69,8.69,0,0,1,11.8,7.041a8.072,8.072,0,0,1,5.267-3.578C17.558,3.381,18.052,3.381,18.381,3.3Z" transform="translate(-6.631 -0.657)" fill="none" stroke="rgba(212,19,103,0.4)" stroke-miterlimit="10" stroke-width="1"/>
      <path id="Path_1691" data-name="Path 1691" d="M7.723,16.715a2.271,2.271,0,0,1-.749-.084A1.18,1.18,0,0,1,5.893,15.28c-.083-1.182,0-2.449,0-3.632a1.075,1.075,0,0,1,.582-1.1c.5-.169.582-.591.666-1.013A10,10,0,0,1,9.3,4.638a10.318,10.318,0,0,1,4.16-3.209,9.35,9.35,0,0,1,3-.845A18.529,18.529,0,0,1,18.623.5a10.7,10.7,0,0,1,4.743,1.436,9.544,9.544,0,0,1,2.663,2.2,11.426,11.426,0,0,1,2.746,5.49c.083.422.083.845.582,1.013.333.084.5.507.5.929v4.054A1.26,1.26,0,0,1,28.691,16.8c-.582,0-1.165,0-1.5-.676a1.086,1.086,0,0,1-.083-.507V11.648a1.21,1.21,0,0,1,.5-1.013.644.644,0,0,0,.166-.338A9.725,9.725,0,0,0,25.7,5.567,9.616,9.616,0,0,0,22.95,3.118a10.828,10.828,0,0,0-3.578-1.351,9.9,9.9,0,0,0-8.737,3.04,10.106,10.106,0,0,0-2.663,5.321.527.527,0,0,0,.166.591,1.083,1.083,0,0,1,.416.929c0,1.1.083,2.2,0,3.294a5.11,5.11,0,0,0,.915,3.125A7.407,7.407,0,0,0,11.3,20.178c.333.253.5.084.749,0a1.359,1.359,0,0,1,1.331.591,1.4,1.4,0,0,1-.083,1.6,1.3,1.3,0,0,1-2.247-.422.3.3,0,0,0-.083-.169c.166-.507-.25-.76-.5-1.013a7.141,7.141,0,0,1-1.747-2.111C8.389,18.067,8.056,17.391,7.723,16.715Z" transform="translate(-5.856 -0.5)" fill="none" stroke="#d41367" stroke-miterlimit="10" stroke-width="1"/>
    </g>
  </g>
</svg>
