<svg xmlns="http://www.w3.org/2000/svg" xmlns:xlink="http://www.w3.org/1999/xlink" viewBox="0 0 19.4 19.48">
  <defs>
    <style>
      .cls-1, .cls-3, .cls-4 {
        fill: none;
        stroke: #000;
        stroke-miterlimit: 10;
      }

      .cls-2 {
        clip-path: url(#clip-path);
      }

      .cls-3, .cls-4 {
        stroke-linecap: round;
      }

      .cls-4 {
        stroke-dasharray: 0 2.091;
      }
    </style>
    <clipPath id="clip-path">
      <rect id="Rectangle_3025" data-name="Rectangle 3025" width="3.2" height="10.5" transform="translate(3.049 8.844) rotate(-45)"/>
    </clipPath>
  </defs>
  <g id="Group_3460" data-name="Group 3460" transform="translate(0.1)">
    <path id="Path_2065" data-name="Path 2065" class="cls-1" d="M14.2,1.9,13.1.8a.967.967,0,0,0-1.4,0l-11,11a.967.967,0,0,0,0,1.4l1.1,1.1a.783.783,0,0,0,.8.1,1.814,1.814,0,0,1,2,.3,1.843,1.843,0,0,1,.3,2,.755.755,0,0,0,.1.8l1.1,1.1a.967.967,0,0,0,1.4,0l11-11a.967.967,0,0,0,0-1.4L17.4,5.1a.783.783,0,0,0-.8-.1,1.814,1.814,0,0,1-2-.3,1.843,1.843,0,0,1-.3-2A.755.755,0,0,0,14.2,1.9Z"/>
    <g id="Group_3459" data-name="Group 3459">
      <g id="Group_3458" data-name="Group 3458" class="cls-2">
        <g id="Group_3457" data-name="Group 3457">
          <line id="Line_1633" data-name="Line 1633" class="cls-3" transform="translate(4.1 7.9)"/>
          <line id="Line_1634" data-name="Line 1634" class="cls-4" x2="5.2" y2="5.2" transform="translate(5.5 9.3)"/>
          <line id="Line_1635" data-name="Line 1635" class="cls-3" transform="translate(11.5 15.3)"/>
        </g>
      </g>
    </g>
  </g>
</svg>
