<svg xmlns="http://www.w3.org/2000/svg" width="27" height="27" viewBox="0 0 27 27">
  <g id="ico-instagram" transform="translate(21948 17417)">
    <path id="Subtraction_11" data-name="Subtraction 11" d="M17,23H6a6.007,6.007,0,0,1-6-6V6A6.007,6.007,0,0,1,6,0H17a6.007,6.007,0,0,1,6,6V17A6.007,6.007,0,0,1,17,23ZM11.536,5.75A5.739,5.739,0,0,0,5.8,11.425a6.016,6.016,0,0,0,5.673,5.8h.068A5.738,5.738,0,0,0,11.6,5.75Zm6.135-2.093a1.451,1.451,0,0,0-1.45,1.5,1.457,1.457,0,0,0,2.9,0,1.451,1.451,0,0,0-1.451-1.5ZM11.6,15.118a3.766,3.766,0,0,1-3.69-3.693A3.766,3.766,0,0,1,11.6,7.733a3.761,3.761,0,0,1,3.7,3.693A3.763,3.763,0,0,1,11.6,15.118Z" transform="translate(-21946 -17414.5)" fill="#757575"/>
    <rect id="Rectangle_3032" data-name="Rectangle 3032" width="27" height="27" transform="translate(-21948 -17417)" fill="none"/>
  </g>
</svg>
