<svg id="ico-line-ad-small" xmlns="http://www.w3.org/2000/svg" width="150" height="150" viewBox="0 0 150 150">
  <rect id="Rectangle_1" data-name="Rectangle 1" width="150" height="150" fill="none"/>
  <g id="ico-line-ad-small-2" data-name="ico-line-ad-small" transform="translate(7.997 7.7)">
    <path id="Path_1" data-name="Path 1" d="M109.513,132.967H25.353A23.207,23.207,0,0,1,2.1,109.713V25.553A23.207,23.207,0,0,1,25.353,2.3H109.6a23.207,23.207,0,0,1,23.253,23.253V109.8A23.322,23.322,0,0,1,109.513,132.967Z" transform="translate(0)" fill="#767676"/>
    <path id="Path_2" data-name="Path 2" d="M70.182,27.9a42.482,42.482,0,0,0,0,84.965,44.458,44.458,0,0,0,13.237-2.057l2.5-.894A1.634,1.634,0,0,0,87,107.767l-2.415-7.513a1.634,1.634,0,0,0-2.146-1.073l-2.5.894a32.207,32.207,0,0,1-9.749,1.52A31.213,31.213,0,1,1,101.4,70.382a32.018,32.018,0,0,1-1.968,10.911c-.984,2.683-3.13,4.919-4.919,4.919a4.39,4.39,0,0,1-4.382-4.382V51.869a1.759,1.759,0,0,0-1.7-1.7h-7.87a1.744,1.744,0,0,0-1.7,1.61v.626l-.626-.358a21.149,21.149,0,0,0-9.838-2.5,20.794,20.794,0,1,0,11.09,38.368l.447-.268.179.447a15.754,15.754,0,0,0,14.4,9.48c6.708,0,12.968-5.008,15.562-12.521a44.906,44.906,0,0,0,2.594-14.668A42.521,42.521,0,0,0,70.182,27.9Zm8.5,42.482A10.285,10.285,0,1,1,68.394,60.1,10.287,10.287,0,0,1,78.679,70.382Z" transform="translate(-2.704 -2.704)" fill="#fff"/>
  </g>
</svg>
