<svg xmlns="http://www.w3.org/2000/svg" width="24" height="24" viewBox="0 0 24 24">
  <g id="Group_2428" data-name="Group 2428" transform="translate(-538.263 -611)">
    <path id="Path_1510" data-name="Path 1510" d="M0,0H24V24H0Z" transform="translate(538.263 611)" fill="none"/>
    <path id="Path_1421" data-name="Path 1421" d="M1155.886,120.1a1.711,1.711,0,0,0-2.193-1.022l-4.364,1.588h0l-5.342-1.17-1.776.958,3.076,1.684-3.467,1.261-2.085-1.917-1.667.7,2.554,3.838a1.641,1.641,0,0,0,1.627.712l.742-.119,4.038-1.47-1.617,6.173,2.219-.888,3.855-6.907,3.378-1.229A1.712,1.712,0,0,0,1155.886,120.1Z" transform="translate(-596.766 498.618)" fill="#d41367" stroke="#d41367" stroke-linejoin="round" stroke-width="1"/>
  </g>
</svg>
