<svg id="Group_3484" data-name="Group 3484" xmlns="http://www.w3.org/2000/svg" viewBox="0 0 21.456 11.6">
  <defs>
    <style>
      .cls-1 {
        fill: #5b6670;
      }

      .cls-2 {
        fill: none;
        stroke: #5b6670;
        stroke-linecap: round;
        stroke-linejoin: round;
        stroke-miterlimit: 10;
      }
    </style>
  </defs>
  <path id="Path_2088" data-name="Path 2088" class="cls-1" d="M19.7,7H9.2C5.2,7,3.8,6,.4,4.1h0A.746.746,0,0,1,.8,2.7H15.7c2.5,0,4.8,1,5.5,2.2C21.7,6,21.6,7,19.7,7Z"/>
  <path id="Path_2089" data-name="Path 2089" class="cls-1" d="M1.2,0H.7A.215.215,0,0,0,.5.2L.9,3.3H4.1l-1-2.1A2.241,2.241,0,0,0,1.2,0Z"/>
  <path id="Path_2090" data-name="Path 2090" class="cls-1" d="M17.1,4.9,10.2,8.4a4.953,4.953,0,0,1-2.7.7H6.3a.28.28,0,0,1-.2-.5L9.6,4.9"/>
  <line id="Line_1646" data-name="Line 1646" class="cls-2" x2="20.1" transform="translate(0.5 11.1)"/>
</svg>
