<svg xmlns="http://www.w3.org/2000/svg" width="24" height="24" viewBox="0 0 24 24">
  <g id="Group_2443" data-name="Group 2443" transform="translate(-847.354 -828.815)">
    <rect id="Rectangle_2020" data-name="Rectangle 2020" width="24" height="24" transform="translate(847.354 828.815)" fill="none"/>
    <g id="Group_2437" data-name="Group 2437" transform="translate(-220.639 295.945)">
      <path id="Path_1424" data-name="Path 1424" d="M1085.2,549.454a52.723,52.723,0,0,1-7.451.03l-.3-.24s-.114-.545-.193-1.218l-2.3-8.023-.28-2.052c0-.425.742-.861,1.166-.861,0,0,1.317-.094,1.4.675l.312,1.955,2.251,7.175s5.51-.967,5.51.314A21.373,21.373,0,0,1,1085.2,549.454Z" fill="#5f666f"/>
      <path id="Path_1425" data-name="Path 1425" d="M1082.364,544.933a.44.44,0,0,1-.4.45h-4.349a.417.417,0,0,1-.374-.45v-.124a.418.418,0,0,1,.374-.451h4.349a.441.441,0,0,1,.4.451Z" fill="#5f666f"/>
      <rect id="Rectangle_2027" data-name="Rectangle 2027" width="1.025" height="2.05" transform="translate(1080.826 549.484)" fill="#5f666f"/>
      <path id="Path_1426" data-name="Path 1426" d="M1084.927,552.038c0,.178-.179.521-.4.521h-6.375c-.221,0-.4-.343-.4-.521v-.182a.367.367,0,0,1,.4-.322h6.375a.368.368,0,0,1,.4.322Z" fill="#5f666f"/>
    </g>
  </g>
</svg>
