<svg xmlns="http://www.w3.org/2000/svg" width="24" height="24" viewBox="0 0 24 24">
  <g id="Group_3304" data-name="Group 3304" transform="translate(-2243 -761)">
    <rect id="Rectangle_2679" data-name="Rectangle 2679" width="24" height="24" transform="translate(2243 761)" fill="none"/>
    <g id="Group_2654" data-name="Group 2654" transform="translate(2247.8 761.6)">
      <path id="Path_1676" data-name="Path 1676" d="M5.763,16.577h4.662a1.99,1.99,0,0,0,1.963-1.963V5.863A1.99,1.99,0,0,0,10.425,3.9H5.763A1.99,1.99,0,0,0,3.8,5.863v8.751A1.99,1.99,0,0,0,5.763,16.577Z" transform="translate(-0.656 -0.638)" fill="none" stroke="#5b6670" stroke-linecap="round" stroke-linejoin="round" stroke-miterlimit="10" stroke-width="1"/>
      <path id="Path_1677" data-name="Path 1677" d="M12.568,19.7H3a.908.908,0,0,0-.9.9v1.145a.908.908,0,0,0,.9.9H12.65a.908.908,0,0,0,.9-.9V20.6A1.045,1.045,0,0,0,12.568,19.7Z" transform="translate(-0.346 -3.516)" fill="none" stroke="#5b6670" stroke-linecap="round" stroke-linejoin="round" stroke-miterlimit="10" stroke-width="1"/>
      <path id="Path_1678" data-name="Path 1678" d="M12.224,23.6H4.045a.261.261,0,0,0-.245.245v2.535a.261.261,0,0,0,.245.245h8.178a.261.261,0,0,0,.245-.245V23.845Q12.346,23.6,12.224,23.6Z" transform="translate(-0.656 -4.226)" fill="none" stroke="#5b6670" stroke-linecap="round" stroke-linejoin="round" stroke-miterlimit="10" stroke-width="1"/>
      <path id="Path_1679" data-name="Path 1679" d="M2,17.48V13.8a.908.908,0,0,0-.9-.9.908.908,0,0,0-.9.9v3.762a.908.908,0,0,0,.9.9A.976.976,0,0,0,2,17.48Z" transform="translate(0 -2.277)" fill="none" stroke="#5b6670" stroke-linecap="round" stroke-linejoin="round" stroke-miterlimit="10" stroke-width="1"/>
      <path id="Path_1680" data-name="Path 1680" d="M16.6,12.9a.908.908,0,0,0-.9.9v3.762a.9.9,0,0,0,1.8,0V13.8A.908.908,0,0,0,16.6,12.9Z" transform="translate(-2.823 -2.277)" fill="none" stroke="#5b6670" stroke-linecap="round" stroke-linejoin="round" stroke-miterlimit="10" stroke-width="1"/>
      <path id="Path_1681" data-name="Path 1681" d="M5.613,3.017h5.4c.164,0,.327-.082.327-.245L11.747.809C11.829.564,11.665.4,11.42.4h-6.3C4.877.4,4.713.645,4.8.809L5.2,2.772A.7.7,0,0,0,5.613,3.017Z" transform="translate(-0.833 0)" fill="none" stroke="#5b6670" stroke-linecap="round" stroke-linejoin="round" stroke-miterlimit="10" stroke-width="1"/>
    </g>
  </g>
</svg>
