<svg xmlns="http://www.w3.org/2000/svg" width="23.746" height="23.7" viewBox="0 0 23.746 23.7">
  <g id="Group_2636" data-name="Group 2636" transform="translate(0.3 0.3)">
    <path id="Path_1162" data-name="Path 1162" d="M12.38,7.3A.271.271,0,1,0,12,7.68l.479.479c.1.1.1.1.192.1s.1,0,.192-.1a.292.292,0,0,0,0-.383Z" transform="translate(-0.495 -0.3)" fill="#5b6670" stroke="#5b6670" stroke-width="0.6"/>
    <path id="Path_1163" data-name="Path 1163" d="M14.38,9.3A.271.271,0,0,0,14,9.68l.479.479c.1.1.1.1.192.1s.1,0,.192-.1a.292.292,0,0,0,0-.383Z" transform="translate(-0.578 -0.383)" fill="#5b6670" stroke="#5b6670" stroke-width="0.6"/>
    <path id="Path_1164" data-name="Path 1164" d="M16.38,11.3A.271.271,0,1,0,16,11.68l.479.479c.1.1.1.1.192.1s.1,0,.192-.1a.292.292,0,0,0,0-.383Z" transform="translate(-0.661 -0.466)" fill="#5b6670" stroke="#5b6670" stroke-width="0.6"/>
    <path id="Path_1165" data-name="Path 1165" d="M22.908,7.38l-.863-.863a.7.7,0,0,0-.575-.192.732.732,0,0,0-.479.192,3.156,3.156,0,0,1-1.821.575A3.038,3.038,0,0,1,16.678,2.2a.751.751,0,0,0-.1-1.054L15.719.288A.58.58,0,0,0,15.144,0a1.722,1.722,0,0,0-.863.383L.288,14.378A1.274,1.274,0,0,0,0,15.049a.8.8,0,0,0,.288.671l.863.863a.7.7,0,0,0,.575.192.732.732,0,0,0,.479-.192,3.156,3.156,0,0,1,1.821-.575A3.038,3.038,0,0,1,6.518,20.9a.751.751,0,0,0,.1,1.054l.863.863a.828.828,0,0,0,.575.288h0a1.035,1.035,0,0,0,.671-.288L22.812,8.818a1.035,1.035,0,0,0,.288-.671A.745.745,0,0,0,22.908,7.38Zm-.288.671a.727.727,0,0,1-.192.383L8.435,22.525a.5.5,0,0,1-.383.192c-.1,0-.192,0-.192-.1L7,21.758a.292.292,0,0,1,0-.383,3.639,3.639,0,0,0-.383-4.7,3.7,3.7,0,0,0-2.588-1.054,3.932,3.932,0,0,0-2.109.671.292.292,0,0,1-.383,0l-.959-.959a.352.352,0,0,1-.1-.288c0-.1.1-.192.192-.288L14.665.767a.876.876,0,0,1,.479-.288c.1,0,.1,0,.192.1l.863.863a.292.292,0,0,1,0,.383,3.639,3.639,0,0,0,.383,4.7A3.7,3.7,0,0,0,19.17,7.572,3.932,3.932,0,0,0,21.279,6.9a.292.292,0,0,1,.383,0l.863.863C22.621,7.764,22.717,7.86,22.621,8.051Z" transform="translate(0 0)" fill="#5b6670" stroke="#5b6670" stroke-width="0.6"/>
  </g>
</svg>
