<svg xmlns="http://www.w3.org/2000/svg" viewBox="0 0 21.3 12.438">
  <defs>
    <style>
      .cls-1 {
        fill: #5b6670;
      }

      .cls-2 {
        fill: none;
        stroke: #5b6670;
        stroke-linecap: round;
        stroke-linejoin: round;
        stroke-miterlimit: 10;
      }
    </style>
  </defs>
  <g id="Group_3483" data-name="Group 3483" transform="translate(0 -0.063)">
    <path id="Path_2085" data-name="Path 2085" class="cls-1" d="M20.2,2.9l-9.3,5C7.4,9.7,5.6,9.5,1.8,9.5h0a.731.731,0,0,1-.3-1.4l13.1-7C16.8-.1,19.3-.2,20.5.5,21.4,1.1,21.8,2.1,20.2,2.9Z"/>
    <path id="Path_2086" data-name="Path 2086" class="cls-1" d="M.5,5.5l-.4.2C0,5.7,0,5.9,0,6L1.8,8.6,4.6,7.1l-2-1.4A1.808,1.808,0,0,0,.5,5.5Z"/>
    <path id="Path_2087" data-name="Path 2087" class="cls-1" d="M16.6,2.1l-7.7.1a6.007,6.007,0,0,0-2.7.7l-1.1.6c-.3.1-.2.5,0,.5L9.9,5.6"/>
    <line id="Line_1645" data-name="Line 1645" class="cls-2" x2="20.1" transform="translate(0.7 12)"/>
  </g>
</svg>
