<svg id="Group_3485" data-name="Group 3485" xmlns="http://www.w3.org/2000/svg" viewBox="0 0 14.009 15.4">
  <defs>
    <style>
      .cls-1 {
        fill: #5b6670;
      }

      .cls-2 {
        fill: none;
        stroke: #5b6670;
        stroke-miterlimit: 10;
      }
    </style>
  </defs>
  <path id="Path_2092" data-name="Path 2092" class="cls-1" d="M13.6,6.4H.5v-2A2.476,2.476,0,0,1,3,1.9h8.1a2.476,2.476,0,0,1,2.5,2.5Z"/>
  <path id="Path_2093" data-name="Path 2093" class="cls-2" d="M11.7,1.9H2.4A1.9,1.9,0,0,0,.5,3.8V13a1.9,1.9,0,0,0,1.9,1.9h9.2A1.9,1.9,0,0,0,13.5,13V3.8A1.815,1.815,0,0,0,11.7,1.9Z"/>
  <circle id="Ellipse_283" data-name="Ellipse 283" class="cls-1" cx="0.7" cy="0.7" r="0.7" transform="translate(6.6 8.2)"/>
  <circle id="Ellipse_284" data-name="Ellipse 284" class="cls-1" cx="0.7" cy="0.7" r="0.7" transform="translate(10 8.2)"/>
  <circle id="Ellipse_285" data-name="Ellipse 285" class="cls-1" cx="0.7" cy="0.7" r="0.7" transform="translate(6.6 11.1)"/>
  <circle id="Ellipse_286" data-name="Ellipse 286" class="cls-1" cx="0.7" cy="0.7" r="0.7" transform="translate(2.7 11.1)"/>
  <circle id="Ellipse_287" data-name="Ellipse 287" class="cls-1" cx="0.7" cy="0.7" r="0.7" transform="translate(10 11.1)"/>
  <path id="Path_2094" data-name="Path 2094" class="cls-1" d="M4.2,0h0a.472.472,0,0,0-.5.5V2.3a.472.472,0,0,0,.5.5h0a.472.472,0,0,0,.5-.5V.5A.472.472,0,0,0,4.2,0Z"/>
  <path id="Path_2095" data-name="Path 2095" class="cls-1" d="M9.9,0h0a.472.472,0,0,0-.5.5V2.3a.472.472,0,0,0,.5.5h0a.472.472,0,0,0,.5-.5V.5A.472.472,0,0,0,9.9,0Z"/>
</svg>
