<svg xmlns="http://www.w3.org/2000/svg" width="24" height="24" viewBox="0 0 24 24">
  <g id="Group_2441" data-name="Group 2441" transform="translate(-751 -752.408)">
    <path id="Path_1512" data-name="Path 1512" d="M0,0H24V24H0Z" transform="translate(751 752.408)" fill="none"/>
    <path id="Path_1422" data-name="Path 1422" d="M989.736,470.919,986.423,470a.962.962,0,0,1-.528-1.429,9.489,9.489,0,0,0,1.178-4.523c0-2.868-1.537-3.724-3.434-3.724s-3.433.856-3.433,3.724a9.489,9.489,0,0,0,1.178,4.523.962.962,0,0,1-.528,1.429l-3.313.918a2.889,2.889,0,0,0-2.176,2.747v.427a1.052,1.052,0,0,0,.917,1.058h0a65.081,65.081,0,0,0,14.711,0h0a1.052,1.052,0,0,0,.917-1.058v-.427A2.889,2.889,0,0,0,989.736,470.919Z" transform="translate(-220.639 295.945)" fill="#5b6670"/>
  </g>
</svg>
