<svg xmlns="http://www.w3.org/2000/svg" viewBox="0 0 13.219 15.426">
  <defs>
    <style>
      .cls-1 {
        fill: #5b6670;
      }
    </style>
  </defs>
  <g id="Group_3487" data-name="Group 3487" transform="translate(0.019 0.025)">
    <path id="Path_2096" data-name="Path 2096" class="cls-1" d="M10.1,10.4,9.2,8.5a1.568,1.568,0,0,0-1.4-.9H5.5a.993.993,0,0,1-1-.7L2.4.4A.569.569,0,0,0,1.7,0L.6.5A1.141,1.141,0,0,0,0,1.7s2.1,8.7,2.6,10.6a1.621,1.621,0,0,0,1.6,1.2h8.2a.86.86,0,0,0,.8-.8v-1a.51.51,0,0,0-.4-.5Z"/>
    <path id="Path_2097" data-name="Path 2097" class="cls-1" d="M3.8,4.8l-.3.1a.715.715,0,0,1-.9-.5L2,2.6a.76.76,0,0,1,.5-.9l.3-.1a.715.715,0,0,1,.9.5l.6,1.8A.76.76,0,0,1,3.8,4.8Z"/>
    <path id="Path_2098" data-name="Path 2098" class="cls-1" d="M12.1,15.4H3.8c-.3,0-.5-.3-.4-.5L4,13.5c.1-.2.2-.3.4-.3h7.1c.2,0,.3.1.4.3l.5,1.3A.367.367,0,0,1,12.1,15.4Z"/>
  </g>
</svg>
