<svg xmlns="http://www.w3.org/2000/svg" width="20.997" height="20" viewBox="0 0 20.997 20">
  <g id="Symbol_1_7" data-name="Symbol 1 – 7" transform="translate(-1580.503 -1401)">
    <rect id="Rectangle_1151" data-name="Rectangle 1151" width="20" height="20" transform="translate(1581 1401)" fill="none"/>
    <g id="Group_2680" data-name="Group 2680" transform="translate(-0.132 -3.061)">
      <path id="Path_1690" data-name="Path 1690" d="M16.435,3.3a6.2,6.2,0,0,1,4.108,1.556,6.528,6.528,0,0,1,2.116,3.61,6.687,6.687,0,0,1-2.116,6.412,6.564,6.564,0,0,1-2.8,1.369,6.1,6.1,0,0,1-2.988-.187,6.231,6.231,0,0,1-4.171-4.669,6.718,6.718,0,0,1,.871-5.229,6.1,6.1,0,0,1,3.984-2.739C15.812,3.362,16.186,3.362,16.435,3.3Z" transform="translate(1574.501 1404.404)" fill="none" stroke="rgba(91,102,112,0.4)" stroke-miterlimit="10" stroke-width="1"/>
      <path id="Path_1691" data-name="Path 1691" d="M7.412,13.813a1.92,1.92,0,0,1-.624-.069.973.973,0,0,1-.9-1.109c-.069-.971,0-2.011,0-2.982a.88.88,0,0,1,.485-.9c.416-.139.485-.485.555-.832A8.15,8.15,0,0,1,8.729,3.9,8.583,8.583,0,0,1,12.2,1.263a7.882,7.882,0,0,1,2.5-.693A15.672,15.672,0,0,1,16.5.5a9.011,9.011,0,0,1,3.952,1.179,7.929,7.929,0,0,1,2.219,1.8,9.329,9.329,0,0,1,2.288,4.507c.069.347.069.693.485.832.277.069.416.416.416.763v3.328a1.042,1.042,0,0,1-.971.971c-.485,0-.971,0-1.248-.555a.879.879,0,0,1-.069-.416V9.653a.988.988,0,0,1,.416-.832.526.526,0,0,0,.139-.277A7.927,7.927,0,0,0,22.389,4.66,7.975,7.975,0,0,0,20.1,2.649,9.107,9.107,0,0,0,17.119,1.54a8.292,8.292,0,0,0-4.3.485A8.1,8.1,0,0,0,9.839,4.036,8.251,8.251,0,0,0,7.62,8.4a.429.429,0,0,0,.139.485.883.883,0,0,1,.347.763c0,.9.069,1.8,0,2.7a4.151,4.151,0,0,0,.763,2.565,6.109,6.109,0,0,0,1.525,1.733c.277.208.416.069.624,0a1.112,1.112,0,0,1,1.04,1.8,1.093,1.093,0,0,1-1.872-.347.242.242,0,0,0-.069-.139c.139-.416-.208-.624-.416-.832a5.884,5.884,0,0,1-1.456-1.733C7.967,14.922,7.689,14.368,7.412,13.813Z" transform="translate(1575.276 1404.561)" fill="none" stroke="#5b6670" stroke-miterlimit="10" stroke-width="1"/>
    </g>
  </g>
</svg>
