<svg xmlns="http://www.w3.org/2000/svg" viewBox="0 0 24 24">
  <defs>
    <style>
      .cls-1, .cls-3 {
        fill: none;
      }

      .cls-2, .cls-4 {
        fill: #00b2e3;
        stroke: #00b2e3;
      }

      .cls-2 {
        stroke-linecap: round;
        stroke-linejoin: round;
      }

      .cls-2, .cls-3, .cls-4 {
        stroke-miterlimit: 10;
      }

      .cls-3 {
        stroke: #fff;
        stroke-width: 0.75px;
      }

      .cls-5 {
        fill: #fff;
      }
    </style>
  </defs>
  <g id="Group_3529" data-name="Group 3529" transform="translate(-994 -4445)">
    <g id="Symbol_386_18" data-name="Symbol 386 – 18" transform="translate(60 187)">
      <rect id="Rectangle_3027" data-name="Rectangle 3027" class="cls-1" width="24" height="24" transform="translate(934 4258)"/>
    </g>
    <g id="Group_3494" data-name="Group 3494" transform="translate(996.5 4448.5)">
      <path id="Path_2105" data-name="Path 2105" class="cls-2" d="M6.6,11.1a6.914,6.914,0,0,1,6.9-6.9,6.151,6.151,0,0,1,1.3.1A7.686,7.686,0,1,0,8.2,15.9h.3A7.078,7.078,0,0,1,6.6,11.1Z"/>
      <path id="Path_2106" data-name="Path 2106" class="cls-3" d="M7.4,9.3A5.274,5.274,0,0,1,6.2,9c-1.1-.4-2-.9-1.8-1.9C4.5,6,4,4.8,3.3,4.7c-.4,0-2.1-.2-2.8-.3"/>
      <path id="Path_2107" data-name="Path 2107" class="cls-3" d="M.9,3.7c.9-.4,2.5-1.5,3.9-1.2A6.3,6.3,0,0,0,7.4,2a5.491,5.491,0,0,1,3.3-.8A10.622,10.622,0,0,0,12.6.8"/>
      <circle id="Ellipse_290" data-name="Ellipse 290" class="cls-4" cx="4.8" cy="4.8" r="4.8" transform="translate(8.7 6.3)"/>
      <path id="Path_2108" data-name="Path 2108" class="cls-5" d="M14.2,13.7a.7.7,0,0,1-.9.7L12,14l.5-.4a.6.6,0,0,0,.3-.6V10.6a.684.684,0,0,1,.7-.7h0a.684.684,0,0,1,.7.7Z"/>
      <circle id="Ellipse_291" data-name="Ellipse 291" class="cls-5" cx="0.9" cy="0.9" r="0.9" transform="translate(12.6 7.7)"/>
    </g>
  </g>
</svg>
