<svg xmlns="http://www.w3.org/2000/svg" width="24" height="24" viewBox="0 0 24 24">
  <g id="Group_2458" data-name="Group 2458" transform="translate(-194.384 -281.067)">
    <rect id="Rectangle_2030" data-name="Rectangle 2030" width="24" height="24" transform="translate(194.384 281.067)" fill="none"/>
    <path id="Path_1429" data-name="Path 1429" d="M1352.438,164.255h-2.784a2.784,2.784,0,0,1-2.784-2.784h0a2.784,2.784,0,0,1,2.784-2.783h2.784l9.611-2.439a.773.773,0,0,1,.974.734v8.836a.773.773,0,0,1-.965.736Z" transform="translate(-1148.563 130.235)" fill="#00b2e3" stroke="#00b2e3" stroke-linejoin="round" stroke-width="1"/>
    <line id="Line_965" data-name="Line 965" y1="6.558" transform="translate(203.396 288.427)" fill="none" stroke="#fff" stroke-linejoin="round" stroke-width="0.75"/>
    <path id="Path_1439" data-name="Path 1439" d="M1350.928,164.218l.952,2.651a1.334,1.334,0,0,1-1.316,1.78h0a1.334,1.334,0,0,1-1.2-.886l-1.525-4.18" transform="translate(-1148.563 130.235)" fill="#00b2e3" stroke="#00b2e3" stroke-linejoin="round" stroke-width="1"/>
  </g>
</svg>
