<svg xmlns="http://www.w3.org/2000/svg" width="24" height="24" viewBox="0 0 24 24">
  <g id="Group_2456" data-name="Group 2456" transform="translate(-165 -242.617)">
    <rect id="Rectangle_2028" data-name="Rectangle 2028" width="24" height="24" transform="translate(165 242.617)" fill="none"/>
    <g id="Group_2444" data-name="Group 2444" transform="translate(-1148.563 130.235)" opacity="0.3">
      <path id="Path_1430" data-name="Path 1430" d="M1325.288,125.871a21.43,21.43,0,0,1-2.68-.661c-1.051-.36-1.96-.876-1.849-1.936s-.42-2.3-1.076-2.336a17.733,17.733,0,0,1-1.923-.12,7.672,7.672,0,0,0,6.346,11.239" fill="none" stroke="#5b6670" stroke-miterlimit="10" stroke-width="0.75"/>
      <path id="Path_1431" data-name="Path 1431" d="M1321.149,118.662a5.551,5.551,0,0,0,2.649-.432,5.977,5.977,0,0,1,3.345-.805,1.291,1.291,0,0,0,.559-.042,7.651,7.651,0,0,0-8.8,1.821A4.844,4.844,0,0,1,1321.149,118.662Z" fill="none" stroke="#5b6670" stroke-miterlimit="10" stroke-width="0.75"/>
    </g>
    <circle id="Ellipse_123" data-name="Ellipse 123" cx="4.796" cy="4.796" r="4.796" transform="translate(176.52 252.699)" fill="#fff" stroke="#5b6670" stroke-miterlimit="10" stroke-width="1"/>
    <path id="Path_1442" data-name="Path 1442" d="M1331.135,120.455a7.672,7.672,0,1,0-6.586,11.6c.111,0,.218-.012.327-.016" transform="translate(-1148.563 130.235)" fill="none" stroke="#5b6670" stroke-linecap="round" stroke-miterlimit="10" stroke-width="1"/>
    <path id="Path_1443" data-name="Path 1443" d="M1330.554,129.929a.7.7,0,0,1-.893.677l-1.3-.366.5-.358a.705.705,0,0,0,.292-.571V126.89a.7.7,0,0,1,.7-.7h0a.7.7,0,0,1,.7.7Z" transform="translate(-1148.563 130.235)" fill="#5b6670"/>
    <circle id="Ellipse_124" data-name="Ellipse 124" cx="0.852" cy="0.852" r="0.852" transform="translate(180.436 254.232)" fill="#5b6670"/>
  </g>
</svg>
