<svg xmlns="http://www.w3.org/2000/svg" xmlns:xlink="http://www.w3.org/1999/xlink" viewBox="0 0 24 24"><defs><style>.a,.d{opacity:0.3;}.b,.c,.f{fill:none;}.c,.f{stroke:#5b6670;stroke-miterlimit:10;}.e{clip-path:url(#a);}.f{stroke-linecap:round;stroke-dasharray:0 2;}.g{clip-path:url(#b);}</style><clipPath id="a"><rect class="a" width="3" height="9.9" transform="translate(-1.3)"/></clipPath><clipPath id="b"><rect width="15.9" height="7.5" transform="translate(3.5)"/></clipPath></defs><g transform="translate(-1138 -4330)"><g transform="translate(204 72)"><rect class="b" width="24" height="24" transform="translate(934 4258)"/></g><g transform="translate(1139.3 4333)"><path class="c" d="M19.3,11.3V9.8a.9.9,0,0,0-.9-.9H3.6a.9.9,0,0,0-.9.9v1.4a.634.634,0,0,0,.5.6,1.541,1.541,0,0,1,1.1,1.6A1.761,1.761,0,0,1,3.2,15a.634.634,0,0,0-.5.6V17a.9.9,0,0,0,.9.9H18.3a.9.9,0,0,0,.9-.9V15.6a.634.634,0,0,0-.5-.6,1.541,1.541,0,0,1-1.1-1.6,1.658,1.658,0,0,1,1.1-1.6C19.1,11.8,19.3,11.6,19.3,11.3Z"/><g class="d"><g class="e" transform="translate(8.4 8.5)"><line class="f" y2="9.9"/></g></g><g class="g"><path class="c" d="M12.9,2.9l-1-1a.912.912,0,0,0-1.2,0L.8,11.8A.912.912,0,0,0,.8,13l1,1a.616.616,0,0,0,.7.1,1.529,1.529,0,0,1,1.8.3,1.529,1.529,0,0,1,.3,1.8.616.616,0,0,0,.1.7l1,1a.913.913,0,0,0,1.2,0L16.8,8a.913.913,0,0,0,0-1.2l-1-1a.616.616,0,0,0-.7-.1,1.66,1.66,0,0,1-1.9-.2,1.529,1.529,0,0,1-.3-1.8A.6.6,0,0,0,12.9,2.9Z"/></g></g></g></svg>