<svg xmlns="http://www.w3.org/2000/svg" width="24" height="24" viewBox="0 0 24 24">
  <g id="Group_2455" data-name="Group 2455" transform="translate(-193.991 -242.617)">
    <path id="Path_1428" data-name="Path 1428" d="M1351.945,127.261a6.9,6.9,0,0,1,8.181-6.806,7.672,7.672,0,1,0-6.586,11.6c.111,0,.218-.012.327-.016A6.9,6.9,0,0,1,1351.945,127.261Z" transform="translate(-1148.563 130.235)" fill="#00b2e3" stroke="#00b2e3" stroke-linecap="round" stroke-linejoin="round" stroke-width="1"/>
    <rect id="Rectangle_2038" data-name="Rectangle 2038" width="24" height="24" transform="translate(193.991 242.617)" fill="none"/>
    <path id="Path_1444" data-name="Path 1444" d="M1352.722,125.552c-.225-.061-.89-.262-1.123-.342-1.051-.36-1.96-.876-1.849-1.936s-.42-2.3-1.076-2.336c-.445-.026-2.111-.177-2.809-.289" transform="translate(-1148.563 130.235)" fill="none" stroke="#fff" stroke-miterlimit="10" stroke-width="0.75"/>
    <path id="Path_1445" data-name="Path 1445" d="M1346.248,119.893c.907-.357,2.513-1.516,3.892-1.231a5.4,5.4,0,0,0,2.649-.432,5.977,5.977,0,0,1,3.345-.805,12.583,12.583,0,0,0,1.856-.356" transform="translate(-1148.563 130.235)" fill="none" stroke="#fff" stroke-miterlimit="10" stroke-width="0.75"/>
    <circle id="Ellipse_125" data-name="Ellipse 125" cx="4.796" cy="4.796" r="4.796" transform="translate(205.511 252.699)" fill="#00b2e3" stroke="#00b2e3" stroke-miterlimit="10" stroke-width="1"/>
    <path id="Path_1446" data-name="Path 1446" d="M1359.545,129.929a.7.7,0,0,1-.893.677l-1.3-.366.5-.358a.705.705,0,0,0,.292-.571V126.89a.7.7,0,0,1,.7-.7h0a.7.7,0,0,1,.7.7Z" transform="translate(-1148.563 130.235)" fill="#fff"/>
    <circle id="Ellipse_126" data-name="Ellipse 126" cx="0.852" cy="0.852" r="0.852" transform="translate(209.427 254.232)" fill="#fff"/>
  </g>
</svg>
