<svg xmlns="http://www.w3.org/2000/svg" xmlns:xlink="http://www.w3.org/1999/xlink" width="24" height="24" viewBox="0 0 24 24">
  <defs>
    <clipPath id="clip-path">
      <rect id="Rectangle_2037" data-name="Rectangle 2037" width="15.889" height="7.483" transform="translate(1345.627 190.92)" fill="none"/>
    </clipPath>
  </defs>
  <g id="Group_2461" data-name="Group 2461" transform="translate(-194 -319)">
    <rect id="Rectangle_2032" data-name="Rectangle 2032" width="24" height="24" transform="translate(194 319)" fill="none"/>
    <g id="Group_2451" data-name="Group 2451" transform="translate(-1146.563 130.235)">
      <path id="Path_1435" data-name="Path 1435" d="M1361.413,202.2v-1.448a.91.91,0,0,0-.91-.911h-14.73a.91.91,0,0,0-.91.911V202.2a.663.663,0,0,0,.491.623,1.638,1.638,0,0,1,0,3.125.664.664,0,0,0-.491.624v1.448a.909.909,0,0,0,.91.91h14.73a.909.909,0,0,0,.91-.91v-1.448a.664.664,0,0,0-.491-.624,1.638,1.638,0,0,1,0-3.125A.663.663,0,0,0,1361.413,202.2Z" fill="#00b2e3" stroke="#00b2e3" stroke-miterlimit="10" stroke-width="1"/>
      <g id="Group_2450" data-name="Group 2450">
        <path id="Path_1436" data-name="Path 1436" d="M1350.088,207.43a.5.5,0,0,1,.5-.5h0a.5.5,0,0,1,.5.5h0a.508.508,0,0,1-.5.5h0A.5.5,0,0,1,1350.088,207.43Zm0-2.01a.493.493,0,0,1,.5-.49h0a.5.5,0,0,1,.5.49h0a.5.5,0,0,1-.5.5h0A.5.5,0,0,1,1350.088,205.42Zm0-1.99a.5.5,0,0,1,.5-.5h0a.5.5,0,0,1,.5.5h0a.508.508,0,0,1-.5.5h0A.5.5,0,0,1,1350.088,203.43Zm0-2.01a.5.5,0,0,1,.5-.5h0a.508.508,0,0,1,.5.5h0a.51.51,0,0,1-.5.51h0A.5.5,0,0,1,1350.088,201.42Z" fill="#fff"/>
      </g>
    </g>
    <g id="Group_2453" data-name="Group 2453" transform="translate(-1146.563 130.235)">
      <g id="Group_2452" data-name="Group 2452" clip-path="url(#clip-path)">
        <path id="Path_1437" data-name="Path 1437" d="M1355.009,193.8l-.974-.974a.867.867,0,0,0-1.225,0l-9.907,9.907a.867.867,0,0,0,0,1.225l.974.974a.629.629,0,0,0,.749.089,1.558,1.558,0,0,1,2.1,2.1.634.634,0,0,0,.089.75l.975.974a.865.865,0,0,0,1.224,0l9.908-9.908a.865.865,0,0,0,0-1.224l-.975-.974a.631.631,0,0,0-.749-.09,1.558,1.558,0,0,1-2.1-2.1A.631.631,0,0,0,1355.009,193.8Z" fill="#00b2e3" stroke="#00b2e3" stroke-miterlimit="10" stroke-width="1"/>
      </g>
    </g>
  </g>
</svg>
