<svg xmlns="http://www.w3.org/2000/svg" width="21.485" height="20" viewBox="0 0 21.485 20">
  <g id="Symbol_9_1" data-name="Symbol 9 – 1" transform="translate(-1773 -1974)">
    <rect id="Rectangle_1151" data-name="Rectangle 1151" width="20" height="20" transform="translate(1774 1974)" fill="none"/>
    <g id="Group_2679" data-name="Group 2679" transform="translate(-11 62.172)">
      <path id="Path_1687" data-name="Path 1687" d="M18.38.5a2.036,2.036,0,0,0-.573.115L5.944,5.027H2.735a.636.636,0,0,0-.63.63V6a1.917,1.917,0,0,0,0,3.782v.344a.636.636,0,0,0,.63.63H4v3.209a1.652,1.652,0,0,0,1.662,1.6H7.434a.392.392,0,0,0,.4-.4.443.443,0,0,0-.4-.458h-1.2a.784.784,0,0,1-.86-.688V10.816h.573l11.863,4.413a1.7,1.7,0,0,0,.573.115,1.6,1.6,0,0,0,1.6-1.6V2.1A1.567,1.567,0,0,0,18.38.5Z" transform="translate(1784.5 1913.5)" fill="none" stroke="#5b6670" stroke-linecap="round" stroke-linejoin="round" stroke-miterlimit="10" stroke-width="2"/>
      <path id="Path_1688" data-name="Path 1688" d="M616.52,1893.317v2.947" transform="translate(1172.789 26.59)" fill="none" stroke="rgba(91,102,112,0.4)" stroke-linecap="round" stroke-width="2"/>
      <path id="Path_1689" data-name="Path 1689" d="M616.52,1893.318v13.893" transform="translate(1185.971 21.213)" fill="none" stroke="rgba(91,102,112,0.4)" stroke-linecap="round" stroke-width="2"/>
    </g>
  </g>
</svg>
