<svg xmlns="http://www.w3.org/2000/svg" viewBox="0 0 24 24">
  <defs>
    <style>
      .cls-1, .cls-3 {
        fill: none;
      }

      .cls-2 {
        fill: #00b2e3;
        stroke: #00b2e3;
      }

      .cls-2, .cls-3 {
        stroke-linejoin: round;
        stroke-miterlimit: 10;
      }

      .cls-3 {
        stroke: #fff;
        stroke-width: 0.75px;
      }
    </style>
  </defs>
  <g id="Group_3530" data-name="Group 3530" transform="translate(-1058 -4445)">
    <g id="Symbol_386_19" data-name="Symbol 386 – 19" transform="translate(124 187)">
      <rect id="Rectangle_3027" data-name="Rectangle 3027" class="cls-1" width="24" height="24" transform="translate(934 4258)"/>
    </g>
    <g id="Group_3496" data-name="Group 3496" transform="translate(1061.5 4450.42)">
      <path id="Path_2111" data-name="Path 2111" class="cls-2" d="M6.1,8.5H3.3A2.8,2.8,0,0,1,.5,5.7h0A2.712,2.712,0,0,1,3.3,3H6.1L15.7.6a.783.783,0,0,1,1,.7v8.8a.739.739,0,0,1-1,.7Z"/>
      <line id="Line_1648" data-name="Line 1648" class="cls-3" y1="6.5" transform="translate(5.6 2.5)"/>
      <path id="Path_2112" data-name="Path 2112" class="cls-2" d="M4.6,8.5l1,2.7a1.4,1.4,0,0,1-1.4,1.7h0A1.4,1.4,0,0,1,3,12L1.5,7.9"/>
    </g>
  </g>
</svg>
