<svg xmlns="http://www.w3.org/2000/svg" width="24" height="24" viewBox="0 0 24 24">
  <g id="Group_2457" data-name="Group 2457" transform="translate(-165 -281.067)">
    <rect id="Rectangle_2029" data-name="Rectangle 2029" width="24" height="24" transform="translate(165 281.067)" fill="none"/>
    <line id="Line_964" data-name="Line 964" y1="5.567" transform="translate(174.012 288.922)" opacity="0.3" stroke="#5b6670" stroke-linecap="round" stroke-linejoin="round" stroke-width="0.75" fill="none"/>
    <path id="Path_1433" data-name="Path 1433" d="M1323.054,164.255h-2.784a2.784,2.784,0,0,1-2.784-2.784h0a2.784,2.784,0,0,1,2.784-2.783h2.784l9.611-2.439a.773.773,0,0,1,.974.734v8.836a.773.773,0,0,1-.965.736Z" transform="translate(-1148.563 130.235)" fill="none" stroke="#5b6670" stroke-linejoin="round" stroke-width="1"/>
    <path id="Path_1438" data-name="Path 1438" d="M1321.544,164.218l.952,2.651a1.334,1.334,0,0,1-1.316,1.78h0a1.334,1.334,0,0,1-1.2-.886l-1.525-4.18" transform="translate(-1148.563 130.235)" fill="none" stroke="#5b6670" stroke-linejoin="round" stroke-width="1"/>
  </g>
</svg>
