<svg xmlns="http://www.w3.org/2000/svg" xmlns:xlink="http://www.w3.org/1999/xlink" width="24" height="24" viewBox="0 0 24 24">
  <defs>
    <clipPath id="clip-path">
      <rect id="Rectangle_2035" data-name="Rectangle 2035" width="3.039" height="9.95" transform="translate(1321.194 199.411)" fill="none"/>
    </clipPath>
    <clipPath id="clip-path-2">
      <rect id="Rectangle_2036" data-name="Rectangle 2036" width="15.889" height="7.483" transform="translate(1317.605 190.92)" fill="none"/>
    </clipPath>
  </defs>
  <g id="Group_2460" data-name="Group 2460" transform="translate(-165 -319)">
    <rect id="Rectangle_2031" data-name="Rectangle 2031" width="24" height="24" transform="translate(165 319)" fill="none"/>
    <g id="Group_2447" data-name="Group 2447" transform="translate(-1147.841 130.08)">
      <path id="Path_1432" data-name="Path 1432" d="M1333.391,202.2v-1.448a.91.91,0,0,0-.91-.911h-14.73a.911.911,0,0,0-.91.911V202.2a.663.663,0,0,0,.491.623,1.638,1.638,0,0,1,0,3.125.664.664,0,0,0-.491.624v1.448a.91.91,0,0,0,.91.91h14.73a.909.909,0,0,0,.91-.91v-1.448a.665.665,0,0,0-.49-.624,1.638,1.638,0,0,1,0-3.125A.664.664,0,0,0,1333.391,202.2Z" fill="none" stroke="#5b6670" stroke-miterlimit="10" stroke-width="1"/>
      <g id="Group_2446" data-name="Group 2446" opacity="0.3">
        <g id="Group_2445" data-name="Group 2445" clip-path="url(#clip-path)">
          <line id="Line_963" data-name="Line 963" y2="9.92" transform="translate(1322.563 199.426)" fill="none" stroke="#5b6670" stroke-linecap="round" stroke-miterlimit="10" stroke-width="1" stroke-dasharray="0 2"/>
        </g>
      </g>
    </g>
    <g id="Group_2449" data-name="Group 2449" transform="translate(-1147.841 130.08)">
      <g id="Group_2448" data-name="Group 2448" clip-path="url(#clip-path-2)">
        <path id="Path_1434" data-name="Path 1434" d="M1326.987,193.8l-.974-.974a.867.867,0,0,0-1.225,0l-9.907,9.907a.867.867,0,0,0,0,1.225l.974.974a.629.629,0,0,0,.749.089,1.558,1.558,0,0,1,2.1,2.1.634.634,0,0,0,.089.75l.975.974a.865.865,0,0,0,1.224,0l9.908-9.908a.865.865,0,0,0,0-1.224l-.974-.974a.633.633,0,0,0-.75-.09,1.558,1.558,0,0,1-2.1-2.1A.631.631,0,0,0,1326.987,193.8Z" fill="none" stroke="#5b6670" stroke-miterlimit="10" stroke-width="1"/>
      </g>
    </g>
  </g>
</svg>
