<svg xmlns="http://www.w3.org/2000/svg" viewBox="0 0 24 24">
  <defs>
    <style>
      .cls-1, .cls-2, .cls-3 {
        fill: none;
      }

      .cls-2, .cls-3 {
        stroke: #5b6670;
        stroke-linejoin: round;
        stroke-miterlimit: 10;
      }

      .cls-2 {
        stroke-linecap: round;
        stroke-width: 0.75px;
        opacity: 0.3;
      }
    </style>
  </defs>
  <g id="Group_3526" data-name="Group 3526" transform="translate(-1058 -4330)">
    <g id="Symbol_386_11" data-name="Symbol 386 – 11" transform="translate(124 72)">
      <rect id="Rectangle_3027" data-name="Rectangle 3027" class="cls-1" width="24" height="24" transform="translate(934 4258)"/>
    </g>
    <g id="Group_3495" data-name="Group 3495" transform="translate(1061.5 4335.42)">
      <line id="Line_1647" data-name="Line 1647" class="cls-2" y1="5.5" transform="translate(5.6 3)"/>
      <path id="Path_2109" data-name="Path 2109" class="cls-3" d="M6.1,8.5H3.3A2.8,2.8,0,0,1,.5,5.7h0A2.712,2.712,0,0,1,3.3,3H6.1L15.7.6a.783.783,0,0,1,1,.7v8.8a.739.739,0,0,1-1,.7Z"/>
      <path id="Path_2110" data-name="Path 2110" class="cls-3" d="M4.6,8.5l1,2.7a1.4,1.4,0,0,1-1.4,1.7h0A1.4,1.4,0,0,1,3,12L1.5,7.9"/>
    </g>
  </g>
</svg>
