<svg xmlns="http://www.w3.org/2000/svg" width="20.045" height="20" viewBox="0 0 20.045 20">
  <g id="Group_3302" data-name="Group 3302" transform="translate(-2064 -2198)">
    <rect id="Rectangle_1151" data-name="Rectangle 1151" width="20" height="20" transform="translate(2064 2198)" fill="none"/>
    <g id="Group_2677" data-name="Group 2677" transform="translate(2065 2200)">
      <path id="Path_1599" data-name="Path 1599" d="M18,15.276H2.545A1.518,1.518,0,0,1,1,13.73V4.045A1.518,1.518,0,0,1,2.545,2.5H18a1.518,1.518,0,0,1,1.545,1.545V13.73A1.518,1.518,0,0,1,18,15.276Z" transform="translate(-1 -2.5)" fill="none" stroke="#00b2e3" stroke-linecap="round" stroke-linejoin="round" stroke-miterlimit="10" stroke-width="1"/>
      <line id="Line_1229" data-name="Line 1229" x2="18.545" transform="translate(0 9.479)" fill="none" stroke="#00b2e3" stroke-linecap="round" stroke-linejoin="round" stroke-miterlimit="10" stroke-width="1"/>
      <line id="Line_1230" data-name="Line 1230" x2="10.767" transform="translate(3.864 17)" fill="none" stroke="#00b2e3" stroke-linecap="round" stroke-linejoin="round" stroke-miterlimit="10" stroke-width="1"/>
      <g id="Group_2386" data-name="Group 2386" transform="translate(6.388 12.776)">
        <line id="Line_1231" data-name="Line 1231" x2="0.721" y2="4.224" transform="translate(4.997)" fill="none" stroke="#00b2e3" stroke-linecap="round" stroke-linejoin="round" stroke-miterlimit="10" stroke-width="1"/>
        <line id="Line_1232" data-name="Line 1232" x1="0.773" y2="4.224" stroke-width="1" stroke="#00b2e3" stroke-linecap="round" stroke-linejoin="round" stroke-miterlimit="10" fill="none"/>
      </g>
      <ellipse id="Ellipse_155" data-name="Ellipse 155" cx="0.721" cy="0.721" rx="0.721" ry="0.721" transform="translate(8.552 10.406)" fill="#00b2e3"/>
      <path id="Path_1600" data-name="Path 1600" d="M17.5,9.7l.979,3.245.67-.979a.1.1,0,0,1,.155,0l1.082.927.618-.67L19.921,11.3a.1.1,0,0,1,0-.155l1.03-.773Z" transform="translate(-9 -5.991)" fill="none" stroke="#00b2e3" stroke-linecap="round" stroke-linejoin="round" stroke-miterlimit="10" stroke-width="0.5"/>
      <line id="Line_1233" data-name="Line 1233" y1="0.876" x2="0.876" transform="translate(9.685 2.318)" fill="none" stroke="#00b2e3" stroke-linecap="round" stroke-linejoin="round" stroke-miterlimit="10" stroke-width="0.5"/>
      <line id="Line_1234" data-name="Line 1234" y1="1.236" transform="translate(8.861 1.597)" fill="none" stroke="#00b2e3" stroke-linecap="round" stroke-linejoin="round" stroke-miterlimit="10" stroke-width="0.5"/>
      <line id="Line_1235" data-name="Line 1235" x1="0.876" y1="0.876" transform="translate(7.109 2.318)" fill="none" stroke="#00b2e3" stroke-linecap="round" stroke-linejoin="round" stroke-miterlimit="10" stroke-width="0.5"/>
      <line id="Line_1236" data-name="Line 1236" x1="1.288" transform="translate(6.388 4.018)" fill="none" stroke="#00b2e3" stroke-linecap="round" stroke-linejoin="round" stroke-miterlimit="10" stroke-width="0.5"/>
      <line id="Line_1237" data-name="Line 1237" x1="0.876" y2="0.876" transform="translate(7.109 4.894)" fill="none" stroke="#00b2e3" stroke-linecap="round" stroke-linejoin="round" stroke-miterlimit="10" stroke-width="0.5"/>
    </g>
  </g>
</svg>
