<svg xmlns="http://www.w3.org/2000/svg" xmlns:xlink="http://www.w3.org/1999/xlink" viewBox="0 0 24 24">
  <defs>
    <style>
      .cls-1 {
        fill: none;
      }

      .cls-2 {
        fill: #00b2e3;
        stroke: #00b2e3;
        stroke-miterlimit: 10;
      }

      .cls-3 {
        fill: #fff;
      }

      .cls-4 {
        clip-path: url(#clip-path);
      }
    </style>
    <clipPath id="clip-path">
      <rect id="Rectangle_3030" data-name="Rectangle 3030" width="15.9" height="7.5" transform="translate(3.5)"/>
    </clipPath>
  </defs>
  <g id="Group_3531" data-name="Group 3531" transform="translate(-1138 -4445)">
    <g id="Symbol_386_20" data-name="Symbol 386 – 20" transform="translate(204 187)">
      <rect id="Rectangle_3027" data-name="Rectangle 3027" class="cls-1" width="24" height="24" transform="translate(934 4258)"/>
    </g>
    <g id="Group_3507" data-name="Group 3507" transform="translate(1139.3 4448)">
      <g id="Group_3504" data-name="Group 3504">
        <path id="Path_2115" data-name="Path 2115" class="cls-2" d="M19.3,11.3V9.8a.9.9,0,0,0-.9-.9H3.6a.9.9,0,0,0-.9.9v1.4a.634.634,0,0,0,.5.6,1.541,1.541,0,0,1,1.1,1.6A1.761,1.761,0,0,1,3.2,15a.634.634,0,0,0-.5.6V17a.9.9,0,0,0,.9.9H18.3a.9.9,0,0,0,.9-.9V15.6a.634.634,0,0,0-.5-.6,1.541,1.541,0,0,1-1.1-1.6,1.658,1.658,0,0,1,1.1-1.6C19.1,11.8,19.3,11.6,19.3,11.3Z"/>
        <g id="Group_3503" data-name="Group 3503">
          <path id="Path_2116" data-name="Path 2116" class="cls-3" d="M7.9,16.5a.472.472,0,0,1,.5-.5h0a.472.472,0,0,1,.5.5h0a.472.472,0,0,1-.5.5h0A.536.536,0,0,1,7.9,16.5Zm0-2a.472.472,0,0,1,.5-.5h0a.472.472,0,0,1,.5.5h0a.472.472,0,0,1-.5.5h0A.536.536,0,0,1,7.9,14.5Zm0-2a.472.472,0,0,1,.5-.5h0a.472.472,0,0,1,.5.5h0a.472.472,0,0,1-.5.5h0A.536.536,0,0,1,7.9,12.5Zm0-2a.472.472,0,0,1,.5-.5h0a.472.472,0,0,1,.5.5h0a.472.472,0,0,1-.5.5h0A.536.536,0,0,1,7.9,10.5Z"/>
        </g>
      </g>
      <g id="Group_3506" data-name="Group 3506">
        <g id="Group_3505" data-name="Group 3505" class="cls-4">
          <path id="Path_2117" data-name="Path 2117" class="cls-2" d="M12.9,2.9l-1-1a.912.912,0,0,0-1.2,0L.8,11.8A.912.912,0,0,0,.8,13l1,1a.616.616,0,0,0,.7.1,1.529,1.529,0,0,1,1.8.3,1.529,1.529,0,0,1,.3,1.8.616.616,0,0,0,.1.7l1,1a.913.913,0,0,0,1.2,0L16.8,8a.913.913,0,0,0,0-1.2l-1-1a.616.616,0,0,0-.7-.1,1.66,1.66,0,0,1-1.9-.2,1.529,1.529,0,0,1-.3-1.8A.6.6,0,0,0,12.9,2.9Z"/>
        </g>
      </g>
    </g>
  </g>
</svg>
