<svg xmlns="http://www.w3.org/2000/svg" width="60" height="60" viewBox="0 0 60 60">
  <g id="ico-thai" transform="translate(-2411 -1238)">
    <rect id="Rectangle_2672" data-name="Rectangle 2672" width="60" height="60" transform="translate(2411 1238)" fill="none"/>
    <g id="Symbol_322_1" data-name="Symbol 322 – 1" transform="translate(-379 -140.602)">
      <rect id="Rectangle_2665" data-name="Rectangle 2665" width="40" height="40" transform="translate(2795 1387)" fill="#fff"/>
      <g id="Group_3293" data-name="Group 3293" transform="translate(-257 55)">
        <g id="Group_3295" data-name="Group 3295" transform="translate(3052 1332)">
          <g id="Group_3293-2" data-name="Group 3293" transform="translate(6.517 7.927)">
            <rect id="Rectangle_2666" data-name="Rectangle 2666" width="6.352" height="7.174" transform="translate(0 17.304)" stroke-width="2" stroke="#00b2e3" stroke-linecap="round" stroke-linejoin="round" stroke-miterlimit="10" fill="#fff"/>
            <rect id="Rectangle_2667" data-name="Rectangle 2667" width="6.352" height="11.116" transform="translate(3.176 13.416)" stroke-width="2" stroke="#00b2e3" stroke-linecap="round" stroke-linejoin="round" stroke-miterlimit="10" fill="#fff"/>
            <rect id="Rectangle_2668" data-name="Rectangle 2668" width="11.281" height="12.54" transform="translate(6.352 11.938)" stroke-width="2" stroke="#00b2e3" stroke-linecap="round" stroke-linejoin="round" stroke-miterlimit="10" fill="#fff"/>
            <path id="Path_1976" data-name="Path 1976" d="M27.3,30.831V28.2c0-2.848,1.807-5.2,4.107-5.2h0c2.245,0,4.107,2.355,4.107,5.2v2.629" transform="translate(-19.414 -18.893)" fill="rgba(0,0,0,0)" stroke="#00b2e3" stroke-linecap="round" stroke-linejoin="round" stroke-miterlimit="10" stroke-width="2"/>
            <path id="Path_1977" data-name="Path 1977" d="M32.5,19.662,33.76,15.5l1.26,4.162" transform="translate(-21.767 -15.5)" fill="rgba(0,0,0,0)" stroke="#00b2e3" stroke-linecap="round" stroke-linejoin="round" stroke-miterlimit="10" stroke-width="2"/>
          </g>
          <path id="Path_1978" data-name="Path 1978" d="M47.29,28.252C43.786,23.324,41.924,5.8,41.924,5.8S41.1,22.557,36.612,28.2a3.374,3.374,0,0,0-.712,2.026v5.312H47.893V30.114A3.561,3.561,0,0,0,47.29,28.252Z" transform="translate(-16.788 -3.185)" fill="#fff" stroke="#00b2e3" stroke-linecap="round" stroke-linejoin="round" stroke-miterlimit="10" stroke-width="2"/>
          <g id="Group_3294" data-name="Group 3294" transform="translate(18.564 0)">
            <path id="Path_1979" data-name="Path 1979" d="M61.13,64.964H36.543A1.614,1.614,0,0,1,34.9,63.321V61.843A1.614,1.614,0,0,1,36.543,60.2H61.13a1.613,1.613,0,0,1,1.643,1.643v1.479A1.614,1.614,0,0,1,61.13,64.964Z" transform="translate(-34.9 -27.795)" fill="#fff" stroke="#00b2e3" stroke-linecap="round" stroke-linejoin="round" stroke-miterlimit="10" stroke-width="2"/>
            <path id="Path_1980" data-name="Path 1980" d="M60.521,56.264H42.943A1.614,1.614,0,0,1,41.3,54.621V53.143A1.613,1.613,0,0,1,42.943,51.5H60.521a1.614,1.614,0,0,1,1.643,1.643v1.479A1.614,1.614,0,0,1,60.521,56.264Z" transform="translate(-37.795 -23.859)" fill="#fff" stroke="#00b2e3" stroke-linecap="round" stroke-linejoin="round" stroke-miterlimit="10" stroke-width="2"/>
            <path id="Path_1981" data-name="Path 1981" d="M55.776,24.7s3.888-.055,3.888,6.133c0,7.393,2.3,8.543,2.3,8.543H43.4s2.3-1.15,2.3-8.543c0-6.243,3.888-6.133,3.888-6.133Z" transform="translate(-38.745 -11.735)" fill="#fff" stroke="#00b2e3" stroke-linecap="round" stroke-linejoin="round" stroke-miterlimit="10" stroke-width="2"/>
            <rect id="Rectangle_2669" data-name="Rectangle 2669" width="5.969" height="2.629" transform="translate(10.952 10.336)" stroke-width="2" stroke="#00b2e3" stroke-linecap="round" stroke-linejoin="round" stroke-miterlimit="10" fill="#fff"/>
            <path id="Path_1982" data-name="Path 1982" d="M60.869,11.361H54.9L57.638,1.23a.285.285,0,0,1,.548,0Z" transform="translate(-43.948 -1.025)" fill="#fff" stroke="#00b2e3" stroke-linecap="round" stroke-linejoin="round" stroke-miterlimit="10" stroke-width="2"/>
          </g>
          <rect id="Rectangle_2670" data-name="Rectangle 2670" width="42.878" height="6.188" transform="translate(3.231 36.238)" stroke-width="2" stroke="#00b2e3" stroke-linecap="round" stroke-linejoin="round" stroke-miterlimit="10" fill="#fff"/>
          <path id="Path_1983" data-name="Path 1983" d="M50.394,64.033H1L4.231,60.2H47.109Z" transform="translate(-1 -27.795)" fill="#fff" stroke="#00b2e3" stroke-linecap="round" stroke-linejoin="round" stroke-miterlimit="10" stroke-width="2"/>
        </g>
        <path id="Path_1984" data-name="Path 1984" d="M15632.161,1691.809h44.176" transform="translate(-12577.882 -325.962)" fill="none" stroke="rgba(0,178,227,0.4)" stroke-width="1"/>
      </g>
    </g>
  </g>
</svg>
