<svg xmlns="http://www.w3.org/2000/svg" width="65" height="65" viewBox="0 0 65 65">
  <g id="Group_2483" data-name="Group 2483" transform="translate(-5702 -820.49)">
    <path id="Path_1450" data-name="Path 1450" d="M1117.811,890.946h-65v-65h65Zm-64-1h63v-63h-63Z" transform="translate(4649.189 -5.456)" fill="none"/>
    <g id="Group_2475" data-name="Group 2475" transform="translate(4649.189 -5.456)">
      <g id="Group_2472" data-name="Group 2472" opacity="0.3">
        <path id="Path_1473" data-name="Path 1473" d="M1094.087,882.833h-15.324a1,1,0,0,1-1-1V860.552l-3.954-4.069a5.646,5.646,0,0,1-1.535-3.063l-2.082-12.091a1.5,1.5,0,0,1,1.481-1.751h2.149a1.509,1.509,0,0,1,1.441,1.08l3.211,9.886a.3.3,0,0,0,.368.225l4.537-1.272a1.029,1.029,0,0,1,.27-.037h4.032a1,1,0,0,1,.38.075l6.406,2.633a1,1,0,0,1,.62.925v28.74A1,1,0,0,1,1094.087,882.833Zm-14.324-2h13.324v-27.07l-5.6-2.3h-3.7l-4.4,1.234a2.3,2.3,0,0,1-2.82-1.558l-3.1-9.558h-1.194l1.982,11.515a3.664,3.664,0,0,0,1,2l4.237,4.359a1,1,0,0,1,.283.7Zm-6.411-39.586.007.024Z" fill="#00b2e3"/>
        <g id="Group_2469" data-name="Group 2469">
          <path id="Rectangle_2049" data-name="Rectangle 2049" d="M0,0H6.631a0,0,0,0,1,0,0V4.395A3.315,3.315,0,0,1,3.315,7.71h0A3.315,3.315,0,0,1,0,4.395V0A0,0,0,0,1,0,0Z" transform="translate(1082.121 843.867)" fill="#fff"/>
          <path id="Path_1474" data-name="Path 1474" d="M1085.437,852.578a4.32,4.32,0,0,1-4.315-4.315v-4.4a1,1,0,0,1,1-1h6.63a1,1,0,0,1,1,1v4.4A4.32,4.32,0,0,1,1085.437,852.578Zm-2.315-7.711v3.4a2.315,2.315,0,1,0,4.63,0v-3.4Z" fill="#00b2e3"/>
        </g>
        <path id="Path_1475" data-name="Path 1475" d="M1090.864,844.867H1080.32a1,1,0,0,1,0-2h10.544a1,1,0,0,1,0,2Z" fill="#00b2e3"/>
        <path id="Path_1476" data-name="Path 1476" d="M1085.308,844.867a1,1,0,0,1-1-1v-4.289a1,1,0,0,1,2,0v4.289A1,1,0,0,1,1085.308,844.867Z" fill="#00b2e3"/>
        <path id="Path_1477" data-name="Path 1477" d="M1085.308,844.867a1,1,0,0,1-.675-.262l-2.981-2.724A1,1,0,0,1,1083,840.4l2.982,2.725a1,1,0,0,1-.675,1.738Z" fill="#00b2e3"/>
        <path id="Path_1478" data-name="Path 1478" d="M1085.309,844.867a1,1,0,0,1-.675-1.738l2.982-2.725a1,1,0,0,1,1.348,1.477l-2.982,2.724A1,1,0,0,1,1085.309,844.867Z" fill="#00b2e3"/>
        <path id="Path_1479" data-name="Path 1479" d="M1072.439,839.41c-2.026,0-3.674-2.018-3.674-4.5,0-2.26,2.639-5.179,2.94-5.5a1.03,1.03,0,0,1,1.468,0c.3.325,2.941,3.244,2.941,5.5C1076.114,837.392,1074.465,839.41,1072.439,839.41Zm0-7.775a7.108,7.108,0,0,0-1.674,3.275c0,1.356.766,2.5,1.674,2.5s1.675-1.144,1.675-2.5A7.111,7.111,0,0,0,1072.439,831.635Z" fill="#00b2e3"/>
        <path id="Path_1480" data-name="Path 1480" d="M1096.518,887.808h-20.359a2.118,2.118,0,0,1-2.115-2.115v-2.746a2.117,2.117,0,0,1,2.115-2.114h20.359a2.116,2.116,0,0,1,2.114,2.114v2.746A2.117,2.117,0,0,1,1096.518,887.808Zm-20.359-4.975a.115.115,0,0,0-.115.114v2.746a.115.115,0,0,0,.115.115h20.359a.114.114,0,0,0,.114-.115v-2.746a.114.114,0,0,0-.114-.114Z" fill="#00b2e3"/>
        <g id="Group_2470" data-name="Group 2470">
          <path id="Path_1481" data-name="Path 1481" d="M1094.087,867.545l-16.108,10.219a1.249,1.249,0,0,1-1.919-1.055V865.217a1.252,1.252,0,0,1,.58-1.056l17.447-11.068Z" fill="#fff"/>
          <path id="Path_1482" data-name="Path 1482" d="M1077.31,878.959a2.25,2.25,0,0,1-2.25-2.25V865.217a2.238,2.238,0,0,1,1.044-1.9l17.447-11.069a1,1,0,0,1,1.536.845v14.452a1,1,0,0,1-.464.845l-16.108,10.219A2.248,2.248,0,0,1,1077.31,878.959Zm15.777-24.048-15.911,10.095a.248.248,0,0,0-.116.211v11.492a.237.237,0,0,0,.129.219.241.241,0,0,0,.255-.008l15.643-9.925Z" fill="#00b2e3"/>
        </g>
        <g id="Group_2471" data-name="Group 2471">
          <rect id="Rectangle_2050" data-name="Rectangle 2050" width="8.543" height="5.937" rx="1.346" transform="matrix(0.848, -0.531, 0.531, 0.848, 1087.72, 860.956)" fill="#fff"/>
          <path id="Path_1483" data-name="Path 1483" d="M1091.3,866.478a2.347,2.347,0,0,1-1.993-1.1l-1.721-2.751a2.344,2.344,0,0,1,.744-3.233l4.958-3.1a2.351,2.351,0,0,1,3.234.743l1.721,2.751a2.346,2.346,0,0,1-.744,3.234l-4.958,3.1A2.338,2.338,0,0,1,1091.3,866.478Zm3.233-8.545a.337.337,0,0,0-.183.052l-4.959,3.1a.345.345,0,0,0-.11.476l1.721,2.751a.346.346,0,0,0,.477.11l4.959-3.1h0a.345.345,0,0,0,.11-.476l-1.721-2.751A.345.345,0,0,0,1094.534,857.933Z" fill="#00b2e3"/>
        </g>
      </g>
      <g id="Group_2473" data-name="Group 2473">
        <path id="Path_1484" data-name="Path 1484" d="M1072.439,839.41c-2.026,0-3.674-2.018-3.674-4.5,0-2.26,2.639-5.179,2.94-5.5a1.03,1.03,0,0,1,1.468,0c.3.325,2.941,3.244,2.941,5.5C1076.114,837.392,1074.465,839.41,1072.439,839.41Zm0-7.775a7.108,7.108,0,0,0-1.674,3.275c0,1.356.766,2.5,1.674,2.5s1.675-1.144,1.675-2.5A7.111,7.111,0,0,0,1072.439,831.635Z" fill="#00b2e3"/>
        <path id="Path_1485" data-name="Path 1485" d="M1096.518,887.808h-20.359a2.118,2.118,0,0,1-2.115-2.115v-2.746a2.117,2.117,0,0,1,2.115-2.114h1.6v-1.92a2.25,2.25,0,0,1-2.7-2.2V865.217a2.238,2.238,0,0,1,1.044-1.9l1.659-1.052v-1.713l-3.954-4.069a5.646,5.646,0,0,1-1.535-3.063l-2.082-12.091a1.5,1.5,0,0,1,1.481-1.751h2.149a1.509,1.509,0,0,1,1.441,1.08l3.211,9.886a.3.3,0,0,0,.368.225l2.654-.745a4.278,4.278,0,0,1-.374-1.761v-4.4a1,1,0,0,1,1-1h6.63a1,1,0,0,1,1,1v4.4a4.259,4.259,0,0,1-.4,1.8l5.113,2.1a1,1,0,0,1,.62.925v2.919a2.292,2.292,0,0,1,1.436,1.021l1.721,2.751a2.346,2.346,0,0,1-.744,3.234l-2.413,1.51v16.3h1.431a2.116,2.116,0,0,1,2.114,2.114v2.746A2.117,2.117,0,0,1,1096.518,887.808Zm-20.359-4.975a.115.115,0,0,0-.115.114v2.746a.115.115,0,0,0,.115.115h20.359a.114.114,0,0,0,.114-.115v-2.746a.114.114,0,0,0-.114-.114h-2.431a1,1,0,0,1-1-1V863.975a1,1,0,0,1,.469-.848l2.883-1.8a.345.345,0,0,0,.11-.476l-1.721-2.751a.329.329,0,0,0-.4-.116,1,1,0,0,1-1.338-.942v-3.274l-5.621-2.311a1,1,0,0,1-.348-1.61,2.3,2.3,0,0,0,.634-1.579v-3.4h-4.63v3.4a2.3,2.3,0,0,0,.683,1.641,1,1,0,0,1-.434,1.672l-3.988,1.118a2.3,2.3,0,0,1-2.82-1.558l-3.1-9.558h-1.194l1.982,11.515a3.664,3.664,0,0,0,1,2l4.237,4.359a1,1,0,0,1,.283.7v2.668a1,1,0,0,1-.465.845l-2.122,1.347a.248.248,0,0,0-.116.211v11.492a.237.237,0,0,0,.129.219.241.241,0,0,0,.255-.008l.783-.5a1,1,0,0,1,1.536.845v4.565a1,1,0,0,1-1,1Zm-2.807-41.586.007.023Z" fill="#00b2e3"/>
      </g>
      <g id="Group_2474" data-name="Group 2474">
        <rect id="Rectangle_2051" data-name="Rectangle 2051" width="8.543" height="5.937" rx="1.346" transform="matrix(0.848, -0.531, 0.531, 0.848, 1087.72, 860.956)" fill="#fff"/>
        <path id="Path_1486" data-name="Path 1486" d="M1091.3,866.478a2.347,2.347,0,0,1-1.993-1.1l-1.721-2.751a2.344,2.344,0,0,1,.744-3.233l4.958-3.1a2.351,2.351,0,0,1,3.234.743l1.721,2.751a2.346,2.346,0,0,1-.744,3.234l-4.958,3.1A2.338,2.338,0,0,1,1091.3,866.478Zm3.233-8.545a.337.337,0,0,0-.183.052l-4.959,3.1a.345.345,0,0,0-.11.476l1.721,2.751a.346.346,0,0,0,.477.11l4.959-3.1h0a.345.345,0,0,0,.11-.476l-1.721-2.751A.345.345,0,0,0,1094.534,857.933Z" fill="#00b2e3"/>
      </g>
    </g>
  </g>
</svg>
