<svg xmlns="http://www.w3.org/2000/svg" width="60" height="60" viewBox="0 0 60 60">
  <g id="ico-paris" transform="translate(-3013 -1236)">
    <rect id="Rectangle_2673" data-name="Rectangle 2673" width="60" height="60" transform="translate(3013 1236)" fill="none"/>
    <g id="Symbol_324_1" data-name="Symbol 324 – 1" transform="translate(126.5 -164.664)">
      <rect id="Rectangle_2671" data-name="Rectangle 2671" width="40" height="40" transform="translate(2896 1412)" fill="#fff"/>
      <g id="Group_3297" data-name="Group 3297" transform="translate(2712 1400.399)">
        <g id="Group_3286" data-name="Group 3286" transform="translate(190.802 6.6)">
          <path id="Path_1949" data-name="Path 1949" d="M201.5,33.744A99.821,99.821,0,0,0,204.055,12.6" transform="translate(-192.075 -7.314)" fill="#fff" stroke="#00b2e3" stroke-linecap="round" stroke-linejoin="round" stroke-miterlimit="10" stroke-width="2"/>
          <path id="Path_1950" data-name="Path 1950" d="M211.175,38.75H199.1a.7.7,0,0,1-.7-.7V37.6a.7.7,0,0,1,.7-.7h12.07a.7.7,0,0,1,.7.7v.441A.7.7,0,0,1,211.175,38.75Z" transform="translate(-191.706 -10.205)" fill="#fff" stroke="#00b2e3" stroke-linecap="round" stroke-linejoin="round" stroke-miterlimit="10" stroke-width="2"/>
          <path id="Path_1951" data-name="Path 1951" d="M214.07,49.15H195.3a.7.7,0,0,1-.7-.7V48a.7.7,0,0,1,.7-.7H214.07a.7.7,0,0,1,.7.7v.441A.7.7,0,0,1,214.07,49.15Z" transform="translate(-191.254 -11.443)" fill="#fff" stroke="#00b2e3" stroke-linecap="round" stroke-linejoin="round" stroke-miterlimit="10" stroke-width="2"/>
          <path id="Path_1952" data-name="Path 1952" d="M209.931,46.324A51.871,51.871,0,0,1,207.2,39.1" transform="translate(-192.753 -10.467)" fill="#fff" stroke="#00b2e3" stroke-linecap="round" stroke-linejoin="round" stroke-miterlimit="10" stroke-width="2"/>
          <path id="Path_1953" data-name="Path 1953" d="M201.9,46.324a51.869,51.869,0,0,0,2.731-7.224" transform="translate(-192.122 -10.467)" fill="#fff" stroke="#00b2e3" stroke-linecap="round" stroke-linejoin="round" stroke-miterlimit="10" stroke-width="2"/>
          <path id="Path_1954" data-name="Path 1954" d="M207.529,12.191H204a.7.7,0,0,1-.7-.7V10.6a.7.7,0,0,1,.7-.7h3.524a.7.7,0,0,1,.7.7v.881C208.146,11.838,207.881,12.191,207.529,12.191Z" transform="translate(-192.289 -6.993)" fill="#fff" stroke="#00b2e3" stroke-linecap="round" stroke-linejoin="round" stroke-miterlimit="10" stroke-width="2"/>
          <line id="Line_1524" data-name="Line 1524" y1="2.995" transform="translate(13.478)" fill="#fff" stroke="#00b2e3" stroke-linecap="round" stroke-linejoin="round" stroke-miterlimit="10" stroke-width="2"/>
          <path id="Path_1955" data-name="Path 1955" d="M210.355,33.744A99.821,99.821,0,0,1,207.8,12.6" transform="translate(-192.824 -7.314)" fill="#fff" stroke="#00b2e3" stroke-linecap="round" stroke-linejoin="round" stroke-miterlimit="10" stroke-width="2"/>
          <path id="Path_1956" data-name="Path 1956" d="M214.031,46.324A51.869,51.869,0,0,1,211.3,39.1" transform="translate(-193.241 -10.467)" fill="none" stroke="#00b2e3" stroke-linecap="round" stroke-linejoin="round" stroke-miterlimit="10" stroke-width="2"/>
          <path id="Path_1957" data-name="Path 1957" d="M197.7,46.324a51.871,51.871,0,0,0,2.731-7.224" transform="translate(-191.623 -10.467)" fill="none" stroke="#00b2e3" stroke-linecap="round" stroke-linejoin="round" stroke-miterlimit="10" stroke-width="2"/>
          <path id="Path_1958" data-name="Path 1958" d="M196,49.5c-2.026,3.876-3.965,6.872-5.022,8.546a.891.891,0,0,0,.793,1.41h3.172a.937.937,0,0,0,.881-.793,8.6,8.6,0,0,1,16.915,0,.937.937,0,0,0,.881.793h3.172a.942.942,0,0,0,.793-1.41,82.175,82.175,0,0,1-5.022-8.546" transform="translate(-190.802 -11.705)" fill="#fff" stroke="#00b2e3" stroke-linecap="round" stroke-linejoin="round" stroke-miterlimit="10" stroke-width="2"/>
        </g>
      </g>
    </g>
  </g>
</svg>
