<svg xmlns="http://www.w3.org/2000/svg" width="65" height="65" viewBox="0 0 65 65">
  <g id="Group_2481" data-name="Group 2481" transform="translate(-5702 -672.163)">
    <path id="Path_1448" data-name="Path 1448" d="M1117.811,742.619h-65v-65h65Zm-64-1h63v-63h-63Z" transform="translate(4649.189 -5.456)" fill="none"/>
    <g id="Group_2477" data-name="Group 2477" transform="translate(4649.189 -5.456)">
      <g id="Group_2476" data-name="Group 2476" opacity="0.3">
        <path id="Path_1487" data-name="Path 1487" d="M1099.31,701.241h-28.473c-3.92,0-6.495-.954-8.1-3a1,1,0,0,1,.759-1.617c.232-.007,5.743-.244,5.743-5.017a1,1,0,0,1,1-1h29.679a1,1,0,0,1,1,1c0,4.773,5.511,5.01,5.746,5.017a1,1,0,0,1,.756,1.617C1105.805,700.287,1103.23,701.241,1099.31,701.241Zm-33.51-2.973a10.394,10.394,0,0,0,5.037.973h28.473a10.394,10.394,0,0,0,5.037-.973c-2.334-.648-4.942-2.28-5.372-5.665h-27.8C1070.742,695.988,1068.134,697.62,1065.8,698.268Z" fill="#00b2e3"/>
        <path id="Path_1488" data-name="Path 1488" d="M1101.842,713.513h-33.537c-4.526,0-7.5-.935-9.355-2.943a1,1,0,0,1,.709-1.678c.283-.007,6.935-.242,6.935-5.018a1,1,0,0,1,1-1h34.959a1,1,0,0,1,1,1c0,4.8,6.864,5.017,6.933,5.018a1,1,0,0,1,.71,1.678C1109.34,712.578,1106.367,713.513,1101.842,713.513Zm-39.531-2.972a14.767,14.767,0,0,0,5.994.972h33.537a14.768,14.768,0,0,0,5.994-.972c-2.7-.646-5.715-2.277-6.212-5.667h-33.1C1068.025,708.264,1065.009,709.9,1062.311,710.541Z" fill="#00b2e3"/>
        <path id="Path_1489" data-name="Path 1489" d="M1103.51,724.937h-36.873a1,1,0,0,1-1-1V712.513a1,1,0,0,1,1-1h36.873a1,1,0,0,1,1,1v11.424A1,1,0,0,1,1103.51,724.937Zm-35.873-2h34.873v-9.424h-34.873Z" fill="#00b2e3"/>
        <rect id="Rectangle_2052" data-name="Rectangle 2052" width="36.873" height="2" transform="translate(1066.637 715.881)" fill="#00b2e3"/>
        <rect id="Rectangle_2053" data-name="Rectangle 2053" width="2" height="7.056" transform="translate(1071.617 716.881)" fill="#00b2e3"/>
        <rect id="Rectangle_2054" data-name="Rectangle 2054" width="2" height="7.056" transform="translate(1079.921 716.881)" fill="#00b2e3"/>
        <rect id="Rectangle_2055" data-name="Rectangle 2055" width="2" height="7.056" transform="translate(1088.226 716.881)" fill="#00b2e3"/>
        <rect id="Rectangle_2056" data-name="Rectangle 2056" width="2" height="7.056" transform="translate(1096.53 716.881)" fill="#00b2e3"/>
        <rect id="Rectangle_2057" data-name="Rectangle 2057" width="2" height="3.913" transform="translate(1066.594 699.961)" fill="#00b2e3"/>
        <rect id="Rectangle_2058" data-name="Rectangle 2058" width="2" height="3.913" transform="translate(1101.553 699.961)" fill="#00b2e3"/>
        <path id="Path_1490" data-name="Path 1490" d="M1108.819,731h-47.492a2.579,2.579,0,0,1-2.577-2.576v-2.915a2.579,2.579,0,0,1,2.577-2.576h47.492a2.579,2.579,0,0,1,2.577,2.576v2.915A2.579,2.579,0,0,1,1108.819,731Zm-47.492-6.067a.577.577,0,0,0-.577.576v2.915a.578.578,0,0,0,.577.576h47.492a.578.578,0,0,0,.577-.576v-2.915a.577.577,0,0,0-.577-.576Z" fill="#00b2e3"/>
        <path id="Path_1491" data-name="Path 1491" d="M1070.234,692.6a1,1,0,0,1-1-1v-1.369a1,1,0,0,1,2,0V691.6A1,1,0,0,1,1070.234,692.6Z" fill="#00b2e3"/>
        <path id="Path_1492" data-name="Path 1492" d="M1099.913,692.6a1,1,0,0,1-1-1v-1.369a1,1,0,0,1,2,0V691.6A1,1,0,0,1,1099.913,692.6Z" fill="#00b2e3"/>
      </g>
      <path id="Path_1493" data-name="Path 1493" d="M1070.234,692.6a1,1,0,0,1-1-1v-1.369a1,1,0,0,1,2,0V691.6A1,1,0,0,1,1070.234,692.6Z" fill="#00b2e3"/>
      <path id="Path_1494" data-name="Path 1494" d="M1099.913,692.6a1,1,0,0,1-1-1v-1.369a1,1,0,0,1,2,0V691.6A1,1,0,0,1,1099.913,692.6Z" fill="#00b2e3"/>
      <path id="Path_1495" data-name="Path 1495" d="M1108.819,731h-47.492a2.579,2.579,0,0,1-2.577-2.576v-2.915a2.579,2.579,0,0,1,2.577-2.576h4.31v-9.55c-3.069-.313-5.208-1.218-6.687-2.817a1,1,0,0,1,.709-1.678c.283-.007,6.935-.242,6.935-5.018v-3.156a7.28,7.28,0,0,1-3.862-2.481,1,1,0,0,1,.759-1.617c.232-.007,5.743-.244,5.743-5.017a1,1,0,0,1,1-1h29.679a1,1,0,0,1,1,1c0,4.773,5.51,5.01,5.745,5.017a1,1,0,0,1,.756,1.617,7.261,7.261,0,0,1-3.853,2.478v3.159a1.049,1.049,0,0,1-.007.114c.108,4.686,6.863,4.9,6.932,4.9a1,1,0,0,1,.71,1.678c-1.478,1.6-3.617,2.5-6.686,2.817v9.55h4.309a2.579,2.579,0,0,1,2.577,2.576v2.915A2.579,2.579,0,0,1,1108.819,731Zm-47.492-6.067a.577.577,0,0,0-.577.576v2.915a.578.578,0,0,0,.577.576h47.492a.578.578,0,0,0,.577-.576v-2.915a.577.577,0,0,0-.577-.576h-5.309a1,1,0,0,1-1-1V712.464a1,1,0,0,1,.94-1,12.5,12.5,0,0,0,4.391-.924c-2.953-.706-6.288-2.591-6.288-6.668a.882.882,0,0,1,.008-.126v-3.814a1,1,0,0,1,.793-.979,7.312,7.312,0,0,0,1.979-.691c-2.33-.65-4.929-2.282-5.358-5.661h-27.8c-.429,3.379-3.028,5.011-5.359,5.661a7.325,7.325,0,0,0,1.987.693,1,1,0,0,1,.794.979v3.938c0,4.077-3.336,5.962-6.289,6.668a12.529,12.529,0,0,0,4.392.924,1,1,0,0,1,.94,1v11.473a1,1,0,0,1-1,1Z" fill="#00b2e3"/>
      <path id="Path_1496" data-name="Path 1496" d="M1099.31,701.241h-28.473c-3.92,0-6.495-.954-8.1-3a1,1,0,0,1,.759-1.617c.232-.007,5.743-.244,5.743-5.017a1,1,0,0,1,1-1h29.679a1,1,0,0,1,1,1c0,4.773,5.511,5.01,5.746,5.017a1,1,0,0,1,.756,1.617C1105.805,700.287,1103.23,701.241,1099.31,701.241Zm-33.51-2.973a10.394,10.394,0,0,0,5.037.973h28.473a10.394,10.394,0,0,0,5.037-.973c-2.334-.648-4.942-2.28-5.372-5.665h-27.8C1070.742,695.988,1068.134,697.62,1065.8,698.268Z" fill="#00b2e3"/>
      <rect id="Rectangle_2059" data-name="Rectangle 2059" width="36.873" height="2" transform="translate(1066.637 711.513)" fill="#00b2e3"/>
    </g>
  </g>
</svg>
