<svg xmlns="http://www.w3.org/2000/svg" width="60" height="60" viewBox="0 0 60 60">
  <g id="ico-usa" transform="translate(-2813 -1238)">
    <rect id="Rectangle_2674" data-name="Rectangle 2674" width="60" height="60" transform="translate(2813 1238)" fill="none"/>
    <g id="Symbol_323_1" data-name="Symbol 323 – 1" transform="translate(131 -113)">
      <rect id="Rectangle_2665" data-name="Rectangle 2665" width="40" height="40" transform="translate(2693 1366)" fill="#fff"/>
      <g id="Group_3296" data-name="Group 3296" transform="translate(2597 1353.596)">
        <g id="Group_3284" data-name="Group 3284" transform="translate(100.787 1.05)">
          <path id="Path_1934" data-name="Path 1934" d="M118.341,19.1v1.6a2.261,2.261,0,0,1-2.271,2.271h0A2.261,2.261,0,0,1,113.8,20.7V19.184" transform="translate(-102.857 -3.921)" fill="none" stroke="#00b2e3" stroke-linecap="round" stroke-linejoin="round" stroke-miterlimit="10" stroke-width="2"/>
          <line id="Line_1514" data-name="Line 1514" x1="6.896" transform="translate(9.682 14.422)" fill="none" stroke="#00b2e3" stroke-linecap="round" stroke-linejoin="round" stroke-miterlimit="10" stroke-width="2"/>
          <line id="Line_1515" data-name="Line 1515" y1="2.691" transform="translate(13.13 9.04)" fill="none" stroke="#00b2e3" stroke-linecap="round" stroke-linejoin="round" stroke-miterlimit="10" stroke-width="2"/>
          <line id="Line_1516" data-name="Line 1516" x1="1.934" y1="1.85" transform="translate(9.682 10.638)" fill="none" stroke="#00b2e3" stroke-linecap="round" stroke-linejoin="round" stroke-miterlimit="10" stroke-width="2"/>
          <line id="Line_1517" data-name="Line 1517" x1="2.691" transform="translate(8.925 12.488)" fill="none" stroke="#00b2e3" stroke-linecap="round" stroke-linejoin="round" stroke-miterlimit="10" stroke-width="2"/>
          <line id="Line_1518" data-name="Line 1518" x2="2.775" transform="translate(14.644 12.488)" fill="none" stroke="#00b2e3" stroke-linecap="round" stroke-linejoin="round" stroke-miterlimit="10" stroke-width="2"/>
          <line id="Line_1519" data-name="Line 1519" y1="1.85" x2="1.934" transform="translate(14.644 10.638)" fill="none" stroke="#00b2e3" stroke-linecap="round" stroke-linejoin="round" stroke-miterlimit="10" stroke-width="2"/>
          <path id="Path_1935" data-name="Path 1935" d="M118.9,22.6c1.346,1.682,2.523,3.364,3.7,5.13l.084.084,2.271,1.093,1.766.925" transform="translate(-103.668 -4.478)" fill="none" stroke="#00b2e3" stroke-linecap="round" stroke-linejoin="round" stroke-miterlimit="10" stroke-width="2"/>
          <path id="Path_1936" data-name="Path 1936" d="M127.294,36.163l-2.018-2.018a.628.628,0,0,1,0-.757l3.112-3.112a.628.628,0,0,1,.757,0l2.018,2.018a.628.628,0,0,1,0,.757l-3.112,3.112A.628.628,0,0,1,127.294,36.163Z" transform="translate(-104.662 -5.678)" fill="none" stroke="#00b2e3" stroke-linecap="round" stroke-linejoin="round" stroke-miterlimit="10" stroke-width="2"/>
          <path id="Path_1937" data-name="Path 1937" d="M122.4,54.585V50.128a.181.181,0,0,1,.168-.168h0a1.776,1.776,0,0,0,1.766-1.766V37.6l1.6-1.6" transform="translate(-104.225 -6.609)" fill="none" stroke="#00b2e3" stroke-linecap="round" stroke-linejoin="round" stroke-miterlimit="10" stroke-width="2"/>
          <path id="Path_1938" data-name="Path 1938" d="M111.478,20.255a1.165,1.165,0,0,1-1.934-.42c-.841-2.1-1.682-4.2-2.523-6.391-.673-1.6-1.261-3.2-1.934-4.793L104.33,6.8h-3.112c-.925,1.261-.336,3.868,1.514,3.868h.42l3.027,7.484c0,.084,0,.168-.084.168l-1.346,1.346a.158.158,0,0,0,0,.252l2.271,2.943v20.6a1.776,1.776,0,0,0,1.766,1.766.181.181,0,0,1,.168.168v4.457" transform="translate(-100.787 -1.965)" fill="none" stroke="#00b2e3" stroke-linecap="round" stroke-linejoin="round" stroke-miterlimit="10" stroke-width="2"/>
          <path id="Path_1939" data-name="Path 1939" d="M104.427,2.438a1.514,1.514,0,0,1-3.027,0V2.185a1.577,1.577,0,0,1,3.027,0Z" transform="translate(-100.884 -1.05)" fill="none" stroke="#00b2e3" stroke-linecap="round" stroke-linejoin="round" stroke-miterlimit="10" stroke-width="2"/>
          <line id="Line_1520" data-name="Line 1520" y1="7.569" x2="9.25" transform="translate(6.234 31.914)" fill="none" stroke="rgba(0,178,227,0.4)" stroke-linecap="round" stroke-linejoin="round" stroke-miterlimit="10" stroke-width="2"/>
          <line id="Line_1521" data-name="Line 1521" y1="5.634" x2="6.896" transform="translate(6.234 26.111)" fill="none" stroke="rgba(0,178,227,0.4)" stroke-linecap="round" stroke-linejoin="round" stroke-miterlimit="10" stroke-width="2"/>
        </g>
        <path id="Path_1940" data-name="Path 1940" d="M123.669,61.112h-18.08a.575.575,0,0,1-.589-.589V58.589a.575.575,0,0,1,.589-.589h18.08a.575.575,0,0,1,.589.589v1.934A.575.575,0,0,1,123.669,61.112Z" transform="translate(-0.67 -9.058)" fill="none" stroke="#00b2e3" stroke-linecap="round" stroke-linejoin="round" stroke-miterlimit="10" stroke-width="2"/>
      </g>
    </g>
  </g>
</svg>
