<svg xmlns="http://www.w3.org/2000/svg" width="60" height="60" viewBox="0 0 60 60">
  <g id="ico-aus" transform="translate(-3413 -1243)">
    <rect id="Rectangle_2677" data-name="Rectangle 2677" width="60" height="60" transform="translate(3413 1243)" fill="none"/>
    <g id="Group_3291" data-name="Group 3291" transform="translate(230 -28.028)">
      <path id="Path_1941" data-name="Path 1941" d="M393.688,50.428,391,42.265a.546.546,0,0,1,.384-.672,14.811,14.811,0,0,1,6.53.48" transform="translate(2799.743 1258.649)" fill="none" stroke="#00b2e3" stroke-linecap="round" stroke-linejoin="round" stroke-miterlimit="10" stroke-width="2"/>
      <path id="Path_1942" data-name="Path 1942" d="M399.428,50.287,397.7,38.764a.735.735,0,0,1,.768-.864,12.792,12.792,0,0,1,6.146,2.209" transform="translate(2799.476 1258.789)" fill="none" stroke="#00b2e3" stroke-linecap="round" stroke-linejoin="round" stroke-miterlimit="10" stroke-width="2"/>
      <path id="Path_1943" data-name="Path 1943" d="M406.185,50.126s-.288-8.642-2.689-14.692a1.167,1.167,0,0,1,1.44-1.536c3.745,1.248,10.851,4.9,14.02,16.229" transform="translate(2799.249 1258.95)" fill="none" stroke="#00b2e3" stroke-linecap="round" stroke-linejoin="round" stroke-miterlimit="10" stroke-width="2"/>
      <path id="Path_1944" data-name="Path 1944" d="M416.9,43.788s4.705-3.361,9.411-2.593a1.089,1.089,0,0,1,.768,1.536l-1.152,2.689" transform="translate(2798.713 1258.662)" fill="none" stroke="#00b2e3" stroke-linecap="round" stroke-linejoin="round" stroke-miterlimit="10" stroke-width="2"/>
      <path id="Path_1945" data-name="Path 1945" d="M431.488,50.574l-1.44-4.033-5.954-1.44c-.1,0-.192.1-.1.192l3.169,5.281" transform="translate(2798.432 1258.503)" fill="none" stroke="#00b2e3" stroke-linecap="round" stroke-linejoin="round" stroke-miterlimit="10" stroke-width="2"/>
      <path id="Path_1946" data-name="Path 1946" d="M430.3,46.142s2.4-2.113,8.931-1.152a.288.288,0,0,1,.192.48l-4.417,5.089" transform="translate(2798.18 1258.517)" fill="none" stroke="#00b2e3" stroke-linecap="round" stroke-linejoin="round" stroke-miterlimit="10" stroke-width="2"/>
      <path id="Path_1947" data-name="Path 1947" d="M441.252,58.117H385.076a.62.62,0,0,1-.576-.576V54.276a.62.62,0,0,1,.576-.576h56.176a.62.62,0,0,1,.576.576v3.265Q441.684,58.117,441.252,58.117Z" transform="translate(2800 1258.161)" fill="none" stroke="#00b2e3" stroke-linecap="round" stroke-linejoin="round" stroke-miterlimit="10" stroke-width="2"/>
      <line id="Line_1522" data-name="Line 1522" y2="5.474" transform="translate(3237.987 1303.603)" fill="none" stroke="#00b2e3" stroke-linecap="round" stroke-linejoin="round" stroke-miterlimit="10" stroke-width="2"/>
      <line id="Line_1523" data-name="Line 1523" y2="8.738" transform="translate(3190.55 1300.338)" fill="none" stroke="#00b2e3" stroke-linecap="round" stroke-linejoin="round" stroke-miterlimit="10" stroke-width="2"/>
      <path id="Path_1948" data-name="Path 1948" d="M404.8,57.43V53.109h-7.2l-6.05-2.209L390.4,51.956h-2.5V57.43" transform="translate(2799.865 1258.272)" fill="#fff" stroke="#00b2e3" stroke-linecap="round" stroke-linejoin="round" stroke-miterlimit="10" stroke-width="2"/>
    </g>
  </g>
</svg>
