<svg xmlns="http://www.w3.org/2000/svg" width="65" height="65" viewBox="0 0 65 65">
  <g id="Group_2480" data-name="Group 2480" transform="translate(-5702 -598)">
    <path id="Path_1447" data-name="Path 1447" d="M1117.811,668.456h-65v-65h65Zm-64-1h63v-63h-63Z" transform="translate(4649.189 -5.456)" fill="none"/>
    <g id="Group_2463" data-name="Group 2463" transform="translate(4649.189 -5.456)">
      <g id="Group_2462" data-name="Group 2462" opacity="0.3">
        <path id="Path_1453" data-name="Path 1453" d="M1102.2,660.112h-32.468a2.96,2.96,0,0,1-2.956-2.957v-2.279a2.96,2.96,0,0,1,2.956-2.957H1102.2a2.96,2.96,0,0,1,2.957,2.957v2.279A2.96,2.96,0,0,1,1102.2,660.112Zm-32.468-6.193a.958.958,0,0,0-.956.957v2.279a.957.957,0,0,0,.956.957H1102.2a.958.958,0,0,0,.957-.957v-2.279a.958.958,0,0,0-.957-.957Z" fill="#00b2e3"/>
        <path id="Path_1454" data-name="Path 1454" d="M1098.509,653.919h-25.085a2.96,2.96,0,0,1-2.957-2.957v-2.28a2.96,2.96,0,0,1,2.957-2.957h25.085a2.96,2.96,0,0,1,2.957,2.957v2.28A2.96,2.96,0,0,1,1098.509,653.919Zm-25.085-6.194a.958.958,0,0,0-.957.957v2.28a.958.958,0,0,0,.957.957h25.085a.958.958,0,0,0,.957-.957v-2.28a.958.958,0,0,0-.957-.957Z" fill="#00b2e3"/>
        <path id="Path_1455" data-name="Path 1455" d="M1097.633,647.725H1074.3a1,1,0,0,1-.468-1.883h0c-.007,0,2.329-1.662,2.329-10.284,0-3.4.811-5.918,2.41-7.486a5.184,5.184,0,0,1,3.506-1.554h7.795a5.254,5.254,0,0,1,3.491,1.554c1.6,1.568,2.41,4.086,2.41,7.486,0,8.641,2.347,10.291,2.371,10.306a1.029,1.029,0,0,1,.427,1.135A.987.987,0,0,1,1097.633,647.725Zm-21.274-2h19.215c-.885-1.662-1.8-4.7-1.8-10.167,0-2.8-.626-4.9-1.81-6.057a3.3,3.3,0,0,0-2.065-.983h-7.841c-.167,0-3.9.1-3.9,7.04C1078.16,641.023,1077.244,644.063,1076.359,645.725Z" fill="#00b2e3"/>
        <path id="Path_1456" data-name="Path 1456" d="M1089.872,628.518h-7.811a1,1,0,0,1-1-1v-3.434a1,1,0,0,1,1-1h7.811a1,1,0,0,1,1,1v3.434A1,1,0,0,1,1089.872,628.518Zm-6.811-2h5.811v-1.434h-5.811Z" fill="#00b2e3"/>
        <path id="Path_1457" data-name="Path 1457" d="M1089.872,625.084h-7.811a1,1,0,0,1-.966-1.26l3.56-13.23a1.342,1.342,0,0,1,1.31-1.005h0a1.343,1.343,0,0,1,1.311,1.005l3.56,13.23a1,1,0,0,1-.965,1.26Zm-6.506-2h5.2l-2.6-9.665Z" fill="#00b2e3"/>
      </g>
      <path id="Path_1458" data-name="Path 1458" d="M1102.42,660.112h-32.907a2.74,2.74,0,0,1-2.738-2.737v-2.72a2.74,2.74,0,0,1,2.738-2.736h1.055a2.714,2.714,0,0,1-.1-.737v-2.72a2.739,2.739,0,0,1,2.737-2.737h.753c.486-.5,2.2-2.775,2.2-10.167,0-3.4.811-5.918,2.41-7.486a5.452,5.452,0,0,1,2.491-1.419v-2.569a1.038,1.038,0,0,1,.034-.26l3.56-13.23a1.358,1.358,0,0,1,2.622,0l3.56,13.231a1,1,0,0,1,.035.26v2.568a5.459,5.459,0,0,1,2.49,1.42c1.6,1.568,2.41,4.086,2.41,7.486,0,7.325,1.686,9.626,2.214,10.167h.743a2.74,2.74,0,0,1,2.737,2.737v2.72a2.714,2.714,0,0,1-.1.737h1.055a2.739,2.739,0,0,1,2.737,2.736v2.72A2.74,2.74,0,0,1,1102.42,660.112Zm-32.907-6.193a.738.738,0,0,0-.738.736v2.72a.738.738,0,0,0,.738.737h32.907a.738.738,0,0,0,.737-.737v-2.72a.737.737,0,0,0-.737-.736h-3.691a1,1,0,0,1,0-2,.738.738,0,0,0,.737-.737v-2.72a.738.738,0,0,0-.737-.737h-1.1a.984.984,0,0,1-.469-.118c-.347-.183-3.392-2.087-3.392-12.049,0-2.8-.626-4.9-1.81-6.057a3.3,3.3,0,0,0-2.065-.983h0a1.042,1.042,0,0,1-.723-.287,1,1,0,0,1-.3-.713v-3.3l-2.906-10.8-2.9,10.8v3.3a1,1,0,0,1-1,1c-.172,0-3.9.1-3.9,7.04,0,9.962-3.045,11.866-3.392,12.049a.983.983,0,0,1-.469.118H1073.2a.738.738,0,0,0-.737.737v2.72a.738.738,0,0,0,.737.737,1,1,0,0,1,0,2Z" fill="#00b2e3"/>
      <rect id="Rectangle_2039" data-name="Rectangle 2039" width="23.334" height="2" transform="translate(1074.299 645.725)" fill="#00b2e3"/>
    </g>
  </g>
</svg>
