<svg xmlns="http://www.w3.org/2000/svg" width="65" height="65" viewBox="0 0 65 65">
  <g id="Group_2485" data-name="Group 2485" transform="translate(-5702 -968.817)">
    <path id="Path_1452" data-name="Path 1452" d="M1117.811,1039.273h-65v-65h65Zm-64-1h63v-63h-63Z" transform="translate(4649.189 -5.456)" fill="none"/>
    <g id="Group_2464" data-name="Group 2464" transform="translate(4649.189 -5.456)">
      <path id="Path_1459" data-name="Path 1459" d="M1066.8,1012.6c-.008-.078-.792-7.806-5.314-13.339a1,1,0,0,1,.775-1.633h.008A30.927,30.927,0,0,1,1074,1000.3l-.869,1.8a27.7,27.7,0,0,0-8.785-2.325,30.773,30.773,0,0,1,4.453,12.64Z" fill="#00b2e3" opacity="0.3"/>
      <path id="Path_1460" data-name="Path 1460" d="M1074.877,1012.723l-1.955-.423c.019-.089,1.864-9.024-2.716-16.874a1,1,0,0,1,.008-1.023.965.965,0,0,1,.9-.48c.279.014,6.9.363,11.737,3.9l-1.179,1.616a20.935,20.935,0,0,0-8.839-3.311A28.217,28.217,0,0,1,1074.877,1012.723Z" fill="#00b2e3" opacity="0.4"/>
      <path id="Path_1461" data-name="Path 1461" d="M1083.63,1012.666l-1.976-.31c.02-.127,1.923-12.882-3.87-23.344a1,1,0,0,1,1.111-1.456c.247.059,24.669,6.22,21.885,25.1l-1.978-.291c2.048-13.892-12.536-20.268-18.2-22.2C1085.427,1000.713,1083.71,1012.152,1083.63,1012.666Z" fill="#00b2e3" opacity="0.4"/>
      <path id="Path_1462" data-name="Path 1462" d="M1086.539,1013.508l-.163-1.994c4.92-.4,9.151-3.723,11.319-8.887l1.844.773C1097.077,1009.267,1092.217,1013.045,1086.539,1013.508Z" fill="#00b2e3" opacity="0.3"/>
      <path id="Path_1463" data-name="Path 1463" d="M1074.868,1012.763l-1.936-.5c2.392-9.17,6.21-13.537,8.985-14.567l.7,1.875C1080.843,1000.224,1077.221,1003.742,1074.868,1012.763Z" fill="#00b2e3" opacity="0.3"/>
      <path id="Path_1464" data-name="Path 1464" d="M1074.846,1012.723l-1.955-.423c.019-.089,1.862-9.024-2.717-16.874a1,1,0,0,1,.864-1.5c.358.015,6.975.364,11.816,3.9l-1.179,1.616a20.974,20.974,0,0,0-8.873-3.316A28.227,28.227,0,0,1,1074.846,1012.723Z" fill="#00b2e3"/>
      <path id="Path_1465" data-name="Path 1465" d="M1083.657,1012.666l-1.975-.31c.019-.127,1.9-12.74-3.774-23.168a1,1,0,0,1-.242-.78,1.025,1.025,0,0,1,1.3-.836c1.427.371,24.531,6.693,21.819,25.084l-1.978-.291c2.044-13.866-12.481-20.244-18.167-22.189C1085.454,1000.722,1083.738,1012.152,1083.657,1012.666Z" fill="#00b2e3"/>
      <rect id="Rectangle_2040" data-name="Rectangle 2040" width="47.346" height="2" transform="translate(1061.638 1011.511)" fill="#fff"/>
      <rect id="Rectangle_2041" data-name="Rectangle 2041" width="47.346" height="2" transform="translate(1061.638 1011.511)" fill="#00b2e3" opacity="0.3"/>
      <path id="Path_1466" data-name="Path 1466" d="M1113.49,1019.173h-56.358a2.594,2.594,0,0,1-2.591-2.591v-2.48a2.594,2.594,0,0,1,2.591-2.591h4.286c1.051-.856,5.115-4.863.021-12.314a1,1,0,0,1,.826-1.564h.008A30.927,30.927,0,0,1,1074,1000.3l-.869,1.8a27.877,27.877,0,0,0-8.99-2.345,11.837,11.837,0,0,1,1.654,8.042,9.071,9.071,0,0,1-3.481,5.542,1,1,0,0,1-.558.17h-4.62a.591.591,0,0,0-.591.591v2.48a.591.591,0,0,0,.591.591h56.358a.592.592,0,0,0,.591-.591v-2.48a.591.591,0,0,0-.591-.591H1109.1a1,1,0,0,1-.995-1.1,38.6,38.6,0,0,1,3.546-11.724,23.431,23.431,0,0,0-12.545,3.205l-.977-1.746c8.368-4.68,15.011-3.33,15.289-3.27a1,1,0,0,1,.668,1.457,37.449,37.449,0,0,0-3.827,11.183h3.232a2.594,2.594,0,0,1,2.591,2.591v2.48A2.594,2.594,0,0,1,1113.49,1019.173Z" fill="#00b2e3"/>
    </g>
  </g>
</svg>
