<svg xmlns="http://www.w3.org/2000/svg" width="65" height="65" viewBox="0 0 65 65">
  <g id="Group_2484" data-name="Group 2484" transform="translate(-5702 -894.653)">
    <path id="Path_1451" data-name="Path 1451" d="M1117.811,965.109h-65v-65h65Zm-64-1h63v-63h-63Z" transform="translate(4649.189 -5.456)" fill="none"/>
    <path id="Path_1497" data-name="Path 1497" d="M1072.841,956.98c-.16-9.2-.22-12.645,4.785-15.449,4.833-2.708,4.807-3.772,4.738-6.617-.01-.377-.019-.777-.019-1.206h2c0,.411.009.795.018,1.157.084,3.454-.125,5.254-5.759,8.41-3.669,2.056-3.933,3.951-3.763,13.67Z" transform="translate(4649.189 -5.456)" fill="#00b2e3"/>
    <path id="Path_1498" data-name="Path 1498" d="M1073.167,947.785c-.017-.117-.481-3.129-4.864-5.073a6.827,6.827,0,0,1-4.328-6.6l2,.051a4.778,4.778,0,0,0,3.141,4.719c5.479,2.431,6.018,6.5,6.038,6.667Z" transform="translate(4649.189 -5.456)" fill="#00b2e3"/>
    <path id="Path_1499" data-name="Path 1499" d="M1077.967,943.393c-4.124-.621-4.033-4.27-3.989-6.023l2,.049c-.061,2.465.265,3.691,2.287,3.995Z" transform="translate(4649.189 -5.456)" fill="#00b2e3"/>
    <g id="Group_2478" data-name="Group 2478" transform="translate(4649.189 -5.456)" opacity="0.3">
      <path id="Path_1500" data-name="Path 1500" d="M1065.365,933.326a1,1,0,0,1-.93-.633,6.493,6.493,0,0,1-.46-2.4c0-4.466,4.667-8.1,10.4-8.1,4.517,0,8.491,2.237,9.889,5.566a1,1,0,0,1-1.844.773c-1.073-2.555-4.381-4.339-8.045-4.339-4.633,0-8.4,2.736-8.4,6.1a4.531,4.531,0,0,0,.32,1.664,1,1,0,0,1-.563,1.3A1.011,1.011,0,0,1,1065.365,933.326Z" fill="#00b2e3" opacity="0.3"/>
      <path id="Path_1501" data-name="Path 1501" d="M1084.927,935.244c-2.873,0-5.449-.856-6.724-2.235a1,1,0,0,1,1.469-1.358c.733.793,2.642,1.593,5.255,1.593,3.414,0,5.593-1.356,5.593-2.291,0-.658-1.064-1.564-3.1-2.023a1,1,0,1,1,.44-1.951c2.873.649,4.657,2.171,4.657,3.974C1092.52,933.4,1089.256,935.244,1084.927,935.244Z" fill="#00b2e3" opacity="0.3"/>
      <path id="Path_1502" data-name="Path 1502" d="M1074.378,938.4a12.485,12.485,0,0,1-5.9-1.431,21.411,21.411,0,0,1-2.81.183c-2.284,0-8.353,0-8.353-4.538,0-2.9,2.418-5.824,7.8-6.009,1.764-2.693,5.325-4.4,9.263-4.4a12.791,12.791,0,0,1,5.03,1.007,6.567,6.567,0,0,1,3.553-1.007c3.208,0,5.818,2.172,5.818,4.842,0,.038,0,.077,0,.115,2.337.743,3.752,2.124,3.752,3.727,0,2.446-3.264,4.291-7.593,4.291a13.811,13.811,0,0,1-2.1-.159A11.456,11.456,0,0,1,1074.378,938.4Zm-5.71-3.468a1,1,0,0,1,.5.135,10.4,10.4,0,0,0,5.209,1.333,9.369,9.369,0,0,0,7.287-3.088.989.989,0,0,1,.983-.36,11.488,11.488,0,0,0,2.288.224c3.414,0,5.593-1.357,5.593-2.291,0-.655-1.064-1.56-3.1-2.02a1,1,0,0,1-.741-1.249,2.09,2.09,0,0,0,.088-.573c0-1.567-1.713-2.842-3.818-2.842a4.438,4.438,0,0,0-2.809.934,1,1,0,0,1-1.075.122,10.65,10.65,0,0,0-4.7-1.056c-3.461,0-6.529,1.521-7.815,3.873a1,1,0,0,1-.877.521c-4.409,0-6.374,2.018-6.374,4.019,0,.76,0,2.538,6.353,2.538a19.349,19.349,0,0,0,2.855-.209A1.059,1.059,0,0,1,1068.668,934.927Z" fill="#00b2e3"/>
    </g>
    <g id="Group_2479" data-name="Group 2479" transform="translate(4649.189 -5.456)">
      <path id="Path_1503" data-name="Path 1503" d="M1083.459,916.326l4.655,17.484v.5a68.682,68.682,0,0,0,1.145,9.124l-1.4,13.413H1091l2.053-13.881.888-.248a8.906,8.906,0,0,1,5.544.248h0c2.432,2.258,2.754,14,2.754,14h2.7l-.253-15.1a11.054,11.054,0,0,0-6.9-8.7h0a11.354,11.354,0,0,1-6.5-6.641l-4.373-12.478,3.507-.917c1.489-.545.688-3.43-1.922-2.911l-2.072.367-.481-2.021a1.155,1.155,0,0,0-1.505-.642c-.652.172-.884.581-.84,1.019l.437,2.007-5.924,1.78.8,2.04a2.469,2.469,0,0,0,1.8,1.2Z" fill="#fff"/>
      <path id="Path_1504" data-name="Path 1504" d="M1104.943,957.963h-2.7a1,1,0,0,1-1-.973c-.118-4.26-.849-11.457-2.313-13.163a7.83,7.83,0,0,0-4.717-.146l-.263.073-1.958,13.238a1,1,0,0,1-.989.854h-3.135a1,1,0,0,1-.994-1.1l1.38-13.268a66.324,66.324,0,0,1-1.136-9.165v-.368l-4.449-16.712-2.074-.275a3.443,3.443,0,0,1-2.535-1.684.883.883,0,0,1-.067-.139l-.8-2.04a1,1,0,0,1,.643-1.324l5.037-1.514-.24-1.1a1.007,1.007,0,0,1-.018-.112,1.94,1.94,0,0,1,1.58-2.087,2.155,2.155,0,0,1,2.647,1.149.929.929,0,0,1,.086.229l.262,1.1,1.144-.2a3.047,3.047,0,0,1,3.74,2.052,2.222,2.222,0,0,1-1.3,2.783l-2.549.669,4.015,11.455a10.353,10.353,0,0,0,5.925,6.042,12.082,12.082,0,0,1,7.523,9.486,1.069,1.069,0,0,1,.01.127l.253,15.1a1,1,0,0,1-1,1.017Zm-1.74-2h.723l-.235-14.021a10.076,10.076,0,0,0-6.266-7.849,12.361,12.361,0,0,1-7.075-7.227l-4.379-12.492a1,1,0,0,1,.691-1.3l3.507-.917c.057-.025-.028-.333-.029-.336-.112-.4-.557-.8-1.445-.627l-2.093.371a1,1,0,0,1-1.147-.753l-.448-1.883a.3.3,0,0,0-.061-.077h-.03a.809.809,0,0,0-.22.034.748.748,0,0,0-.077.023l.4,1.821a1,1,0,0,1-.689,1.171l-4.883,1.467.373.947a1.46,1.46,0,0,0,1.037.656l2.737.363a1,1,0,0,1,.835.734l4.654,17.485a.967.967,0,0,1,.034.257v.5a67.942,67.942,0,0,0,1.128,8.937,1,1,0,0,1,.012.29l-1.28,12.31h1.162l1.927-13.027a1,1,0,0,1,.72-.816l.888-.248a9.819,9.819,0,0,1,6.167.275,1.027,1.027,0,0,1,.327.2C1102.479,944.382,1103.062,952.7,1103.2,955.963Z" fill="#00b2e3"/>
    </g>
    <path id="Path_1505" data-name="Path 1505" d="M1096.48,957.963h-2.366a1,1,0,0,1-.955-.7l-2.121-6.838,1.91-.592,1.9,6.134h.435l-2.33-13.069,1.968-.352,2.54,14.245a1,1,0,0,1-.984,1.176Z" transform="translate(4649.189 -5.456)" fill="#00b2e3" opacity="0.3"/>
    <path id="Path_1506" data-name="Path 1506" d="M1108.269,957.963h-3.326a1,1,0,0,1-1-.982l-.2-10.534,2-.037.18,9.553h1.279l-.509-7.933-2.9-5.717,1.784-.9,2.989,5.9a1.014,1.014,0,0,1,.106.387l.59,9.2a1,1,0,0,1-1,1.065Z" transform="translate(4649.189 -5.456)" fill="#00b2e3" opacity="0.3"/>
    <path id="Path_1507" data-name="Path 1507" d="M1110.331,945.2a6.994,6.994,0,0,1-7.13-5.191l1.941-.481c.191.772,1.427,4.56,7.035,3.485l.379,1.963A11.769,11.769,0,0,1,1110.331,945.2Z" transform="translate(4649.189 -5.456)" fill="#00b2e3"/>
    <path id="Path_1508" data-name="Path 1508" d="M1112.031,946.093a2.219,2.219,0,0,1-2.946-1.734,1.945,1.945,0,0,1,2.015-2.489c1.6-.059,2.1,1.524,4.619,1.028a.23.23,0,0,1,.215.386C1115.03,944.183,1113.252,945.819,1112.031,946.093Z" transform="translate(4649.189 -5.456)" fill="#00b2e3"/>
    <circle id="Ellipse_127" data-name="Ellipse 127" cx="1.056" cy="1.056" r="1.056" transform="translate(5741.917 928.124)" fill="#00b2e3"/>
    <circle id="Ellipse_128" data-name="Ellipse 128" cx="0.747" cy="0.747" r="0.747" transform="translate(5748.423 932.081)" fill="#00b2e3"/>
    <circle id="Ellipse_129" data-name="Ellipse 129" cx="0.562" cy="0.562" r="0.562" transform="translate(5740.62 926.205)" fill="#00b2e3"/>
    <circle id="Ellipse_130" data-name="Ellipse 130" cx="1.419" cy="1.419" r="1.419" transform="translate(5744.732 929.834)" fill="#00b2e3"/>
    <path id="Path_1509" data-name="Path 1509" d="M1078.115,957.963h-8.768a1,1,0,0,1,0-2h8.768a1,1,0,0,1,0,2Z" transform="translate(4649.189 -5.456)" fill="#00b2e3" opacity="0.3"/>
  </g>
</svg>
