<svg xmlns="http://www.w3.org/2000/svg" width="60" height="60" viewBox="0 0 60 60">
  <g id="ico-china" transform="translate(-2613 -1238)">
    <rect id="Rectangle_2675" data-name="Rectangle 2675" width="60" height="60" transform="translate(2613 1238)" fill="none"/>
    <g id="Symbol_321_1" data-name="Symbol 321 – 1" transform="translate(-269 -131.5)">
      <rect id="Rectangle_2665" data-name="Rectangle 2665" width="40" height="40" transform="translate(2891 1378)" fill="#fff"/>
      <g id="Group_3290" data-name="Group 3290" transform="translate(90 101.57)">
        <path id="Path_1961" data-name="Path 1961" d="M29.2,24.3V35.529l4.646,1.452a.338.338,0,0,0,.194-.1V24.978Z" transform="translate(2799.098 1258.838)" fill="none" stroke="#00b2e3" stroke-linecap="round" stroke-linejoin="round" stroke-miterlimit="10" stroke-width="2"/>
        <path id="Path_1962" data-name="Path 1962" d="M1,25.446v5.711H9.325V25.446h0V23.8H1v1.646" transform="translate(2800 1258.854)" fill="none" stroke="#00b2e3" stroke-linecap="round" stroke-linejoin="round" stroke-miterlimit="10" stroke-width="2"/>
        <path id="Path_1963" data-name="Path 1963" d="M34.137,24.866l3-4.066H32.878L29.2,24.188Z" transform="translate(2799.098 1258.95)" fill="none" stroke="#00b2e3" stroke-linecap="round" stroke-linejoin="round" stroke-miterlimit="10" stroke-width="2"/>
        <line id="Line_1534" data-name="Line 1534" x2="4.646" y2="3.388" transform="translate(2836.235 1279.75)" fill="none" stroke="#00b2e3" stroke-linecap="round" stroke-linejoin="round" stroke-miterlimit="10" stroke-width="2"/>
        <path id="Path_1964" data-name="Path 1964" d="M34.294,34.187V30.993c.29-.1.678-.1,1.162-.194.678,0,1.162-.1,1.549.194a2.16,2.16,0,0,1,.968,1.549,3.812,3.812,0,0,1-.484,2.517,5.053,5.053,0,0,1-1.452,1.065A13.979,13.979,0,0,1,34.1,37.188" transform="translate(2798.941 1258.63)" fill="none" stroke="#00b2e3" stroke-linecap="round" stroke-linejoin="round" stroke-miterlimit="10" stroke-width="2"/>
        <path id="Path_1965" data-name="Path 1965" d="M33.866,37.4A27.073,27.073,0,0,0,26.8,42.821" transform="translate(2799.175 1258.419)" fill="none" stroke="#00b2e3" stroke-linecap="round" stroke-linejoin="round" stroke-miterlimit="10" stroke-width="2"/>
        <path id="Path_1966" data-name="Path 1966" d="M28.57,26.522l-7.938-2.13a8.351,8.351,0,0,0-2.71-.194L9.5,25.264" transform="translate(2799.728 1258.843)" fill="none" stroke="#00b2e3" stroke-linecap="round" stroke-linejoin="round" stroke-miterlimit="10" stroke-width="2"/>
        <path id="Path_1967" data-name="Path 1967" d="M9.6,31.152,17.538,29.8a6.331,6.331,0,0,1,3,.194l8.034,2.323" transform="translate(2799.725 1258.665)" fill="none" stroke="#00b2e3" stroke-linecap="round" stroke-linejoin="round" stroke-miterlimit="10" stroke-width="2"/>
        <path id="Path_1968" data-name="Path 1968" d="M25.912,61.973H6.552A1.4,1.4,0,0,1,5.1,60.424L6.068,43H26.105L27.46,60.327A1.613,1.613,0,0,1,25.912,61.973Z" transform="translate(2799.869 1258.24)" fill="none" stroke="#00b2e3" stroke-linecap="round" stroke-linejoin="round" stroke-miterlimit="10" stroke-width="2"/>
        <line id="Line_1535" data-name="Line 1535" y1="0.387" transform="translate(2840.882 1292.237)" fill="none" stroke="#00b2e3" stroke-linecap="round" stroke-linejoin="round" stroke-miterlimit="10" stroke-width="2"/>
        <path id="Path_1969" data-name="Path 1969" d="M34.3,24.978l7.647-.678v7.163" transform="translate(2798.935 1258.838)" fill="none" stroke="#00b2e3" stroke-linecap="round" stroke-linejoin="round" stroke-miterlimit="10" stroke-width="2"/>
        <path id="Path_1970" data-name="Path 1970" d="M26.138,42.85H6.1l.194-4.55H9.488v2.42h2.323V38.3h3.1v2.42h2.42V38.3h2.9v2.42h2.42V38.3h3.194Z" transform="translate(2799.837 1258.39)" fill="none" stroke="#00b2e3" stroke-linecap="round" stroke-linejoin="round" stroke-miterlimit="10" stroke-width="2"/>
        <path id="Path_1971" data-name="Path 1971" d="M41.749,33.7V45.8a7.539,7.539,0,0,1-2.323,5.421L28.1,61.191" transform="translate(2799.133 1258.537)" fill="none" stroke="#00b2e3" stroke-linecap="round" stroke-linejoin="round" stroke-miterlimit="10" stroke-width="2"/>
        <path id="Path_1972" data-name="Path 1972" d="M5.9,46.066H26.422c.968-.968,2.13-2.033,3.388-3.1a62.186,62.186,0,0,1,5.13-3.678c1.646-1.065,3.388-1.839,4.743-3.388a6.011,6.011,0,0,0,1.355-2.42A3.182,3.182,0,0,0,39.586,29.9h0" transform="translate(2799.843 1258.659)" fill="none" stroke="rgba(0,178,227,0.4)" stroke-linecap="round" stroke-linejoin="round" stroke-miterlimit="10" stroke-width="2"/>
        <path id="Path_1973" data-name="Path 1973" d="M26.4,46.6l.774,10.745.194,3.194a1.477,1.477,0,0,1-1.452,1.646H6.552A1.4,1.4,0,0,1,5.1,60.636l.194-3.194L5.874,46.7" transform="translate(2799.869 1258.124)" fill="none" stroke="#00b2e3" stroke-linecap="round" stroke-linejoin="round" stroke-miterlimit="10" stroke-width="2"/>
        <path id="Path_1974" data-name="Path 1974" d="M27.17,57.6l.194,3.194a1.477,1.477,0,0,1-1.452,1.646H6.552A1.4,1.4,0,0,1,5.1,60.891L5.293,57.7" transform="translate(2799.869 1257.772)" fill="none" stroke="#00b2e3" stroke-linecap="round" stroke-linejoin="round" stroke-miterlimit="10" stroke-width="2"/>
        <path id="Path_1975" data-name="Path 1975" d="M9.325,21.4v2.323H1V21.4H2.162v.968H3.226V21.4H4.678v.968H5.743V21.4H7.1v.968h.968V21.4Z" transform="translate(2800 1258.931)" fill="none" stroke="#00b2e3" stroke-linecap="round" stroke-linejoin="round" stroke-miterlimit="10" stroke-width="2"/>
      </g>
    </g>
  </g>
</svg>
