<svg xmlns="http://www.w3.org/2000/svg" width="60" height="60" viewBox="0 0 60 60">
  <g id="ico-egypt" transform="translate(-3211 -1238)">
    <rect id="Rectangle_2676" data-name="Rectangle 2676" width="60" height="60" transform="translate(3211 1238)" fill="none"/>
    <g id="Group_3292" data-name="Group 3292" transform="translate(3215.911 1250.26)">
      <path id="Path_1929" data-name="Path 1929" d="M316.5,37.5a3.9,3.9,0,1,0-3.9-3.9A3.8,3.8,0,0,0,316.5,37.5Zm0-6.994a3.1,3.1,0,1,1-3.1,3.1A3.013,3.013,0,0,1,316.5,30.5Z" transform="translate(-274.996 -26.834)" fill="#00b2e3"/>
      <path id="Path_1930" data-name="Path 1930" d="M316.059,29.608a.493.493,0,0,0,.459-.459v-1.49a.459.459,0,0,0-.917,0v1.49A.493.493,0,0,0,316.059,29.608Z" transform="translate(-274.556 -27.2)" fill="rgba(0,178,227,0.4)"/>
      <path id="Path_1931" data-name="Path 1931" d="M315.6,37.359v1.49a.459.459,0,0,0,.917,0v-1.49a.459.459,0,0,0-.917,0Z" transform="translate(-274.556 -25.779)" fill="rgba(0,178,227,0.4)"/>
      <path id="Path_1932" data-name="Path 1932" d="M324.357,33.459c0-.229-.344-.459-.8-.459H320.8c-.459,0-.8.229-.8.459s.344.459.8.459h2.752C324.013,33.8,324.357,33.688,324.357,33.459Z" transform="translate(-273.911 -26.35)" fill="rgba(0,178,227,0.4)"/>
      <path id="Path_1933" data-name="Path 1933" d="M312.357,33.459c0-.229-.344-.459-.8-.459H308.8c-.459,0-.8.229-.8.459s.344.459.8.459h2.752C312.013,33.8,312.357,33.688,312.357,33.459Z" transform="translate(-275.669 -26.35)" fill="rgba(0,178,227,0.4)"/>
      <g id="Group_3289" data-name="Group 3289" transform="translate(0 7.108)">
        <g id="Group_3288" data-name="Group 3288">
          <path id="Path_1959" data-name="Path 1959" d="M316.144,62.406H279.8L304.45,33.4Z" transform="translate(-279.8 -33.4)" fill="none" stroke="#00b2e3" stroke-linecap="round" stroke-linejoin="round" stroke-miterlimit="10" stroke-width="2"/>
          <path id="Path_1960" data-name="Path 1960" d="M301.3,33.4l23.732,29.006H312.994Z" transform="translate(-276.65 -33.4)" fill="none" stroke="#00b2e3" stroke-linecap="round" stroke-linejoin="round" stroke-miterlimit="10" stroke-width="2"/>
          <line id="Line_1525" data-name="Line 1525" x2="5.732" transform="translate(18.115 7.681)" fill="none" stroke="rgba(0,178,227,0.4)" stroke-linecap="round" stroke-linejoin="round" stroke-miterlimit="10" stroke-width="2"/>
          <line id="Line_1526" data-name="Line 1526" x2="5.618" transform="translate(23.388 11.694)" fill="none" stroke="rgba(0,178,227,0.4)" stroke-linecap="round" stroke-linejoin="round" stroke-miterlimit="10" stroke-width="2"/>
          <line id="Line_1527" data-name="Line 1527" x2="5.618" transform="translate(11.35 15.707)" fill="none" stroke="rgba(0,178,227,0.4)" stroke-linecap="round" stroke-linejoin="round" stroke-miterlimit="10" stroke-width="2"/>
          <line id="Line_1528" data-name="Line 1528" x2="5.618" transform="translate(20.637 15.707)" fill="none" stroke="rgba(0,178,227,0.4)" stroke-linecap="round" stroke-linejoin="round" stroke-miterlimit="10" stroke-width="2"/>
          <line id="Line_1529" data-name="Line 1529" x2="5.618" transform="translate(14.56 19.834)" fill="none" stroke="rgba(0,178,227,0.4)" stroke-linecap="round" stroke-linejoin="round" stroke-miterlimit="10" stroke-width="2"/>
          <line id="Line_1530" data-name="Line 1530" x2="5.618" transform="translate(26.599 19.834)" fill="none" stroke="rgba(0,178,227,0.4)" stroke-linecap="round" stroke-linejoin="round" stroke-miterlimit="10" stroke-width="2"/>
          <line id="Line_1531" data-name="Line 1531" x2="5.618" transform="translate(4.471 23.847)" fill="none" stroke="rgba(0,178,227,0.4)" stroke-linecap="round" stroke-linejoin="round" stroke-miterlimit="10" stroke-width="2"/>
          <line id="Line_1532" data-name="Line 1532" x2="5.618" transform="translate(14.56 23.847)" fill="none" stroke="rgba(0,178,227,0.4)" stroke-linecap="round" stroke-linejoin="round" stroke-miterlimit="10" stroke-width="2"/>
          <line id="Line_1533" data-name="Line 1533" x2="5.618" transform="translate(24.65 23.847)" fill="none" stroke="rgba(0,178,227,0.4)" stroke-linecap="round" stroke-linejoin="round" stroke-miterlimit="10" stroke-width="2"/>
        </g>
      </g>
    </g>
  </g>
</svg>
