<svg xmlns="http://www.w3.org/2000/svg" width="65" height="65" viewBox="0 0 65 65">
  <g id="Group_2482" data-name="Group 2482" transform="translate(-5702 -746.327)">
    <path id="Path_1449" data-name="Path 1449" d="M1117.811,816.783h-65v-65h65Zm-64-1h63v-63h-63Z" transform="translate(4649.189 -5.456)" fill="none"/>
    <g id="Group_2468" data-name="Group 2468" transform="translate(4649.189 -5.456)">
      <g id="Group_2467" data-name="Group 2467" opacity="0.3">
        <path id="Path_1467" data-name="Path 1467" d="M1104.157,809.882h-7.964a3.33,3.33,0,0,1-2.892-1.687,9.177,9.177,0,0,0-15.98,0,3.327,3.327,0,0,1-2.891,1.687h-7.965a1,1,0,0,1-.8-1.6c.169-.223,16.942-22.657,16.942-46.941a1,1,0,0,1,1-1h3.4a1,1,0,0,1,1,1c0,24.284,16.773,46.718,16.942,46.941a1,1,0,0,1-.8,1.6Zm-18.846-8.35a11.194,11.194,0,0,1,9.731,5.679,1.324,1.324,0,0,0,1.151.671h6.031c-3.8-5.554-15.825-24.75-16.2-45.545h-1.42c-.378,20.8-12.406,39.991-16.2,45.545h6.032a1.323,1.323,0,0,0,1.15-.671A11.194,11.194,0,0,1,1085.311,801.532Z" fill="#00b2e3"/>
        <g id="Group_2465" data-name="Group 2465">
          <rect id="Rectangle_2042" data-name="Rectangle 2042" width="25.715" height="5.103" rx="1.338" transform="translate(1072.454 793.159)" fill="#fff"/>
          <path id="Path_1468" data-name="Path 1468" d="M1096.83,799.263h-23.038a2.34,2.34,0,0,1-2.338-2.339V794.5a2.34,2.34,0,0,1,2.338-2.339h23.038a2.34,2.34,0,0,1,2.338,2.339v2.426A2.34,2.34,0,0,1,1096.83,799.263Zm-23.038-5.1a.339.339,0,0,0-.338.339v2.426a.339.339,0,0,0,.338.339h23.038a.339.339,0,0,0,.338-.339V794.5a.339.339,0,0,0-.338-.339Z" fill="#00b2e3"/>
        </g>
        <g id="Group_2466" data-name="Group 2466">
          <rect id="Rectangle_2043" data-name="Rectangle 2043" width="6.684" height="3.292" rx="0.847" transform="translate(1081.969 761.337)" fill="#fff"/>
          <path id="Path_1469" data-name="Path 1469" d="M1087.807,765.629h-4.991a1.848,1.848,0,0,1-1.847-1.847v-1.6a1.848,1.848,0,0,1,1.847-1.847h4.991a1.848,1.848,0,0,1,1.846,1.847v1.6A1.848,1.848,0,0,1,1087.807,765.629Zm-4.838-2h4.684v-1.292h-4.684Z" fill="#00b2e3"/>
        </g>
        <rect id="Rectangle_2044" data-name="Rectangle 2044" width="8.227" height="2" transform="matrix(0.421, -0.907, 0.907, 0.421, 1081.06, 792.738)" fill="#00b2e3"/>
        <rect id="Rectangle_2045" data-name="Rectangle 2045" width="2" height="8.226" transform="translate(1084.521 786.116) rotate(-24.864)" fill="#00b2e3"/>
        <path id="Path_1470" data-name="Path 1470" d="M1085.311,762.337a1,1,0,0,1-1-1v-3.265a1,1,0,0,1,2,0v3.265A1,1,0,0,1,1085.311,762.337Z" fill="#00b2e3"/>
        <rect id="Rectangle_2046" data-name="Rectangle 2046" width="12.678" height="2" transform="translate(1079.03 784.109)" fill="#00b2e3"/>
        <rect id="Rectangle_2047" data-name="Rectangle 2047" width="9.7" height="2" transform="translate(1080.52 780.049)" fill="#00b2e3"/>
      </g>
      <path id="Path_1471" data-name="Path 1471" d="M1104.157,809.882h-7.964a3.33,3.33,0,0,1-2.892-1.687,9.177,9.177,0,0,0-15.98,0,3.327,3.327,0,0,1-2.891,1.687h-7.965a1,1,0,0,1-.8-1.6,89.656,89.656,0,0,0,6.25-9.975,2.3,2.3,0,0,1-.463-1.379V794.5a2.34,2.34,0,0,1,2.338-2.339h1.229a77.545,77.545,0,0,0,7.413-26.57,1.849,1.849,0,0,1-1.465-1.807v-1.6a1.848,1.848,0,0,1,1.847-1.847h4.991a1.848,1.848,0,0,1,1.846,1.847v1.6a1.849,1.849,0,0,1-1.465,1.807,77.567,77.567,0,0,0,7.414,26.57h1.228a2.34,2.34,0,0,1,2.338,2.339v2.426a2.291,2.291,0,0,1-.463,1.378,89.664,89.664,0,0,0,6.25,9.976,1,1,0,0,1-.8,1.6Zm-18.846-8.35a11.194,11.194,0,0,1,9.731,5.679,1.324,1.324,0,0,0,1.151.671h6.023a101.554,101.554,0,0,1-5.645-9.319,1,1,0,0,1,.408-1.355.335.335,0,0,0,.189-.284V794.5a.339.339,0,0,0-.338-.339h-1.864a1,1,0,0,1-.9-.573c-4.73-10.027-7.4-19.75-7.939-28.9a1,1,0,0,1,1-1.059h.532v-1.292h-4.684v1.292h.532a1,1,0,0,1,1,1.059c-.537,9.147-3.208,18.871-7.938,28.9a1,1,0,0,1-.9.573h-1.865a.339.339,0,0,0-.338.339v2.426a.335.335,0,0,0,.189.284,1,1,0,0,1,.408,1.355,101.549,101.549,0,0,1-5.645,9.319h6.024a1.323,1.323,0,0,0,1.15-.671A11.194,11.194,0,0,1,1085.311,801.532Z" fill="#00b2e3"/>
      <rect id="Rectangle_2048" data-name="Rectangle 2048" width="23.038" height="2" transform="translate(1073.792 797.263)" fill="#00b2e3"/>
      <path id="Path_1472" data-name="Path 1472" d="M1085.311,762.337a1,1,0,0,1-1-1v-3.265a1,1,0,0,1,2,0v3.265A1,1,0,0,1,1085.311,762.337Z" fill="#00b2e3"/>
    </g>
  </g>
</svg>
