<svg xmlns="http://www.w3.org/2000/svg" viewBox="0 0 64 64">
  <defs>
    <style>
      .cls-1, .cls-3, .cls-5 {
        fill: none;
      }

      .cls-2 {
        opacity: 0.3;
      }

      .cls-3, .cls-4, .cls-5 {
        stroke: #00b2e3;
        stroke-linejoin: round;
        stroke-miterlimit: 10;
        stroke-width: 2px;
      }

      .cls-4 {
        fill: #fff;
      }

      .cls-5 {
        stroke-linecap: round;
      }
    </style>
  </defs>
  <g id="Group_3528" data-name="Group 3528" transform="translate(-2321 -1414)">
    <g id="Symbol_3_4" data-name="Symbol 3 – 4" transform="translate(1722 253)">
      <rect id="Rectangle_74" data-name="Rectangle 74" class="cls-1" width="64" height="64" transform="translate(599 1161)"/>
    </g>
    <g id="Group_3353" data-name="Group 3353" transform="translate(2338 1416)">
      <g id="Group_186" data-name="Group 186" class="cls-2">
        <path id="Path_110" data-name="Path 110" class="cls-3" d="M18.9,21.4h-4l-4.5,1.3a1.284,1.284,0,0,1-1.6-.9L5.6,11.9a.664.664,0,0,0-.5-.4H2.9a.56.56,0,0,0-.5.6L4.5,24.2a4.656,4.656,0,0,0,1.3,2.5L10,31.1V52.8H25.3V24Z"/>
        <path id="Path_111" data-name="Path 111" class="cls-4" d="M20,14.8H13.4v4.4a3.329,3.329,0,0,0,3.3,3.3h0A3.329,3.329,0,0,0,20,19.2V14.8Z"/>
        <line id="Line_77" data-name="Line 77" class="cls-5" x2="10.5" transform="translate(11.6 14.8)"/>
        <line id="Line_78" data-name="Line 78" class="cls-5" y2="4.3" transform="translate(16.5 10.5)"/>
        <line id="Line_79" data-name="Line 79" class="cls-5" x1="2.9" y1="2.7" transform="translate(13.6 12.1)"/>
        <line id="Line_80" data-name="Line 80" class="cls-5" y1="2.7" x2="3" transform="translate(16.5 12.1)"/>
        <path id="Path_112" data-name="Path 112" class="cls-3" d="M6.3,5.8C6.3,3.9,3.7,1,3.7,1S1,3.9,1,5.8,2.2,9.3,3.7,9.3,6.3,7.8,6.3,5.8Z"/>
        <path id="Path_113" data-name="Path 113" class="cls-3" d="M27.8,57.7H7.4a1.11,1.11,0,0,1-1.1-1.1V53.9a1.11,1.11,0,0,1,1.1-1.1H27.8a1.11,1.11,0,0,1,1.1,1.1v2.7A1.11,1.11,0,0,1,27.8,57.7Z"/>
        <path id="Path_114" data-name="Path 114" class="cls-4" d="M25.3,38.5,9.2,48.7a1.264,1.264,0,0,1-1.9-1.1V36.1A1.382,1.382,0,0,1,7.9,35L25.3,24Z"/>
        <path id="Path_115" data-name="Path 115" class="cls-4" d="M28.2,33.1l-5,3.1a1.424,1.424,0,0,1-1.9-.4L19.7,33a1.424,1.424,0,0,1,.4-1.9l5-3.1a1.424,1.424,0,0,1,1.9.4l1.7,2.7A1.638,1.638,0,0,1,28.2,33.1Z"/>
      </g>
      <g id="Group_187" data-name="Group 187">
        <path id="Path_116" data-name="Path 116" class="cls-3" d="M6.3,5.8C6.3,3.9,3.7,1,3.7,1S1,3.9,1,5.8,2.2,9.3,3.7,9.3,6.3,7.8,6.3,5.8Z"/>
        <path id="Path_117" data-name="Path 117" class="cls-3" d="M27.8,52.7H25.4V34.9l2.9-1.8a1.4,1.4,0,0,0,.4-1.9L27,28.5a1.377,1.377,0,0,0-1.6-.5V24l-6.2-2.6a3.168,3.168,0,0,0,.9-2.3V14.7H13.5v4.4a3.492,3.492,0,0,0,1,2.4l-4,1.1a1.284,1.284,0,0,1-1.6-.9L5.7,11.8a.664.664,0,0,0-.5-.4H2.9a.56.56,0,0,0-.5.6L4.5,24.1a4.656,4.656,0,0,0,1.3,2.5L10,31v2.7L7.9,35a1.149,1.149,0,0,0-.6,1.1V47.6a1.264,1.264,0,0,0,1.9,1.1l.8-.5v4.6H7.4a1.11,1.11,0,0,0-1.1,1.1v2.7a1.11,1.11,0,0,0,1.1,1.1H27.8a1.11,1.11,0,0,0,1.1-1.1V53.9A1.135,1.135,0,0,0,27.8,52.7Z"/>
      </g>
      <path id="Path_118" data-name="Path 118" class="cls-4" d="M28.2,33.1l-5,3.1a1.424,1.424,0,0,1-1.9-.4L19.7,33a1.424,1.424,0,0,1,.4-1.9l5-3.1a1.424,1.424,0,0,1,1.9.4l1.7,2.7A1.638,1.638,0,0,1,28.2,33.1Z"/>
    </g>
  </g>
</svg>
