<svg xmlns="http://www.w3.org/2000/svg" viewBox="0 0 64 64">
  <defs>
    <style>
      .cls-1, .cls-3, .cls-4 {
        fill: none;
      }

      .cls-2 {
        opacity: 0.3;
      }

      .cls-3, .cls-4 {
        stroke: #00b2e3;
        stroke-linejoin: round;
        stroke-miterlimit: 10;
        stroke-width: 2px;
      }

      .cls-4 {
        stroke-linecap: round;
      }
    </style>
  </defs>
  <g id="Group_3526" data-name="Group 3526" transform="translate(-1901 -1414)">
    <g id="Symbol_3_2" data-name="Symbol 3 – 2" transform="translate(1302 253)">
      <rect id="Rectangle_74" data-name="Rectangle 74" class="cls-1" width="64" height="64" transform="translate(599 1161)"/>
    </g>
    <g id="Group_3351" data-name="Group 3351" transform="translate(1907 1431)">
      <g id="Group_182" data-name="Group 182" class="cls-2">
        <path id="Path_101" data-name="Path 101" class="cls-3" d="M41.2,2.4H11.5c0,5.8-6.7,6-6.7,6C6.1,10,8.3,11,12.2,11H40.6c3.9,0,6-1,7.3-2.6C47.9,8.4,41.2,8.2,41.2,2.4Z"/>
        <path id="Path_102" data-name="Path 102" class="cls-3" d="M43.9,14.6H8.9c0,5.8-7.9,6-7.9,6,1.5,1.6,4,2.6,8.6,2.6H43.2c4.6,0,7.1-1,8.6-2.6C51.8,20.7,43.9,20.5,43.9,14.6Z"/>
        <rect id="Rectangle_89" data-name="Rectangle 89" class="cls-3" width="36.9" height="11.4" transform="translate(8 23.3)"/>
        <line id="Line_58" data-name="Line 58" class="cls-3" x2="36.8" transform="translate(8 27.6)"/>
        <line id="Line_59" data-name="Line 59" class="cls-3" y2="7.1" transform="translate(13.9 27.6)"/>
        <line id="Line_60" data-name="Line 60" class="cls-3" y2="7.1" transform="translate(22.2 27.6)"/>
        <line id="Line_61" data-name="Line 61" class="cls-3" y2="7.1" transform="translate(30.5 27.6)"/>
        <line id="Line_62" data-name="Line 62" class="cls-3" y2="7.1" transform="translate(38.8 27.6)"/>
        <line id="Line_63" data-name="Line 63" class="cls-3" y1="3.9" transform="translate(8.9 10.7)"/>
        <line id="Line_64" data-name="Line 64" class="cls-3" y1="3.9" transform="translate(43.9 10.7)"/>
        <path id="Path_103" data-name="Path 103" class="cls-3" d="M50.1,40.8H2.6A1.58,1.58,0,0,1,1,39.2V36.3a1.58,1.58,0,0,1,1.6-1.6H50.1a1.58,1.58,0,0,1,1.6,1.6v2.9A1.58,1.58,0,0,1,50.1,40.8Z"/>
        <line id="Line_65" data-name="Line 65" class="cls-4" y1="1.4" transform="translate(11.5 1)"/>
        <line id="Line_66" data-name="Line 66" class="cls-4" y1="1.4" transform="translate(41.2 1)"/>
      </g>
      <line id="Line_67" data-name="Line 67" class="cls-4" y1="1.4" transform="translate(11.5 1)"/>
      <line id="Line_68" data-name="Line 68" class="cls-4" y1="1.4" transform="translate(41.2 1)"/>
      <path id="Path_104" data-name="Path 104" class="cls-3" d="M50.1,34.7H44.8V23.2c3.6-.2,5.6-1.1,7-2.6,0,0-7.9-.2-7.9-6h0V10.7A6.86,6.86,0,0,0,48,8.4s-6.7-.2-6.7-6H11.5c0,5.8-6.7,6-6.7,6a6.571,6.571,0,0,0,4.1,2.3v3.9c0,5.8-7.9,6-7.9,6C2.3,22,4.4,23,8,23.2V34.7H2.6A1.58,1.58,0,0,0,1,36.3v2.9a1.58,1.58,0,0,0,1.6,1.6H50.1a1.58,1.58,0,0,0,1.6-1.6V36.3A1.58,1.58,0,0,0,50.1,34.7Z"/>
      <path id="Path_105" data-name="Path 105" class="cls-3" d="M41.2,2.4H11.5c0,5.8-6.7,6-6.7,6C6.1,10,8.3,11,12.2,11H40.6c3.9,0,6-1,7.3-2.6C47.9,8.4,41.2,8.2,41.2,2.4Z"/>
      <line id="Line_69" data-name="Line 69" class="cls-3" x2="36.8" transform="translate(8 23.3)"/>
    </g>
  </g>
</svg>
