<svg xmlns="http://www.w3.org/2000/svg" viewBox="0 0 64 64">
  <defs>
    <style>
      .cls-1, .cls-3, .cls-5 {
        fill: none;
      }

      .cls-2 {
        opacity: 0.3;
      }

      .cls-3, .cls-4, .cls-5 {
        stroke: #00b2e3;
        stroke-linejoin: round;
        stroke-miterlimit: 10;
        stroke-width: 2px;
      }

      .cls-4 {
        fill: #fff;
      }

      .cls-5 {
        stroke-linecap: round;
      }
    </style>
  </defs>
  <g id="Group_3527" data-name="Group 3527" transform="translate(-2110 -1414)">
    <g id="Symbol_3_3" data-name="Symbol 3 – 3" transform="translate(1511 253)">
      <rect id="Rectangle_74" data-name="Rectangle 74" class="cls-1" width="64" height="64" transform="translate(599 1161)"/>
    </g>
    <g id="Group_3352" data-name="Group 3352" transform="translate(2122 1421)">
      <g id="Group_184" data-name="Group 184" class="cls-2">
        <path id="Path_106" data-name="Path 106" class="cls-3" d="M19.8,45.5h0a10.215,10.215,0,0,1,8.9,5.2h0a2.4,2.4,0,0,0,2,1.2h8S21.6,29.3,21.6,4.4H18.2C18.1,29.2,1,51.8,1,51.8H9a2.4,2.4,0,0,0,2-1.2h0A10.081,10.081,0,0,1,19.8,45.5Z"/>
        <path id="Path_107" data-name="Path 107" class="cls-4" d="M31.4,41.2H8.4a1.324,1.324,0,0,1-1.3-1.3V37.5a1.324,1.324,0,0,1,1.3-1.3h23a1.324,1.324,0,0,1,1.3,1.3v2.4A1.324,1.324,0,0,1,31.4,41.2Z"/>
        <path id="Path_108" data-name="Path 108" class="cls-4" d="M22.3,7.6h-5a.789.789,0,0,1-.8-.8V5.1a.789.789,0,0,1,.8-.8h5a.789.789,0,0,1,.8.8V6.7A.765.765,0,0,1,22.3,7.6Z"/>
        <line id="Line_70" data-name="Line 70" class="cls-3" x1="3.5" y2="7.5" transform="translate(16.5 28.6)"/>
        <line id="Line_71" data-name="Line 71" class="cls-3" x2="3.4" y2="7.5" transform="translate(20 28.6)"/>
        <line id="Line_72" data-name="Line 72" class="cls-5" y1="3.3" transform="translate(19.8 1)"/>
        <line id="Line_73" data-name="Line 73" class="cls-3" x2="12.6" transform="translate(13.6 28)"/>
        <line id="Line_74" data-name="Line 74" class="cls-3" x2="9.7" transform="translate(15.1 24)"/>
      </g>
      <path id="Path_109" data-name="Path 109" class="cls-3" d="M32,41a1.387,1.387,0,0,0,.7-1.2V37.4a1.324,1.324,0,0,0-1.3-1.3H29.5c-3.7-7.8-7.2-17.9-7.8-28.5h.7a.789.789,0,0,0,.8-.8V5.1a.789.789,0,0,0-.8-.8h-5a.789.789,0,0,0-.8.8V6.7a.789.789,0,0,0,.8.8H18c-.6,10.7-4.2,20.7-7.8,28.5H8.3A1.324,1.324,0,0,0,7,37.3v2.4a1.525,1.525,0,0,0,.7,1.2A88.228,88.228,0,0,1,1,51.8H9a2.4,2.4,0,0,0,2-1.2,10.216,10.216,0,0,1,17.8,0h0a2.4,2.4,0,0,0,2,1.2h8A71.956,71.956,0,0,1,32,41Z"/>
      <line id="Line_75" data-name="Line 75" class="cls-3" x2="23.1" transform="translate(8.3 41.2)"/>
      <line id="Line_76" data-name="Line 76" class="cls-5" y1="3.3" transform="translate(19.8 1)"/>
    </g>
  </g>
</svg>
