<svg xmlns="http://www.w3.org/2000/svg" viewBox="0 0 64 64">
  <defs>
    <style>
      .cls-1, .cls-3 {
        fill: none;
      }

      .cls-2 {
        opacity: 0.3;
      }

      .cls-3 {
        stroke: #00b2e3;
        stroke-linejoin: round;
        stroke-miterlimit: 10;
        stroke-width: 2px;
      }
    </style>
  </defs>
  <g id="Group_3525" data-name="Group 3525" transform="translate(-1691 -1414)">
    <g id="Symbol_3_1" data-name="Symbol 3 – 1" transform="translate(1092 253)">
      <rect id="Rectangle_74" data-name="Rectangle 74" class="cls-1" width="64" height="64" transform="translate(599 1161)"/>
    </g>
    <g id="Group_3355" data-name="Group 3355" transform="translate(1704 1423)">
      <g id="Group_192" data-name="Group 192" class="cls-2">
        <path id="Path_140" data-name="Path 140" class="cls-3" d="M35.4,49.5H3a2.006,2.006,0,0,1-2-2V45.2a2.006,2.006,0,0,1,2-2H35.5a2.006,2.006,0,0,1,2,2v2.3A2.165,2.165,0,0,1,35.4,49.5Z"/>
        <path id="Path_141" data-name="Path 141" class="cls-3" d="M31.7,43.3H6.6a2.006,2.006,0,0,1-2-2V39a2.006,2.006,0,0,1,2-2H31.7a2.006,2.006,0,0,1,2,2v2.3A1.944,1.944,0,0,1,31.7,43.3Z"/>
        <path id="Path_142" data-name="Path 142" class="cls-3" d="M23.1,17.9s4.9-.1,4.9,8c0,9.6,2.9,11.2,2.9,11.2H7.5s2.9-1.5,2.9-11.2c0-8.1,4.9-8,4.9-8h7.8Z"/>
        <rect id="Rectangle_90" data-name="Rectangle 90" class="cls-3" width="7.8" height="3.4" transform="translate(15.3 14.5)"/>
        <path id="Path_143" data-name="Path 143" class="cls-3" d="M23.1,14.5H15.3L18.9,1.3a.354.354,0,0,1,.7,0Z"/>
      </g>
      <path id="Path_144" data-name="Path 144" class="cls-3" d="M35.6,43.3H32a1.685,1.685,0,0,0,1.7-1.7V38.9A1.685,1.685,0,0,0,32,37.2H30.9S28,35.7,28,26c0-8.1-4.9-8-4.9-8h0V14.6L19.5,1.3a.354.354,0,0,0-.7,0L15.2,14.5v3.4h0s-4.9-.1-4.9,8c0,9.6-2.9,11.2-2.9,11.2h-1a1.685,1.685,0,0,0-1.7,1.7v2.7a1.685,1.685,0,0,0,1.7,1.7H2.7A1.685,1.685,0,0,0,1,44.9v2.7a1.685,1.685,0,0,0,1.7,1.7H35.6a1.685,1.685,0,0,0,1.7-1.7V44.9A1.6,1.6,0,0,0,35.6,43.3Z"/>
      <line id="Line_84" data-name="Line 84" class="cls-3" x1="23.4" transform="translate(7.5 37.1)"/>
    </g>
  </g>
</svg>
