<svg xmlns="http://www.w3.org/2000/svg" viewBox="0 0 32 32">
  <defs>
    <style>
      .cls-1 {
        fill: none;
      }

      .cls-2 {
        fill: #d41367;
        stroke: #d41367;
      }
    </style>
  </defs>
  <g id="Group_1386" data-name="Group 1386" transform="translate(-131 -340)">
    <rect id="Rectangle_1151" data-name="Rectangle 1151" class="cls-1" width="32" height="32" transform="translate(131 340)"/>
    <g id="Group_1365" data-name="Group 1365" transform="translate(147.254 340.999) rotate(45)">
      <path id="Union_11" data-name="Union 11" class="cls-2" d="M10.463,21.571c-.229,0-.449-.61-.648-1.594L6.548,21.022a.691.691,0,0,1-.884-.764.835.835,0,0,1,.235-.413l3.478-2.833c-.217-1.916-.385-4.165-.479-6.184l-3.587.979L.895,14.427A.591.591,0,0,1,.01,13.81a.715.715,0,0,1,.174-.325l8.69-8.158L8.99,1.412a1.474,1.474,0,0,1,2.946,0l.115,3.916c0,.037,0,.075,0,.113l8.566,8.044a1.238,1.238,0,0,1,.205.325.589.589,0,0,1-.882.617l-4.418-2.62-3.49-.945c-.09,2.085-.261,4.414-.49,6.366l3.213,2.618a.728.728,0,0,1,.265.413.691.691,0,0,1-.882.764l-3.03-.961c-.2.934-.417,1.51-.646,1.51Z" transform="translate(0 0.001)"/>
    </g>
  </g>
</svg>
